{
.appVersion = "1192";
copyright = "Copyright (c) 2013-2019 by Alessio Laiso (hello@alessiolaiso.com).";
customParameters = (
{
name = license;
value = "This Font Software is licensed under the SIL Open Font License, Version 1.1. This license is available with a FAQ at: http://scripts.sil.org/OFL";
},
{
name = licenseURL;
value = "http://scripts.sil.org/OFL";
},
{
name = glyphOrder;
value = (
.notdef,
NULL,
nonmarkingreturn,
space,
exclam,
quotedbl,
numbersign,
dollar,
percent,
ampersand,
quotesingle,
parenleft,
parenright,
asterisk,
plus,
comma,
hyphen,
period,
slash,
zero,
one,
two,
three,
four,
five,
six,
seven,
eight,
nine,
colon,
semicolon,
less,
equal,
greater,
question,
at,
A,
B,
C,
D,
E,
F,
G,
H,
I,
J,
K,
L,
M,
N,
O,
P,
Q,
R,
S,
T,
U,
V,
W,
X,
Y,
Z,
bracketleft,
backslash,
bracketright,
asciicircum,
underscore,
grave,
a,
b,
c,
d,
e,
f,
g,
h,
i,
j,
k,
l,
m,
n,
o,
p,
q,
r,
s,
t,
u,
v,
w,
x,
y,
z,
braceleft,
bar,
braceright,
asciitilde,
uni00A0,
exclamdown,
cent,
sterling,
currency,
yen,
brokenbar,
section,
dieresis,
copyright,
ordfeminine,
guillemotleft,
logicalnot,
uni00AD,
registered,
macron,
degree,
plusminus,
twosuperior,
threesuperior,
acute,
mu,
paragraph,
periodcentered,
cedilla,
onesuperior,
ordmasculine,
guillemotright,
onequarter,
onehalf,
threequarters,
questiondown,
Agrave,
Aacute,
Acircumflex,
Atilde,
Adieresis,
Aring,
AE,
Ccedilla,
Egrave,
Eacute,
Ecircumflex,
Edieresis,
Igrave,
Iacute,
Icircumflex,
Idieresis,
Eth,
Ntilde,
Ograve,
Oacute,
Ocircumflex,
Otilde,
Odieresis,
multiply,
Oslash,
Ugrave,
Uacute,
Ucircumflex,
Udieresis,
Yacute,
Thorn,
germandbls,
agrave,
aacute,
acircumflex,
atilde,
adieresis,
aring,
ae,
ccedilla,
egrave,
eacute,
ecircumflex,
edieresis,
igrave,
iacute,
icircumflex,
idieresis,
eth,
ntilde,
ograve,
oacute,
ocircumflex,
otilde,
odieresis,
divide,
oslash,
ugrave,
uacute,
ucircumflex,
udieresis,
yacute,
thorn,
ydieresis,
Aogonek,
aogonek,
Cacute,
cacute,
Eogonek,
eogonek,
dotlessi,
Lslash,
lslash,
Nacute,
nacute,
OE,
oe,

glyphs = (
{
glyphname = .notdef;
layers = (
{
layerId = "C81CB9C3-2214-4415-8D0B-901773012C9D";
paths = (
{
closed = 1;
nodes = (
"160 570 LINE",
"184 532 LINE",
"188 524 OFFCURVE",
"194 522 OFFCURVE",
"202 522 CURVE SMOOTH",
"206 522 OFFCURVE",
"210 523 OFFCURVE",
"214 526 CURVE SMOOTH",
"218 529 OFFCURVE",
"225 532 OFFCURVE",
"231 536 CURVE SMOOTH",
"237 540 OFFCURVE",
"245 543 OFFCURVE",
"255 546 CURVE SMOOTH",
"265 549 OFFCURVE",
"276 550 OFFCURVE",
"290 550 CURVE SMOOTH",
"309 550 OFFCURVE",
"324 546 OFFCURVE",
"336 536 CURVE SMOOTH",
"348 526 OFFCURVE",
"354 512 OFFCURVE",
"354 495 CURVE SMOOTH",
"354 481 OFFCURVE",
"352 470 OFFCURVE",
"346 460 CURVE SMOOTH",
"340 450 OFFCURVE",
"334 443 OFFCURVE",
"326 435 CURVE SMOOTH",
"318 427 OFFCURVE",
"309 420 OFFCURVE",
"300 414 CURVE SMOOTH",
"291 408 OFFCURVE",
"284 401 OFFCURVE",
"276 394 CURVE SMOOTH",
"268 387 OFFCURVE",
"262 378 OFFCURVE",
"258 370 CURVE SMOOTH",
"254 362 OFFCURVE",
"251 352 OFFCURVE",
"253 340 CURVE",
"259 282 LINE",
"320 282 LINE",
"328 334 LINE",
"330 342 OFFCURVE",
"334 348 OFFCURVE",
"340 354 CURVE SMOOTH",
"346 360 OFFCURVE",
"352 367 OFFCURVE",
"360 373 CURVE SMOOTH",
"368 379 OFFCURVE",
"377 386 OFFCURVE",
"386 393 CURVE SMOOTH",
"395 400 OFFCURVE",
"402 408 OFFCURVE",
"410 418 CURVE SMOOTH",
"418 428 OFFCURVE",
"424 440 OFFCURVE",
"429 454 CURVE SMOOTH",
"434 468 OFFCURVE",
"436 484 OFFCURVE",
"436 502 CURVE SMOOTH",
"436 520 OFFCURVE",
"433 537 OFFCURVE",
"426 552 CURVE SMOOTH",
"419 567 OFFCURVE",
"410 580 OFFCURVE",
"398 590 CURVE SMOOTH",
"386 600 OFFCURVE",
"371 609 OFFCURVE",
"354 615 CURVE SMOOTH",
"337 621 OFFCURVE",
"318 624 OFFCURVE",
"297 624 CURVE SMOOTH",
"281 624 OFFCURVE",
"267 623 OFFCURVE",
"254 620 CURVE SMOOTH",
"241 617 OFFCURVE",
"229 613 OFFCURVE",
"217 608 CURVE SMOOTH",
"205 603 OFFCURVE",
"196 596 OFFCURVE",
"186 590 CURVE SMOOTH",
"176 584 OFFCURVE",
"166 578 OFFCURVE",
"158 570 CURVE"
);
},
{
closed = 1;
nodes = (
"232 145 LINE",
"232 129 OFFCURVE",
"237 116 OFFCURVE",
"247 106 CURVE SMOOTH",
"257 96 OFFCURVE",
"270 90 OFFCURVE",
"286 90 CURVE SMOOTH",
"294 90 OFFCURVE",
"302 91 OFFCURVE",
"308 94 CURVE SMOOTH",
"314 97 OFFCURVE",
"319 101 OFFCURVE",
"324 106 CURVE SMOOTH",
"329 111 OFFCURVE",
"333 118 OFFCURVE",
"336 124 CURVE SMOOTH",
"339 130 OFFCURVE",
"341 137 OFFCURVE",
"341 145 CURVE SMOOTH",
"341 153 OFFCURVE",
"339 159 OFFCURVE",
"336 166 CURVE SMOOTH",
"333 173 OFFCURVE",
"329 179 OFFCURVE",
"324 184 CURVE SMOOTH",
"319 189 OFFCURVE",
"313 193 OFFCURVE",
"307 196 CURVE SMOOTH",
"301 199 OFFCURVE",
"294 201 OFFCURVE",
"286 201 CURVE SMOOTH",
"270 201 OFFCURVE",
"256 195 OFFCURVE",
"246 185 CURVE SMOOTH",
"236 175 OFFCURVE",
"231 162 OFFCURVE",
"231 146 CURVE"
);
},
{
closed = 1;
nodes = (
"56 716 LINE",
"56 0 LINE",
"542 0 LINE",
"542 716 LINE"
);
},
{
closed = 1;
nodes = (
"80 27 LINE",
"80 689 LINE",
"514 689 LINE",
"514 27 LINE"
);
}
);
width = 598;
},
{
layerId = "3F211455-7DB7-4737-9D97-BF0B219628E9";
paths = (
{
closed = 1;
nodes = (
"178 546 LINE",
"180 542 OFFCURVE",
"183 541 OFFCURVE",
"188 541 CURVE SMOOTH",
"190 541 OFFCURVE",
"195 543 OFFCURVE",
"199 547 CURVE SMOOTH",
"203 551 OFFCURVE",
"209 555 OFFCURVE",
"217 560 CURVE SMOOTH",
"225 565 OFFCURVE",
"234 569 OFFCURVE",
"245 573 CURVE SMOOTH",
"256 577 OFFCURVE",
"269 578 OFFCURVE",
"284 578 CURVE SMOOTH",
"296 578 OFFCURVE",
"307 577 OFFCURVE",
"318 573 CURVE SMOOTH",
"328 569 OFFCURVE",
"337 564 OFFCURVE",
"345 558 CURVE SMOOTH",
"353 552 OFFCURVE",
"359 543 OFFCURVE",
"364 534 CURVE SMOOTH",
"369 525 OFFCURVE",
"371 514 OFFCURVE",
"371 502 CURVE SMOOTH",
"371 486 OFFCURVE",
"369 473 OFFCURVE",
"363 462 CURVE SMOOTH",
"357 451 OFFCURVE",
"350 441 OFFCURVE",
"342 432 CURVE SMOOTH",
"334 423 OFFCURVE",
"324 416 OFFCURVE",
"314 409 CURVE SMOOTH",
"304 402 OFFCURVE",
"295 395 OFFCURVE",
"287 388 CURVE SMOOTH",
"279 381 OFFCURVE",
"272 373 OFFCURVE",
"267 365 CURVE SMOOTH",
"262 357 OFFCURVE",
"259 348 OFFCURVE",
"260 338 CURVE",
"263 277 LINE",
"296 277 LINE",
"300 334 LINE",
"301 342 OFFCURVE",
"305 350 OFFCURVE",
"311 356 CURVE SMOOTH",
"317 362 OFFCURVE",
"325 369 OFFCURVE",
"333 376 CURVE SMOOTH",
"341 383 OFFCURVE",
"350 389 OFFCURVE",
"360 397 CURVE SMOOTH",
"370 405 OFFCURVE",
"379 413 OFFCURVE",
"387 423 CURVE SMOOTH",
"395 433 OFFCURVE",
"401 445 OFFCURVE",
"407 458 CURVE SMOOTH",
"413 471 OFFCURVE",
"416 487 OFFCURVE",
"416 505 CURVE SMOOTH",
"416 522 OFFCURVE",
"412 538 OFFCURVE",
"406 552 CURVE SMOOTH",
"400 566 OFFCURVE",
"391 577 OFFCURVE",
"379 587 CURVE SMOOTH",
"367 597 OFFCURVE",
"354 605 OFFCURVE",
"338 610 CURVE SMOOTH",
"322 615 OFFCURVE",
"306 618 OFFCURVE",
"288 618 CURVE SMOOTH",
"274 618 OFFCURVE",
"261 616 OFFCURVE",
"249 613 CURVE SMOOTH",
"237 610 OFFCURVE",
"226 607 OFFCURVE",
"216 602 CURVE SMOOTH",
"206 597 OFFCURVE",
"197 592 OFFCURVE",
"189 586 CURVE SMOOTH",
"181 580 OFFCURVE",
"173 574 OFFCURVE",
"166 567 CURVE"
);
},
{
closed = 1;
nodes = (
"240 122 OFFCURVE",
"243 113 OFFCURVE",
"250 105 CURVE SMOOTH",
"257 97 OFFCURVE",
"267 94 OFFCURVE",
"278 94 CURVE SMOOTH",
"289 94 OFFCURVE",
"298 97 OFFCURVE",
"305 105 CURVE SMOOTH",
"312 113 OFFCURVE",
"316 122 OFFCURVE",
"316 133 CURVE SMOOTH",
"316 144 OFFCURVE",
"312 152 OFFCURVE",
"305 160 CURVE SMOOTH",
"298 168 OFFCURVE",
"289 172 OFFCURVE",
"278 172 CURVE SMOOTH",
"267 172 OFFCURVE",
"257 168 OFFCURVE",
"250 160 CURVE SMOOTH",
"243 152 OFFCURVE",
"240 144 OFFCURVE",
"240 133 CURVE SMOOTH"
);
},
{
closed = 1;
nodes = (
"58 708 LINE",
"58 0 LINE",
"524 0 LINE",
"524 708 LINE"
);
},
{
closed = 1;
nodes = (
"76 18 LINE",
"76 690 LINE",
"505 690 LINE",
"505 18 LINE"
);
}
);
width = 582;
},
{
layerId = "394C4E3B-EB1E-48D6-87F8-186C851DDDB0";
paths = (
{
closed = 1;
nodes = (
"185 521 LINE",
"190 511 OFFCURVE",
"199 506 OFFCURVE",
"210 506 CURVE SMOOTH",
"215 506 OFFCURVE",
"220 508 OFFCURVE",
"224 510 CURVE SMOOTH",
"240 518 LINE SMOOTH",
"246 521 OFFCURVE",
"253 523 OFFCURVE",
"261 525 CURVE SMOOTH",
"269 527 OFFCURVE",
"279 528 OFFCURVE",
"291 528 CURVE SMOOTH",
"306 528 OFFCURVE",
"319 525 OFFCURVE",
"327 518 CURVE SMOOTH",
"335 511 OFFCURVE",
"339 501 OFFCURVE",
"339 489 CURVE SMOOTH",
"339 477 OFFCURVE",
"336 467 OFFCURVE",
"331 459 CURVE SMOOTH",
"326 451 OFFCURVE",
"320 443 OFFCURVE",
"312 436 CURVE SMOOTH",
"304 429 OFFCURVE",
"296 422 OFFCURVE",
"288 416 CURVE SMOOTH",
"280 410 OFFCURVE",
"272 403 OFFCURVE",
"265 396 CURVE SMOOTH",
"258 389 OFFCURVE",
"253 381 OFFCURVE",
"249 372 CURVE SMOOTH",
"245 363 OFFCURVE",
"244 353 OFFCURVE",
"246 341 CURVE SMOOTH",
"255 284 LINE",
"339 284 LINE",
"350 332 LINE",
"352 339 OFFCURVE",
"355 346 OFFCURVE",
"361 352 CURVE SMOOTH",
"367 358 OFFCURVE",
"373 364 OFFCURVE",
"381 370 CURVE SMOOTH",
"389 376 OFFCURVE",
"397 383 OFFCURVE",
"405 390 CURVE SMOOTH",
"413 397 OFFCURVE",
"422 405 OFFCURVE",
"429 415 CURVE SMOOTH",
"436 425 OFFCURVE",
"441 436 OFFCURVE",
"446 449 CURVE SMOOTH",
"451 462 OFFCURVE",
"453 479 OFFCURVE",
"453 497 CURVE SMOOTH",
"453 517 OFFCURVE",
"450 534 OFFCURVE",
"443 550 CURVE SMOOTH",
"436 566 OFFCURVE",
"426 580 OFFCURVE",
"413 592 CURVE SMOOTH",
"400 604 OFFCURVE",
"384 612 OFFCURVE",
"365 618 CURVE SMOOTH",
"346 624 OFFCURVE",
"326 628 OFFCURVE",
"303 628 CURVE SMOOTH",
"270 628 OFFCURVE",
"241 622 OFFCURVE",
"217 612 CURVE SMOOTH",
"193 602 OFFCURVE",
"171 589 OFFCURVE",
"152 574 CURVE"
);
},
{
closed = 1;
nodes = (
"225 147 OFFCURVE",
"226 138 OFFCURVE",
"230 130 CURVE SMOOTH",
"234 122 OFFCURVE",
"239 115 OFFCURVE",
"245 109 CURVE SMOOTH",
"251 103 OFFCURVE",
"258 98 OFFCURVE",
"266 94 CURVE SMOOTH",
"274 90 OFFCURVE",
"283 89 OFFCURVE",
"293 89 CURVE SMOOTH",
"302 89 OFFCURVE",
"311 90 OFFCURVE",
"319 94 CURVE SMOOTH",
"327 98 OFFCURVE",
"335 103 OFFCURVE",
"341 109 CURVE SMOOTH",
"347 115 OFFCURVE",
"351 122 OFFCURVE",
"355 130 CURVE SMOOTH",
"359 138 OFFCURVE",
"361 147 OFFCURVE",
"361 157 CURVE SMOOTH",
"361 166 OFFCURVE",
"359 175 OFFCURVE",
"355 183 CURVE SMOOTH",
"351 191 OFFCURVE",
"347 199 OFFCURVE",
"341 205 CURVE SMOOTH",
"335 211 OFFCURVE",
"327 215 OFFCURVE",
"319 219 CURVE SMOOTH",
"311 223 OFFCURVE",
"302 225 OFFCURVE",
"293 225 CURVE SMOOTH",
"283 225 OFFCURVE",
"274 223 OFFCURVE",
"266 219 CURVE SMOOTH",
"258 215 OFFCURVE",
"251 211 OFFCURVE",
"245 205 CURVE SMOOTH",
"239 199 OFFCURVE",
"234 191 OFFCURVE",
"230 183 CURVE SMOOTH",
"226 175 OFFCURVE",
"225 166 OFFCURVE",
"225 157 CURVE SMOOTH"
);
},
{
closed = 1;
nodes = (
"53 723 LINE",
"53 0 LINE",
"559 0 LINE",
"559 723 LINE"
);
},
{
closed = 1;
nodes = (
"86 35 LINE",
"86 689 LINE",
"523 689 LINE",
"523 35 LINE"
);
}
);
width = 612;
}
);
note = .notdef;
},
{
glyphname = exclam;
layers = (
{
layerId = "C81CB9C3-2214-4415-8D0B-901773012C9D";
paths = (
{
closed = 1;
nodes = (
"193 716 LINE",
"109 716 LINE",
"109 430 LINE",
"109 386 LINE SMOOTH",
"109 372 OFFCURVE",
"110 357 OFFCURVE",
"111 343 CURVE SMOOTH",
"112 329 OFFCURVE",
"113 313 OFFCURVE",
"115 298 CURVE SMOOTH",
"117 283 OFFCURVE",
"118 268 OFFCURVE",
"120 250 CURVE",
"181 250 LINE",
"183 268 OFFCURVE",
"183 283 OFFCURVE",
"185 298 CURVE SMOOTH",
"187 313 OFFCURVE",
"188 328 OFFCURVE",
"189 342 CURVE SMOOTH",
"190 356 OFFCURVE",
"191 372 OFFCURVE",
"191 386 CURVE SMOOTH",
"191 430 LINE"
);
},
{
closed = 1;
nodes = (
"85 45 OFFCURVE",
"87 38 OFFCURVE",
"90 30 CURVE SMOOTH",
"93 22 OFFCURVE",
"97 16 OFFCURVE",
"103 10 CURVE SMOOTH",
"109 4 OFFCURVE",
"115 0 OFFCURVE",
"123 -3 CURVE SMOOTH",
"131 -6 OFFCURVE",
"139 -8 OFFCURVE",
"147 -8 CURVE SMOOTH",
"155 -8 OFFCURVE",
"163 -6 OFFCURVE",
"171 -3 CURVE SMOOTH",
"179 0 OFFCURVE",
"184 4 OFFCURVE",
"190 10 CURVE SMOOTH",
"196 16 OFFCURVE",
"200 22 OFFCURVE",
"203 30 CURVE SMOOTH",
"206 38 OFFCURVE",
"207 45 OFFCURVE",
"207 54 CURVE SMOOTH",
"207 62 OFFCURVE",
"206 70 OFFCURVE",
"203 78 CURVE SMOOTH",
"200 86 OFFCURVE",
"196 92 OFFCURVE",
"190 98 CURVE SMOOTH",
"184 104 OFFCURVE",
"179 107 OFFCURVE",
"171 111 CURVE SMOOTH",
"163 115 OFFCURVE",
"155 116 OFFCURVE",
"147 116 CURVE SMOOTH",
"139 116 OFFCURVE",
"131 115 OFFCURVE",
"123 111 CURVE SMOOTH",
"115 107 OFFCURVE",
"109 104 OFFCURVE",
"103 98 CURVE SMOOTH",
"97 92 OFFCURVE",
"93 86 OFFCURVE",
"90 78 CURVE SMOOTH",
"87 70 OFFCURVE",
"85 62 OFFCURVE",
"85 54 CURVE SMOOTH"
);
}
);
width = 292;
},
{
layerId = "3F211455-7DB7-4737-9D97-BF0B219628E9";
paths = (
{
closed = 1;
nodes = (
"159 708 LINE",
"113 708 LINE",
"113 422 LINE",
"119 244 LINE",
"152 244 LINE",
"159 422 LINE"
);
},
{
closed = 1;
nodes = (
"161 -8 OFFCURVE",
"182 13 OFFCURVE",
"182 39 CURVE SMOOTH",
"182 64 OFFCURVE",
"161 85 OFFCURVE",
"136 85 CURVE SMOOTH",
"110 85 OFFCURVE",
"89 64 OFFCURVE",
"89 39 CURVE SMOOTH",
"89 13 OFFCURVE",
"110 -8 OFFCURVE",
"136 -8 CURVE SMOOTH"
);
}
);
width = 269;
},
{
layerId = "394C4E3B-EB1E-48D6-87F8-186C851DDDB0";
paths = (
{
closed = 1;
nodes = (
"198 723 LINE",
"81 723 LINE",
"81 437 LINE SMOOTH",
"81 407 OFFCURVE",
"83 377 OFFCURVE",
"86 348 CURVE SMOOTH",
"89 319 OFFCURVE",
"93 288 OFFCURVE",
"98 255 CURVE",
"181 255 LINE",
"186 288 OFFCURVE",
"190 319 OFFCURVE",
"193 348 CURVE SMOOTH",
"196 377 OFFCURVE",
"198 407 OFFCURVE",
"198 437 CURVE SMOOTH"
);
},
{
closed = 1;
nodes = (
"63 57 OFFCURVE",
"64 47 OFFCURVE",
"68 38 CURVE SMOOTH",
"72 29 OFFCURVE",
"77 22 OFFCURVE",
"84 15 CURVE SMOOTH",
"91 8 OFFCURVE",
"100 3 OFFCURVE",
"109 -1 CURVE SMOOTH",
"118 -5 OFFCURVE",
"128 -7 OFFCURVE",
"139 -7 CURVE SMOOTH",
"149 -7 OFFCURVE",
"159 -5 OFFCURVE",
"168 -1 CURVE SMOOTH",
"177 3 OFFCURVE",
"185 8 OFFCURVE",
"192 15 CURVE SMOOTH",
"199 22 OFFCURVE",
"204 29 OFFCURVE",
"208 38 CURVE SMOOTH",
"212 47 OFFCURVE",
"214 57 OFFCURVE",
"214 68 CURVE SMOOTH",
"214 78 OFFCURVE",
"212 89 OFFCURVE",
"208 98 CURVE SMOOTH",
"204 107 OFFCURVE",
"199 115 OFFCURVE",
"192 122 CURVE SMOOTH",
"185 129 OFFCURVE",
"177 134 OFFCURVE",
"168 138 CURVE SMOOTH",
"159 142 OFFCURVE",
"149 144 OFFCURVE",
"139 144 CURVE SMOOTH",
"128 144 OFFCURVE",
"118 142 OFFCURVE",
"109 138 CURVE SMOOTH",
"100 134 OFFCURVE",
"91 129 OFFCURVE",
"84 122 CURVE SMOOTH",
"77 115 OFFCURVE",
"72 107 OFFCURVE",
"68 98 CURVE SMOOTH",
"64 89 OFFCURVE",
"63 78 OFFCURVE",
"63 68 CURVE SMOOTH"
);
}
);
width = 277;
}
);
note = exclam;
unicode = 0021;
},
{
glyphname = quotedbl;
layers = (
{
layerId = "C81CB9C3-2214-4415-8D0B-901773012C9D";
paths = (
{
closed = 1;
nodes = (
"146 716 LINE",
"69 716 LINE",
"69 572 LINE",
"77 494 LINE",
"79 484 OFFCURVE",
"82 475 OFFCURVE",
"87 469 CURVE SMOOTH",
"92 463 OFFCURVE",
"99 460 OFFCURVE",
"107 460 CURVE SMOOTH",
"117 460 OFFCURVE",
"125 463 OFFCURVE",
"129 469 CURVE SMOOTH",
"133 475 OFFCURVE",
"137 484 OFFCURVE",
"138 494 CURVE SMOOTH",
"146 571 LINE"
);
},
{
closed = 1;
nodes = (
"313 716 LINE",
"235 716 LINE",
"235 571 LINE",
"243 494 LINE",
"245 484 OFFCURVE",
"248 474 OFFCURVE",
"253 468 CURVE SMOOTH",
"258 462 OFFCURVE",
"265 460 OFFCURVE",
"273 460 CURVE SMOOTH",
"283 460 OFFCURVE",
"292 462 OFFCURVE",
"296 468 CURVE SMOOTH",
"300 474 OFFCURVE",
"304 483 OFFCURVE",
"305 493 CURVE SMOOTH",
"313 570 LINE"
);
}
);
width = 382;
},
{
layerId = "3F211455-7DB7-4737-9D97-BF0B219628E9";
paths = (
{
closed = 1;
nodes = (
"112 708 LINE",
"70 708 LINE",
"70 562 LINE",
"75 485 LINE",
"76 479 OFFCURVE",
"78 467 OFFCURVE",
"91 467 CURVE SMOOTH",
"99 467 OFFCURVE",
"106 470 OFFCURVE",
"108 485 CURVE",
"112 562 LINE"
);
},
{
closed = 1;
nodes = (
"257 708 LINE",
"216 708 LINE",
"216 562 LINE",
"220 485 LINE",
"221 479 OFFCURVE",
"223 467 OFFCURVE",
"236 467 CURVE SMOOTH",
"247 467 OFFCURVE",
"250 473 OFFCURVE",
"252 485 CURVE",
"257 562 LINE"
);
}
);
width = 327;
},
{
layerId = "394C4E3B-EB1E-48D6-87F8-186C851DDDB0";
paths = (
{
closed = 1;
nodes = (
"161 723 LINE",
"54 723 LINE",
"54 579 LINE",
"64 501 LINE SMOOTH",
"66 486 OFFCURVE",
"71 475 OFFCURVE",
"78 467 CURVE SMOOTH",
"85 459 OFFCURVE",
"94 456 OFFCURVE",
"106 456 CURVE SMOOTH",
"120 456 OFFCURVE",
"131 459 OFFCURVE",
"137 467 CURVE SMOOTH",
"143 475 OFFCURVE",
"148 486 OFFCURVE",
"150 501 CURVE SMOOTH",
"161 579 LINE"
);
},
{
closed = 1;
nodes = (
"345 723 LINE",
"238 723 LINE",
"238 579 LINE",
"248 501 LINE SMOOTH",
"250 486 OFFCURVE",
"255 475 OFFCURVE",
"262 467 CURVE SMOOTH",
"269 459 OFFCURVE",
"278 456 OFFCURVE",
"290 456 CURVE SMOOTH",
"304 456 OFFCURVE",
"315 459 OFFCURVE",
"321 467 CURVE SMOOTH",
"327 475 OFFCURVE",
"332 486 OFFCURVE",
"334 501 CURVE SMOOTH",
"345 579 LINE"
);
}
);
width = 399;
}
);
leftKerningGroup = ordfeminine;
note = quotedbl;
rightKerningGroup = ordfeminine;
unicode = 0022;
},
{
glyphname = numbersign;
layers = (
{
layerId = "C81CB9C3-2214-4415-8D0B-901773012C9D";
paths = (
{
closed = 1;
nodes = (
"407 212 LINE",
"525 212 LINE",
"529 240 LINE",
"529 242 OFFCURVE",
"530 244 OFFCURVE",
"530 246 CURVE SMOOTH",
"530 251 LINE SMOOTH",
"530 261 OFFCURVE",
"527 267 OFFCURVE",
"523 271 CURVE SMOOTH",
"519 275 OFFCURVE",
"513 277 OFFCURVE",
"505 277 CURVE SMOOTH",
"415 277 LINE",
"448 440 LINE",
"517 440 LINE SMOOTH",
"529 440 OFFCURVE",
"539 442 OFFCURVE",
"545 446 CURVE SMOOTH",
"551 450 OFFCURVE",
"555 458 OFFCURVE",
"557 468 CURVE",
"563 505 LINE",
"457 505 LINE",
"493 682 LINE",
"493 684 OFFCURVE",
"494 686 OFFCURVE",
"494 688 CURVE SMOOTH",
"494 696 OFFCURVE",
"491 703 OFFCURVE",
"485 708 CURVE SMOOTH",
"479 713 OFFCURVE",
"473 716 OFFCURVE",
"465 716 CURVE SMOOTH",
"425 716 LINE",
"383 504 LINE",
"259 504 LINE",
"301 716 LINE",
"261 716 LINE SMOOTH",
"251 716 OFFCURVE",
"243 713 OFFCURVE",
"236 707 CURVE SMOOTH",
"229 701 OFFCURVE",
"225 694 OFFCURVE",
"223 684 CURVE SMOOTH",
"187 504 LINE",
"107 504 LINE SMOOTH",
"94 504 OFFCURVE",
"85 502 OFFCURVE",
"79 498 CURVE SMOOTH",
"73 494 OFFCURVE",
"69 486 OFFCURVE",
"67 476 CURVE SMOOTH",
"61 440 LINE",
"177 440 LINE",
"145 276 LINE",
"43 276 LINE",
"39 248 LINE",
"39 246 OFFCURVE",
"37 244 OFFCURVE",
"37 242 CURVE SMOOTH",
"37 236 LINE SMOOTH",
"37 226 OFFCURVE",
"40 220 OFFCURVE",
"44 216 CURVE SMOOTH",
"48 212 OFFCURVE",
"54 210 OFFCURVE",
"62 210 CURVE SMOOTH",
"135 210 LINE",
"93 -1 LINE",
"132 -1 LINE SMOOTH",
"142 -1 OFFCURVE",
"149 1 OFFCURVE",
"157 6 CURVE SMOOTH",
"165 11 OFFCURVE",
"171 20 OFFCURVE",
"173 32 CURVE SMOOTH",
"208 210 LINE",
"331 210 LINE",
"296 37 LINE",
"296 35 OFFCURVE",
"295 34 OFFCURVE",
"295 33 CURVE SMOOTH",
"295 29 LINE SMOOTH",
"295 20 OFFCURVE",
"297 13 OFFCURVE",
"303 7 CURVE SMOOTH",
"309 1 OFFCURVE",
"315 -2 OFFCURVE",
"323 -2 CURVE SMOOTH",
"363 -2 LINE"
);
},
{
closed = 1;
nodes = (
"217 276 LINE",
"250 438 LINE",
"373 438 LINE",
"341 276 LINE"
);
}
);
width = 601;
},
{
layerId = "3F211455-7DB7-4737-9D97-BF0B219628E9";
paths = (
{
closed = 1;
nodes = (
"374 222 LINE",
"505 222 LINE",
"507 244 LINE",
"507 253 OFFCURVE",
"501 256 OFFCURVE",
"491 256 CURVE SMOOTH",
"379 256 LINE",
"420 451 LINE",
"512 451 LINE SMOOTH",
"525 451 OFFCURVE",
"533 457 OFFCURVE",
"535 468 CURVE",
"537 486 LINE",
"425 486 LINE",
"469 686 LINE",
"472 699 OFFCURVE",
"467 708 OFFCURVE",
"453 708 CURVE SMOOTH",
"433 708 LINE",
"385 486 LINE",
"236 486 LINE",
"283 708 LINE",
"263 708 LINE SMOOTH",
"251 708 OFFCURVE",
"241 699 OFFCURVE",
"239 688 CURVE",
"196 486 LINE",
"89 486 LINE SMOOTH",
"76 486 OFFCURVE",
"68 481 OFFCURVE",
"67 470 CURVE SMOOTH",
"65 451 LINE",
"191 451 LINE",
"150 256 LINE",
"41 256 LINE",
"39 248 LINE",
"35 232 OFFCURVE",
"39 222 OFFCURVE",
"53 222 CURVE SMOOTH",
"145 222 LINE",
"98 0 LINE",
"119 0 LINE SMOOTH",
"129 0 OFFCURVE",
"137 3 OFFCURVE",
"142 20 CURVE",
"185 222 LINE",
"334 222 LINE",
"291 22 LINE",
"289 12 OFFCURVE",
"290 0 OFFCURVE",
"307 0 CURVE SMOOTH",
"327 0 LINE"
);
},
{
closed = 1;
nodes = (
"190 256 LINE",
"231 451 LINE",
"380 451 LINE",
"339 256 LINE"
);
}
);
width = 575;
},
{
layerId = "394C4E3B-EB1E-48D6-87F8-186C851DDDB0";
paths = (
{
closed = 1;
nodes = (
"432 204 LINE",
"541 204 LINE",
"547 243 LINE SMOOTH",
"548 249 OFFCURVE",
"548 254 OFFCURVE",
"548 259 CURVE SMOOTH",
"548 271 OFFCURVE",
"546 280 OFFCURVE",
"540 285 CURVE SMOOTH",
"534 290 OFFCURVE",
"526 293 OFFCURVE",
"515 293 CURVE SMOOTH",
"445 293 LINE",
"470 431 LINE",
"520 431 LINE SMOOTH",
"538 431 OFFCURVE",
"551 434 OFFCURVE",
"559 440 CURVE SMOOTH",
"567 446 OFFCURVE",
"573 455 OFFCURVE",
"575 468 CURVE SMOOTH",
"584 520 LINE",
"483 520 LINE",
"513 680 LINE",
"513 682 OFFCURVE",
"514 685 OFFCURVE",
"514 688 CURVE SMOOTH",
"514 698 OFFCURVE",
"510 706 OFFCURVE",
"503 713 CURVE SMOOTH",
"496 720 OFFCURVE",
"487 723 OFFCURVE",
"475 723 CURVE SMOOTH",
"419 723 LINE",
"381 520 LINE",
"279 520 LINE",
"317 723 LINE",
"261 723 LINE SMOOTH",
"248 723 OFFCURVE",
"237 719 OFFCURVE",
"227 712 CURVE SMOOTH",
"217 705 OFFCURVE",
"212 694 OFFCURVE",
"209 681 CURVE SMOOTH",
"177 520 LINE",
"122 520 LINE SMOOTH",
"104 520 OFFCURVE",
"91 517 OFFCURVE",
"83 511 CURVE SMOOTH",
"75 505 OFFCURVE",
"69 495 OFFCURVE",
"67 482 CURVE SMOOTH",
"58 431 LINE",
"165 431 LINE",
"139 293 LINE",
"44 293 LINE",
"37 254 LINE SMOOTH",
"36 248 OFFCURVE",
"36 242 OFFCURVE",
"36 237 CURVE SMOOTH",
"36 225 OFFCURVE",
"39 217 OFFCURVE",
"45 212 CURVE SMOOTH",
"51 207 OFFCURVE",
"58 204 OFFCURVE",
"69 204 CURVE SMOOTH",
"127 204 LINE",
"89 0 LINE",
"143 0 LINE SMOOTH",
"156 0 OFFCURVE",
"168 3 OFFCURVE",
"179 10 CURVE SMOOTH",
"190 17 OFFCURVE",
"196 29 OFFCURVE",
"199 45 CURVE SMOOTH",
"228 204 LINE",
"331 204 LINE",
"301 51 LINE",
"301 49 OFFCURVE",
"300 48 OFFCURVE",
"300 46 CURVE SMOOTH",
"300 41 LINE SMOOTH",
"300 29 OFFCURVE",
"304 20 OFFCURVE",
"311 12 CURVE SMOOTH",
"318 4 OFFCURVE",
"327 0 OFFCURVE",
"337 0 CURVE SMOOTH",
"393 0 LINE"
);
},
{
closed = 1;
nodes = (
"241 293 LINE",
"267 431 LINE",
"369 431 LINE",
"343 293 LINE"
);
}
);
width = 620;
}
);
note = numbersign;
unicode = 0023;
},
{
glyphname = dollar;
layers = (
{
layerId = "C81CB9C3-2214-4415-8D0B-901773012C9D";
paths = (
{
closed = 1;
nodes = (
"248 -6 LINE",
"241 -119 LINE",
"274 -119 LINE SMOOTH",
"281 -119 OFFCURVE",
"287 -117 OFFCURVE",
"291 -112 CURVE SMOOTH",
"295 -107 OFFCURVE",
"298 -100 OFFCURVE",
"298 -94 CURVE",
"304 -6 LINE",
"340 -4 OFFCURVE",
"372 3 OFFCURVE",
"400 15 CURVE SMOOTH",
"428 27 OFFCURVE",
"451 44 OFFCURVE",
"470 64 CURVE SMOOTH",
"489 84 OFFCURVE",
"504 107 OFFCURVE",
"514 133 CURVE SMOOTH",
"524 159 OFFCURVE",
"528 188 OFFCURVE",
"528 218 CURVE SMOOTH",
"528 248 OFFCURVE",
"523 274 OFFCURVE",
"511 294 CURVE SMOOTH",
"499 314 OFFCURVE",
"484 331 OFFCURVE",
"466 345 CURVE SMOOTH",
"448 359 OFFCURVE",
"427 370 OFFCURVE",
"403 378 CURVE SMOOTH",
"379 386 OFFCURVE",
"356 394 OFFCURVE",
"332 402 CURVE",
"348 644 LINE",
"364 642 OFFCURVE",
"380 638 OFFCURVE",
"392 632 CURVE SMOOTH",
"404 626 OFFCURVE",
"415 622 OFFCURVE",
"425 616 CURVE SMOOTH",
"435 610 OFFCURVE",
"443 605 OFFCURVE",
"450 601 CURVE SMOOTH",
"457 597 OFFCURVE",
"462 595 OFFCURVE",
"466 595 CURVE SMOOTH",
"474 595 OFFCURVE",
"483 600 OFFCURVE",
"489 610 CURVE SMOOTH",
"510 643 LINE",
"490 663 OFFCURVE",
"468 678 OFFCURVE",
"442 692 CURVE SMOOTH",
"416 706 OFFCURVE",
"387 716 OFFCURVE",
"352 720 CURVE",
"359 818 LINE",
"326 818 LINE SMOOTH",
"318 818 OFFCURVE",
"312 816 OFFCURVE",
"308 811 CURVE SMOOTH",
"304 806 OFFCURVE",
"300 800 OFFCURVE",
"300 794 CURVE",
"296 722 LINE",
"262 720 OFFCURVE",
"230 714 OFFCURVE",
"204 702 CURVE SMOOTH",
"178 690 OFFCURVE",
"155 676 OFFCURVE",
"137 658 CURVE SMOOTH",
"119 640 OFFCURVE",
"106 619 OFFCURVE",
"96 596 CURVE SMOOTH",
"86 573 OFFCURVE",
"81 549 OFFCURVE",
"81 525 CURVE SMOOTH",
"81 493 OFFCURVE",
"87 466 OFFCURVE",
"98 444 CURVE SMOOTH",
"109 422 OFFCURVE",
"123 404 OFFCURVE",
"141 390 CURVE SMOOTH",
"159 376 OFFCURVE",
"180 365 OFFCURVE",
"202 356 CURVE SMOOTH",
"224 347 OFFCURVE",
"246 339 OFFCURVE",
"270 332 CURVE",
"252 66 LINE",
"230 68 OFFCURVE",
"210 74 OFFCURVE",
"194 82 CURVE SMOOTH",
"178 90 OFFCURVE",
"164 97 OFFCURVE",
"152 105 CURVE SMOOTH",
"140 113 OFFCURVE",
"131 120 OFFCURVE",
"123 126 CURVE SMOOTH",
"115 132 OFFCURVE",
"108 136 OFFCURVE",
"102 136 CURVE SMOOTH",
"98 136 OFFCURVE",
"92 134 OFFCURVE",
"88 132 CURVE SMOOTH",
"84 130 OFFCURVE",
"80 128 OFFCURVE",
"78 124 CURVE",
"51 82 LINE",
"75 57 OFFCURVE",
"103 37 OFFCURVE",
"136 21 CURVE SMOOTH",
"169 5 OFFCURVE",
"206 -4 OFFCURVE",
"246 -8 CURVE"
);
},
{
closed = 1;
nodes = (
"443 201 LINE",
"443 183 OFFCURVE",
"440 166 OFFCURVE",
"434 150 CURVE SMOOTH",
"428 134 OFFCURVE",
"420 122 OFFCURVE",
"408 110 CURVE SMOOTH",
"396 98 OFFCURVE",
"383 89 OFFCURVE",
"366 81 CURVE SMOOTH",
"349 73 OFFCURVE",
"330 68 OFFCURVE",
"308 66 CURVE",
"324 316 LINE",
"340 310 OFFCURVE",
"357 304 OFFCURVE",
"371 298 CURVE SMOOTH",
"385 292 OFFCURVE",
"398 283 OFFCURVE",
"408 275 CURVE SMOOTH",
"418 267 OFFCURVE",
"428 256 OFFCURVE",
"434 244 CURVE SMOOTH",
"440 232 OFFCURVE",
"442 217 OFFCURVE",
"442 201 CURVE"
);
},
{
closed = 1;
nodes = (
"165 533 LINE",
"165 547 OFFCURVE",
"167 560 OFFCURVE",
"172 572 CURVE SMOOTH",
"177 584 OFFCURVE",
"185 596 OFFCURVE",
"195 606 CURVE SMOOTH",
"205 616 OFFCURVE",
"218 624 OFFCURVE",
"234 630 CURVE SMOOTH",
"250 636 OFFCURVE",
"268 642 OFFCURVE",
"290 644 CURVE",
"275 418 LINE",
"259 424 OFFCURVE",
"246 430 OFFCURVE",
"232 436 CURVE SMOOTH",
"218 442 OFFCURVE",
"206 451 OFFCURVE",
"196 460 CURVE SMOOTH",
"186 469 OFFCURVE",
"179 479 OFFCURVE",
"173 491 CURVE SMOOTH",
"167 503 OFFCURVE",
"164 517 OFFCURVE",
"164 533 CURVE"
);
}
);
width = 573;
},
{
layerId = "3F211455-7DB7-4737-9D97-BF0B219628E9";
paths = (
{
closed = 1;
nodes = (
"244 -128 LINE",
"262 -128 LINE SMOOTH",
"272 -128 OFFCURVE",
"276 -121 OFFCURVE",
"277 -113 CURVE",
"282 -8 LINE",
"411 0 OFFCURVE",
"496 83 OFFCURVE",
"496 206 CURVE SMOOTH",
"496 315 OFFCURVE",
"421 349 OFFCURVE",
"302 387 CURVE",
"316 673 LINE",
"357 669 OFFCURVE",
"413 648 OFFCURVE",
"437 624 CURVE SMOOTH",
"448 613 OFFCURVE",
"457 613 OFFCURVE",
"465 624 CURVE",
"476 641 LINE",
"432 685 OFFCURVE",
"380 709 OFFCURVE",
"318 713 CURVE",
"324 814 LINE",
"306 814 LINE SMOOTH",
"296 814 OFFCURVE",
"291 805 OFFCURVE",
"291 798 CURVE",
"286 714 LINE",
"179 710 OFFCURVE",
"89 644 OFFCURVE",
"89 532 CURVE SMOOTH",
"89 427 OFFCURVE",
"156 384 OFFCURVE",
"269 350 CURVE",
"253 32 LINE",
"194 36 OFFCURVE",
"134 66 OFFCURVE",
"94 106 CURVE SMOOTH",
"86 114 OFFCURVE",
"77 114 OFFCURVE",
"69 104 CURVE",
"55 84 LINE",
"103 30 OFFCURVE",
"171 -4 OFFCURVE",
"250 -8 CURVE"
);
},
{
closed = 1;
nodes = (
"451 102 OFFCURVE",
"384 39 OFFCURVE",
"285 32 CURVE",
"300 341 LINE",
"388 315 OFFCURVE",
"451 282 OFFCURVE",
"451 199 CURVE SMOOTH"
);
},
{
closed = 1;
nodes = (
"133 614 OFFCURVE",
"195 670 OFFCURVE",
"285 674 CURVE",
"271 398 LINE",
"185 425 OFFCURVE",
"133 461 OFFCURVE",
"133 536 CURVE SMOOTH"
);
}
);
width = 546;
},
{
layerId = "394C4E3B-EB1E-48D6-87F8-186C851DDDB0";
paths = (
{
closed = 1;
nodes = (
"232 -112 LINE",
"277 -112 LINE SMOOTH",
"287 -112 OFFCURVE",
"295 -108 OFFCURVE",
"301 -102 CURVE SMOOTH",
"307 -96 OFFCURVE",
"310 -88 OFFCURVE",
"311 -80 CURVE",
"317 -7 LINE",
"354 -4 OFFCURVE",
"388 3 OFFCURVE",
"417 16 CURVE SMOOTH",
"446 29 OFFCURVE",
"470 46 OFFCURVE",
"490 67 CURVE SMOOTH",
"510 88 OFFCURVE",
"525 112 OFFCURVE",
"535 139 CURVE SMOOTH",
"545 166 OFFCURVE",
"551 195 OFFCURVE",
"551 226 CURVE SMOOTH",
"551 257 OFFCURVE",
"545 284 OFFCURVE",
"533 305 CURVE SMOOTH",
"521 326 OFFCURVE",
"506 343 OFFCURVE",
"487 357 CURVE SMOOTH",
"468 371 OFFCURVE",
"448 382 OFFCURVE",
"424 391 CURVE SMOOTH",
"400 400 OFFCURVE",
"377 409 OFFCURVE",
"353 416 CURVE",
"370 622 LINE",
"383 619 OFFCURVE",
"394 616 OFFCURVE",
"405 611 CURVE SMOOTH",
"416 606 OFFCURVE",
"426 602 OFFCURVE",
"435 597 CURVE",
"444 593 OFFCURVE",
"451 589 OFFCURVE",
"458 586 CURVE SMOOTH",
"465 583 OFFCURVE",
"471 581 OFFCURVE",
"476 581 CURVE SMOOTH",
"483 581 OFFCURVE",
"488 583 OFFCURVE",
"493 586 CURVE SMOOTH",
"498 589 OFFCURVE",
"502 594 OFFCURVE",
"507 601 CURVE SMOOTH",
"537 646 LINE",
"518 664 OFFCURVE",
"496 681 OFFCURVE",
"470 695 CURVE SMOOTH",
"444 709 OFFCURVE",
"414 719 OFFCURVE",
"379 725 CURVE",
"387 824 LINE",
"342 824 LINE SMOOTH",
"332 824 OFFCURVE",
"324 820 OFFCURVE",
"318 814 CURVE SMOOTH",
"312 808 OFFCURVE",
"309 800 OFFCURVE",
"308 792 CURVE",
"303 730 LINE",
"266 728 OFFCURVE",
"233 720 OFFCURVE",
"205 708 CURVE SMOOTH",
"177 696 OFFCURVE",
"152 681 OFFCURVE",
"133 662 CURVE SMOOTH",
"114 643 OFFCURVE",
"99 621 OFFCURVE",
"89 597 CURVE SMOOTH",
"79 573 OFFCURVE",
"74 547 OFFCURVE",
"74 522 CURVE SMOOTH",
"74 488 OFFCURVE",
"80 461 OFFCURVE",
"91 438 CURVE SMOOTH",
"102 415 OFFCURVE",
"118 396 OFFCURVE",
"136 381 CURVE SMOOTH",
"154 366 OFFCURVE",
"175 355 OFFCURVE",
"198 346 CURVE SMOOTH",
"221 337 OFFCURVE",
"245 329 OFFCURVE",
"269 322 CURVE",
"249 98 LINE",
"230 101 OFFCURVE",
"215 107 OFFCURVE",
"201 114 CURVE SMOOTH",
"187 121 OFFCURVE",
"176 127 OFFCURVE",
"165 134 CURVE SMOOTH",
"154 141 OFFCURVE",
"144 148 OFFCURVE",
"136 153 CURVE SMOOTH",
"128 158 OFFCURVE",
"120 160 OFFCURVE",
"113 160 CURVE SMOOTH",
"107 160 OFFCURVE",
"101 159 OFFCURVE",
"95 156 CURVE SMOOTH",
"89 153 OFFCURVE",
"85 148 OFFCURVE",
"82 143 CURVE",
"44 87 LINE",
"68 63 OFFCURVE",
"97 43 OFFCURVE",
"131 27 CURVE SMOOTH",
"165 11 OFFCURVE",
"202 1 OFFCURVE",
"241 -4 CURVE"
);
},
{
closed = 1;
nodes = (
"433 176 OFFCURVE",
"424 151 OFFCURVE",
"406 132 CURVE SMOOTH",
"388 113 OFFCURVE",
"361 101 OFFCURVE",
"326 96 CURVE",
"343 300 LINE",
"356 296 OFFCURVE",
"368 290 OFFCURVE",
"379 285 CURVE SMOOTH",
"390 280 OFFCURVE",
"400 273 OFFCURVE",
"408 266 CURVE SMOOTH",
"416 259 OFFCURVE",
"422 251 OFFCURVE",
"427 241 CURVE",
"431 231 OFFCURVE",
"433 220 OFFCURVE",
"433 207 CURVE SMOOTH"
);
},
{
closed = 1;
nodes = (
"191 545 OFFCURVE",
"192 556 OFFCURVE",
"196 566 CURVE SMOOTH",
"200 576 OFFCURVE",
"207 584 OFFCURVE",
"215 592 CURVE SMOOTH",
"223 600 OFFCURVE",
"234 607 OFFCURVE",
"247 613 CURVE",
"260 618 OFFCURVE",
"275 622 OFFCURVE",
"293 624 CURVE",
"278 439 LINE",
"265 444 OFFCURVE",
"254 449 OFFCURVE",
"243 455 CURVE SMOOTH",
"232 461 OFFCURVE",
"223 467 OFFCURVE",
"215 475 CURVE SMOOTH",
"207 483 OFFCURVE",
"201 491 OFFCURVE",
"197 501 CURVE SMOOTH",
"193 511 OFFCURVE",
"191 521 OFFCURVE",
"191 534 CURVE SMOOTH"
);
}
);
width = 591;
}
);
note = dollar;
unicode = 0024;
},
{
glyphname = percent;
layers = (
{
layerId = "C81CB9C3-2214-4415-8D0B-901773012C9D";
paths = (
{
closed = 1;
nodes = (
"356 572 OFFCURVE",
"352 598 OFFCURVE",
"344 620 CURVE SMOOTH",
"336 642 OFFCURVE",
"326 661 OFFCURVE",
"312 677 CURVE SMOOTH",
"298 693 OFFCURVE",
"281 704 OFFCURVE",
"261 712 CURVE SMOOTH",
"241 720 OFFCURVE",
"220 724 OFFCURVE",
"198 724 CURVE SMOOTH",
"176 724 OFFCURVE",
"155 720 OFFCURVE",
"136 712 CURVE SMOOTH",
"117 704 OFFCURVE",
"99 693 OFFCURVE",
"85 677 CURVE SMOOTH",
"71 661 OFFCURVE",
"60 642 OFFCURVE",
"52 620 CURVE SMOOTH",
"44 598 OFFCURVE",
"40 572 OFFCURVE",
"40 544 CURVE SMOOTH",
"40 516 OFFCURVE",
"44 490 OFFCURVE",
"52 468 CURVE SMOOTH",
"60 446 OFFCURVE",
"71 428 OFFCURVE",
"85 413 CURVE SMOOTH",
"99 398 OFFCURVE",
"116 386 OFFCURVE",
"135 378 CURVE SMOOTH",
"154 370 OFFCURVE",
"176 366 OFFCURVE",
"198 366 CURVE SMOOTH",
"219 366 OFFCURVE",
"238 370 OFFCURVE",
"258 378 CURVE SMOOTH",
"278 386 OFFCURVE",
"295 398 OFFCURVE",
"309 413 CURVE SMOOTH",
"323 428 OFFCURVE",
"336 446 OFFCURVE",
"344 468 CURVE SMOOTH",
"352 490 OFFCURVE",
"356 516 OFFCURVE",
"356 544 CURVE SMOOTH"
);
},
{
closed = 1;
nodes = (
"287 544 LINE",
"287 522 OFFCURVE",
"284 503 OFFCURVE",
"280 488 CURVE SMOOTH",
"276 473 OFFCURVE",
"269 462 OFFCURVE",
"261 452 CURVE SMOOTH",
"253 442 OFFCURVE",
"243 435 OFFCURVE",
"232 431 CURVE SMOOTH",
"221 427 OFFCURVE",
"210 425 OFFCURVE",
"198 425 CURVE SMOOTH",
"186 425 OFFCURVE",
"173 427 OFFCURVE",
"162 431 CURVE SMOOTH",
"151 435 OFFCURVE",
"142 442 OFFCURVE",
"134 452 CURVE SMOOTH",
"126 462 OFFCURVE",
"119 473 OFFCURVE",
"115 488 CURVE SMOOTH",
"111 503 OFFCURVE",
"108 522 OFFCURVE",
"108 544 CURVE SMOOTH",
"108 566 OFFCURVE",
"110 584 OFFCURVE",
"114 600 CURVE SMOOTH",
"118 616 OFFCURVE",
"125 628 OFFCURVE",
"133 638 CURVE SMOOTH",
"141 648 OFFCURVE",
"151 655 OFFCURVE",
"162 659 CURVE SMOOTH",
"173 663 OFFCURVE",
"184 666 OFFCURVE",
"196 666 CURVE SMOOTH",
"208 666 OFFCURVE",
"221 663 OFFCURVE",
"232 659 CURVE SMOOTH",
"243 655 OFFCURVE",
"252 648 OFFCURVE",
"260 638 CURVE SMOOTH",
"268 628 OFFCURVE",
"275 616 OFFCURVE",
"279 600 CURVE SMOOTH",
"283 584 OFFCURVE",
"286 566 OFFCURVE",
"286 544 CURVE"
);
},
{
closed = 1;
nodes = (
"606 698 LINE",
"85 0 LINE",
"151 0 LINE SMOOTH",
"157 0 OFFCURVE",
"164 2 OFFCURVE",
"168 4 CURVE SMOOTH",
"172 6 OFFCURVE",
"176 10 OFFCURVE",
"180 14 CURVE",
"703 716 LINE",
"639 716 LINE SMOOTH",
"631 716 OFFCURVE",
"625 715 OFFCURVE",
"620 712 CURVE SMOOTH",
"615 709 OFFCURVE",
"610 705 OFFCURVE",
"606 699 CURVE"
);
},
{
closed = 1;
nodes = (
"751 170 LINE",
"751 198 OFFCURVE",
"747 224 OFFCURVE",
"739 246 CURVE SMOOTH",
"731 268 OFFCURVE",
"720 287 OFFCURVE",
"706 303 CURVE SMOOTH",
"692 319 OFFCURVE",
"674 330 OFFCURVE",
"654 338 CURVE SMOOTH",
"634 346 OFFCURVE",
"614 350 OFFCURVE",
"592 350 CURVE SMOOTH",
"570 350 OFFCURVE",
"548 346 OFFCURVE",
"529 338 CURVE SMOOTH",
"510 330 OFFCURVE",
"492 319 OFFCURVE",
"478 303 CURVE SMOOTH",
"464 287 OFFCURVE",
"453 268 OFFCURVE",
"445 246 CURVE SMOOTH",
"437 224 OFFCURVE",
"433 198 OFFCURVE",
"433 170 CURVE SMOOTH",
"433 142 OFFCURVE",
"437 116 OFFCURVE",
"445 94 CURVE SMOOTH",
"453 72 OFFCURVE",
"464 54 OFFCURVE",
"478 39 CURVE SMOOTH",
"492 24 OFFCURVE",
"509 12 OFFCURVE",
"528 4 CURVE SMOOTH",
"547 -4 OFFCURVE",
"569 -8 OFFCURVE",
"591 -8 CURVE SMOOTH",
"612 -8 OFFCURVE",
"632 -4 OFFCURVE",
"651 4 CURVE SMOOTH",
"670 12 OFFCURVE",
"688 24 OFFCURVE",
"702 39 CURVE SMOOTH",
"716 54 OFFCURVE",
"728 72 OFFCURVE",
"736 94 CURVE SMOOTH",
"744 116 OFFCURVE",
"749 142 OFFCURVE",
"749 170 CURVE"
);
},
{
closed = 1;
nodes = (
"680 170 LINE",
"680 148 OFFCURVE",
"677 129 OFFCURVE",
"673 114 CURVE SMOOTH",
"669 99 OFFCURVE",
"662 88 OFFCURVE",
"654 78 CURVE SMOOTH",
"646 68 OFFCURVE",
"637 61 OFFCURVE",
"626 57 CURVE SMOOTH",
"615 53 OFFCURVE",
"602 51 OFFCURVE",
"590 51 CURVE SMOOTH",
"578 51 OFFCURVE",
"567 53 OFFCURVE",
"556 57 CURVE SMOOTH",
"545 61 OFFCURVE",
"535 68 OFFCURVE",
"527 78 CURVE SMOOTH",
"519 88 OFFCURVE",
"512 99 OFFCURVE",
"508 114 CURVE SMOOTH",
"504 129 OFFCURVE",
"501 147 OFFCURVE",
"501 169 CURVE SMOOTH",
"501 191 OFFCURVE",
"504 209 OFFCURVE",
"508 225 CURVE SMOOTH",
"512 241 OFFCURVE",
"518 252 OFFCURVE",
"526 262 CURVE SMOOTH",
"534 272 OFFCURVE",
"543 280 OFFCURVE",
"554 284 CURVE SMOOTH",
"565 288 OFFCURVE",
"578 290 OFFCURVE",
"590 290 CURVE SMOOTH",
"602 290 OFFCURVE",
"613 288 OFFCURVE",
"624 284 CURVE SMOOTH",
"635 280 OFFCURVE",
"645 272 OFFCURVE",
"653 262 CURVE SMOOTH",
"661 252 OFFCURVE",
"668 241 OFFCURVE",
"672 225 CURVE SMOOTH",
"676 209 OFFCURVE",
"679 190 OFFCURVE",
"679 168 CURVE"
);
}
);
width = 791;
},
{
layerId = "3F211455-7DB7-4737-9D97-BF0B219628E9";
paths = (
{
closed = 1;
nodes = (
"345 641 OFFCURVE",
"291 716 OFFCURVE",
"197 716 CURVE SMOOTH",
"104 716 OFFCURVE",
"48 644 OFFCURVE",
"48 538 CURVE SMOOTH",
"48 434 OFFCURVE",
"102 361 OFFCURVE",
"197 361 CURVE SMOOTH",
"288 361 OFFCURVE",
"345 437 OFFCURVE",
"345 538 CURVE SMOOTH"
);
},
{
closed = 1;
nodes = (
"307 456 OFFCURVE",
"275 393 OFFCURVE",
"197 393 CURVE SMOOTH",
"123 393 OFFCURVE",
"87 450 OFFCURVE",
"87 538 CURVE SMOOTH",
"87 620 OFFCURVE",
"119 683 OFFCURVE",
"197 683 CURVE SMOOTH",
"270 683 OFFCURVE",
"307 627 OFFCURVE",
"307 538 CURVE SMOOTH"
);
},
{
closed = 1;
nodes = (
"107 0 LINE",
"141 0 LINE SMOOTH",
"148 0 OFFCURVE",
"154 3 OFFCURVE",
"158 9 CURVE",
"666 708 LINE",
"633 708 LINE SMOOTH",
"625 708 OFFCURVE",
"618 704 OFFCURVE",
"614 698 CURVE"
);
},
{
closed = 1;
nodes = (
"727 272 OFFCURVE",
"674 346 OFFCURVE",
"579 346 CURVE SMOOTH",
"482 346 OFFCURVE",
"430 270 OFFCURVE",
"430 168 CURVE SMOOTH",
"430 67 OFFCURVE",
"483 -8 OFFCURVE",
"579 -8 CURVE SMOOTH",
"672 -8 OFFCURVE",
"727 65 OFFCURVE",
"727 168 CURVE SMOOTH"
);
},
{
closed = 1;
nodes = (
"689 87 OFFCURVE",
"657 24 OFFCURVE",
"579 24 CURVE SMOOTH",
"506 24 OFFCURVE",
"468 82 OFFCURVE",
"468 168 CURVE SMOOTH",
"468 251 OFFCURVE",
"503 314 OFFCURVE",
"579 314 CURVE SMOOTH",
"652 314 OFFCURVE",
"689 257 OFFCURVE",
"689 168 CURVE SMOOTH"
);
}
);
width = 775;
},
{
layerId = "394C4E3B-EB1E-48D6-87F8-186C851DDDB0";
paths = (
{
closed = 1;
nodes = (
"364 576 OFFCURVE",
"359 601 OFFCURVE",
"351 624 CURVE SMOOTH",
"343 647 OFFCURVE",
"331 666 OFFCURVE",
"316 682 CURVE SMOOTH",
"301 698 OFFCURVE",
"283 710 OFFCURVE",
"263 718 CURVE SMOOTH",
"243 726 OFFCURVE",
"220 730 OFFCURVE",
"196 730 CURVE SMOOTH",
"172 730 OFFCURVE",
"150 726 OFFCURVE",
"130 718 CURVE SMOOTH",
"110 710 OFFCURVE",
"92 698 OFFCURVE",
"77 682 CURVE SMOOTH",
"62 666 OFFCURVE",
"50 647 OFFCURVE",
"42 624 CURVE SMOOTH",
"34 601 OFFCURVE",
"30 576 OFFCURVE",
"30 548 CURVE SMOOTH",
"30 521 OFFCURVE",
"34 496 OFFCURVE",
"42 474 CURVE SMOOTH",
"50 452 OFFCURVE",
"62 434 OFFCURVE",
"77 418 CURVE SMOOTH",
"92 402 OFFCURVE",
"110 390 OFFCURVE",
"130 382 CURVE SMOOTH",
"150 374 OFFCURVE",
"172 370 OFFCURVE",
"196 370 CURVE SMOOTH",
"218 370 OFFCURVE",
"240 374 OFFCURVE",
"260 382 CURVE SMOOTH",
"280 390 OFFCURVE",
"298 402 OFFCURVE",
"313 418 CURVE SMOOTH",
"328 434 OFFCURVE",
"341 452 OFFCURVE",
"350 474 CURVE SMOOTH",
"359 496 OFFCURVE",
"364 521 OFFCURVE",
"364 548 CURVE SMOOTH"
);
},
{
closed = 1;
nodes = (
"268 529 OFFCURVE",
"267 513 OFFCURVE",
"263 501 CURVE SMOOTH",
"259 489 OFFCURVE",
"253 479 OFFCURVE",
"247 471 CURVE SMOOTH",
"241 463 OFFCURVE",
"233 457 OFFCURVE",
"224 454 CURVE SMOOTH",
"215 451 OFFCURVE",
"206 450 OFFCURVE",
"196 450 CURVE SMOOTH",
"186 450 OFFCURVE",
"177 451 OFFCURVE",
"168 454 CURVE SMOOTH",
"159 457 OFFCURVE",
"152 463 OFFCURVE",
"146 471 CURVE SMOOTH",
"140 479 OFFCURVE",
"135 489 OFFCURVE",
"131 501 CURVE SMOOTH",
"127 513 OFFCURVE",
"126 529 OFFCURVE",
"126 548 CURVE SMOOTH",
"126 567 OFFCURVE",
"127 583 OFFCURVE",
"131 596 CURVE",
"134 609 OFFCURVE",
"140 620 OFFCURVE",
"146 628 CURVE SMOOTH",
"152 636 OFFCURVE",
"159 641 OFFCURVE",
"168 645 CURVE SMOOTH",
"177 649 OFFCURVE",
"186 650 OFFCURVE",
"196 650 CURVE SMOOTH",
"206 650 OFFCURVE",
"215 649 OFFCURVE",
"224 645 CURVE SMOOTH",
"233 641 OFFCURVE",
"241 636 OFFCURVE",
"247 628 CURVE SMOOTH",
"253 620 OFFCURVE",
"258 609 OFFCURVE",
"262 596 CURVE SMOOTH",
"266 583 OFFCURVE",
"268 567 OFFCURVE",
"268 548 CURVE SMOOTH"
);
},
{
closed = 1;
nodes = (
"67 0 LINE",
"159 0 LINE SMOOTH",
"168 0 OFFCURVE",
"175 1 OFFCURVE",
"181 5 CURVE SMOOTH",
"187 9 OFFCURVE",
"192 13 OFFCURVE",
"196 18 CURVE SMOOTH",
"734 723 LINE",
"644 723 LINE SMOOTH",
"633 723 OFFCURVE",
"625 721 OFFCURVE",
"619 717 CURVE SMOOTH",
"613 713 OFFCURVE",
"608 709 OFFCURVE",
"604 704 CURVE SMOOTH"
);
},
{
closed = 1;
nodes = (
"772 198 OFFCURVE",
"767 223 OFFCURVE",
"759 246 CURVE SMOOTH",
"751 269 OFFCURVE",
"739 288 OFFCURVE",
"724 304 CURVE SMOOTH",
"709 320 OFFCURVE",
"691 332 OFFCURVE",
"671 340 CURVE SMOOTH",
"651 348 OFFCURVE",
"628 352 OFFCURVE",
"604 352 CURVE SMOOTH",
"580 352 OFFCURVE",
"558 348 OFFCURVE",
"538 340 CURVE SMOOTH",
"518 332 OFFCURVE",
"500 320 OFFCURVE",
"485 304 CURVE SMOOTH",
"470 288 OFFCURVE",
"458 269 OFFCURVE",
"450 246 CURVE SMOOTH",
"442 223 OFFCURVE",
"437 198 OFFCURVE",
"437 170 CURVE SMOOTH",
"437 143 OFFCURVE",
"442 118 OFFCURVE",
"450 96 CURVE SMOOTH",
"458 74 OFFCURVE",
"470 56 OFFCURVE",
"485 40 CURVE SMOOTH",
"500 24 OFFCURVE",
"518 12 OFFCURVE",
"538 4 CURVE SMOOTH",
"558 -4 OFFCURVE",
"580 -9 OFFCURVE",
"604 -9 CURVE SMOOTH",
"626 -9 OFFCURVE",
"648 -4 OFFCURVE",
"668 4 CURVE SMOOTH",
"688 12 OFFCURVE",
"706 24 OFFCURVE",
"721 40 CURVE SMOOTH",
"736 56 OFFCURVE",
"749 74 OFFCURVE",
"758 96 CURVE SMOOTH",
"767 118 OFFCURVE",
"772 143 OFFCURVE",
"772 170 CURVE SMOOTH"
);
},
{
closed = 1;
nodes = (
"676 151 OFFCURVE",
"675 136 OFFCURVE",
"671 123 CURVE SMOOTH",
"667 110 OFFCURVE",
"661 101 OFFCURVE",
"655 93 CURVE SMOOTH",
"649 85 OFFCURVE",
"641 79 OFFCURVE",
"632 76 CURVE SMOOTH",
"623 73 OFFCURVE",
"614 71 OFFCURVE",
"604 71 CURVE SMOOTH",
"594 71 OFFCURVE",
"585 73 OFFCURVE",
"576 76 CURVE SMOOTH",
"567 79 OFFCURVE",
"560 85 OFFCURVE",
"554 93 CURVE SMOOTH",
"548 101 OFFCURVE",
"543 110 OFFCURVE",
"539 123 CURVE SMOOTH",
"535 136 OFFCURVE",
"534 151 OFFCURVE",
"534 170 CURVE SMOOTH",
"534 189 OFFCURVE",
"535 206 OFFCURVE",
"539 219 CURVE SMOOTH",
"543 232 OFFCURVE",
"548 242 OFFCURVE",
"554 250 CURVE SMOOTH",
"560 258 OFFCURVE",
"567 263 OFFCURVE",
"576 267 CURVE SMOOTH",
"585 271 OFFCURVE",
"594 273 OFFCURVE",
"604 273 CURVE SMOOTH",
"614 273 OFFCURVE",
"623 271 OFFCURVE",
"632 267 CURVE SMOOTH",
"641 263 OFFCURVE",
"649 258 OFFCURVE",
"655 250 CURVE SMOOTH",
"661 242 OFFCURVE",
"667 232 OFFCURVE",
"671 219 CURVE SMOOTH",
"675 206 OFFCURVE",
"676 189 OFFCURVE",
"676 170 CURVE SMOOTH"
);
}
);
width = 802;
}
);
note = percent;
unicode = 0025;
},
{
glyphname = ampersand;
layers = (
{
layerId = "C81CB9C3-2214-4415-8D0B-901773012C9D";
paths = (
{
closed = 1;
nodes = (
"324 724 LINE",
"294 724 OFFCURVE",
"268 720 OFFCURVE",
"244 711 CURVE SMOOTH",
"220 702 OFFCURVE",
"199 690 OFFCURVE",
"183 674 CURVE SMOOTH",
"167 658 OFFCURVE",
"153 640 OFFCURVE",
"144 618 CURVE SMOOTH",
"135 596 OFFCURVE",
"131 572 OFFCURVE",
"131 548 CURVE SMOOTH",
"131 522 OFFCURVE",
"136 497 OFFCURVE",
"146 473 CURVE SMOOTH",
"156 449 OFFCURVE",
"170 424 OFFCURVE",
"190 398 CURVE",
"168 388 OFFCURVE",
"147 376 OFFCURVE",
"128 362 CURVE SMOOTH",
"109 348 OFFCURVE",
"92 332 OFFCURVE",
"78 314 CURVE SMOOTH",
"64 296 OFFCURVE",
"54 277 OFFCURVE",
"46 256 CURVE SMOOTH",
"38 235 OFFCURVE",
"34 214 OFFCURVE",
"34 190 CURVE SMOOTH",
"34 159 OFFCURVE",
"40 130 OFFCURVE",
"52 106 CURVE SMOOTH",
"64 82 OFFCURVE",
"80 61 OFFCURVE",
"100 44 CURVE SMOOTH",
"120 27 OFFCURVE",
"143 14 OFFCURVE",
"169 5 CURVE SMOOTH",
"195 -4 OFFCURVE",
"221 -8 OFFCURVE",
"247 -8 CURVE SMOOTH",
"296 -8 OFFCURVE",
"341 0 OFFCURVE",
"382 18 CURVE SMOOTH",
"423 36 OFFCURVE",
"458 60 OFFCURVE",
"490 90 CURVE",
"562 18 LINE SMOOTH",
"570 10 OFFCURVE",
"576 4 OFFCURVE",
"582 2 CURVE SMOOTH",
"588 0 OFFCURVE",
"596 -1 OFFCURVE",
"606 -1 CURVE SMOOTH",
"692 -1 LINE",
"542 151 LINE",
"564 183 OFFCURVE",
"580 218 OFFCURVE",
"592 255 CURVE SMOOTH",
"604 292 OFFCURVE",
"610 330 OFFCURVE",
"610 368 CURVE",
"556 368 LINE SMOOTH",
"550 368 OFFCURVE",
"546 366 OFFCURVE",
"542 362 CURVE SMOOTH",
"538 358 OFFCURVE",
"536 354 OFFCURVE",
"536 348 CURVE",
"534 324 OFFCURVE",
"528 298 OFFCURVE",
"520 274 CURVE SMOOTH",
"512 250 OFFCURVE",
"502 226 OFFCURVE",
"490 204 CURVE",
"284 413 LINE SMOOTH",
"272 425 OFFCURVE",
"261 437 OFFCURVE",
"252 449 CURVE SMOOTH",
"243 461 OFFCURVE",
"236 471 OFFCURVE",
"230 482 CURVE SMOOTH",
"224 493 OFFCURVE",
"220 504 OFFCURVE",
"217 514 CURVE SMOOTH",
"214 524 OFFCURVE",
"212 536 OFFCURVE",
"212 548 CURVE SMOOTH",
"212 563 OFFCURVE",
"215 577 OFFCURVE",
"220 590 CURVE SMOOTH",
"225 603 OFFCURVE",
"232 613 OFFCURVE",
"242 623 CURVE SMOOTH",
"252 633 OFFCURVE",
"262 640 OFFCURVE",
"276 646 CURVE SMOOTH",
"290 652 OFFCURVE",
"306 654 OFFCURVE",
"322 654 CURVE SMOOTH",
"338 654 OFFCURVE",
"350 651 OFFCURVE",
"362 646 CURVE SMOOTH",
"374 641 OFFCURVE",
"384 635 OFFCURVE",
"392 627 CURVE SMOOTH",
"400 619 OFFCURVE",
"406 612 OFFCURVE",
"411 602 CURVE SMOOTH",
"416 592 OFFCURVE",
"420 582 OFFCURVE",
"422 574 CURVE",
"424 568 OFFCURVE",
"426 564 OFFCURVE",
"430 562 CURVE SMOOTH",
"434 560 OFFCURVE",
"438 558 OFFCURVE",
"442 558 CURVE SMOOTH",
"444 558 OFFCURVE",
"445 559 OFFCURVE",
"447 559 CURVE",
"502 570 LINE",
"500 590 OFFCURVE",
"495 610 OFFCURVE",
"486 628 CURVE SMOOTH",
"477 646 OFFCURVE",
"465 662 OFFCURVE",
"449 676 CURVE SMOOTH",
"433 690 OFFCURVE",
"414 702 OFFCURVE",
"392 710 CURVE SMOOTH",
"370 718 OFFCURVE",
"346 722 OFFCURVE",
"320 722 CURVE"
);
},
{
closed = 1;
nodes = (
"122 196 LINE",
"122 228 OFFCURVE",
"131 257 OFFCURVE",
"149 283 CURVE SMOOTH",
"167 309 OFFCURVE",
"193 332 OFFCURVE",
"229 351 CURVE",
"440 138 LINE",
"418 116 OFFCURVE",
"392 98 OFFCURVE",
"362 84 CURVE SMOOTH",
"332 70 OFFCURVE",
"300 63 OFFCURVE",
"262 63 CURVE SMOOTH",
"244 63 OFFCURVE",
"227 66 OFFCURVE",
"211 72 CURVE SMOOTH",
"195 78 OFFCURVE",
"179 86 OFFCURVE",
"166 98 CURVE SMOOTH",
"153 110 OFFCURVE",
"143 124 OFFCURVE",
"135 140 CURVE SMOOTH",
"127 156 OFFCURVE",
"123 175 OFFCURVE",
"123 197 CURVE"
);
}
);
width = 705;
},
{
layerId = "3F211455-7DB7-4737-9D97-BF0B219628E9";
paths = (
{
closed = 1;
nodes = (
"219 716 OFFCURVE",
"139 654 OFFCURVE",
"139 552 CURVE SMOOTH",
"139 493 OFFCURVE",
"162 447 OFFCURVE",
"209 394 CURVE",
"119 360 OFFCURVE",
"41 280 OFFCURVE",
"41 181 CURVE SMOOTH",
"41 68 OFFCURVE",
"133 -8 OFFCURVE",
"244 -8 CURVE SMOOTH",
"341 -8 OFFCURVE",
"430 37 OFFCURVE",
"495 112 CURVE",
"597 11 LINE SMOOTH",
"602 6 OFFCURVE",
"606 3 OFFCURVE",
"610 2 CURVE SMOOTH",
"614 1 OFFCURVE",
"619 0 OFFCURVE",
"625 0 CURVE SMOOTH",
"669 0 LINE",
"521 146 LINE",
"558 199 OFFCURVE",
"584 274 OFFCURVE",
"586 338 CURVE",
"559 338 LINE SMOOTH",
"550 338 OFFCURVE",
"547 332 OFFCURVE",
"545 324 CURVE",
"538 270 OFFCURVE",
"520 220 OFFCURVE",
"492 174 CURVE",
"269 394 LINE SMOOTH",
"220 443 OFFCURVE",
"183 489 OFFCURVE",
"183 553 CURVE SMOOTH",
"183 625 OFFCURVE",
"236 678 OFFCURVE",
"317 678 CURVE SMOOTH",
"377 678 OFFCURVE",
"427 635 OFFCURVE",
"439 580 CURVE SMOOTH",
"440 577 OFFCURVE",
"444 568 OFFCURVE",
"456 570 CURVE",
"482 574 LINE",
"478 657 OFFCURVE",
"399 716 OFFCURVE",
"317 716 CURVE SMOOTH"
);
},
{
closed = 1;
nodes = (
"89 266 OFFCURVE",
"150 336 OFFCURVE",
"232 369 CURVE",
"467 138 LINE",
"412 71 OFFCURVE",
"342 31 OFFCURVE",
"251 31 CURVE SMOOTH",
"165 31 OFFCURVE",
"89 91 OFFCURVE",
"89 184 CURVE SMOOTH"
);
}
);
width = 691;
},
{
layerId = "394C4E3B-EB1E-48D6-87F8-186C851DDDB0";
paths = (
{
closed = 1;
nodes = (
"287 731 OFFCURVE",
"258 726 OFFCURVE",
"233 716 CURVE SMOOTH",
"208 706 OFFCURVE",
"186 693 OFFCURVE",
"168 676 CURVE SMOOTH",
"150 659 OFFCURVE",
"137 640 OFFCURVE",
"128 618 CURVE SMOOTH",
"119 596 OFFCURVE",
"115 571 OFFCURVE",
"115 546 CURVE SMOOTH",
"115 522 OFFCURVE",
"119 499 OFFCURVE",
"127 475 CURVE SMOOTH",
"135 451 OFFCURVE",
"148 427 OFFCURVE",
"166 402 CURVE",
"145 392 OFFCURVE",
"125 380 OFFCURVE",
"107 366 CURVE SMOOTH",
"89 352 OFFCURVE",
"73 336 OFFCURVE",
"60 319 CURVE SMOOTH",
"47 302 OFFCURVE",
"37 283 OFFCURVE",
"30 263 CURVE SMOOTH",
"23 243 OFFCURVE",
"19 221 OFFCURVE",
"19 199 CURVE SMOOTH",
"19 167 OFFCURVE",
"25 139 OFFCURVE",
"38 113 CURVE SMOOTH",
"51 87 OFFCURVE",
"68 66 OFFCURVE",
"89 48 CURVE SMOOTH",
"110 30 OFFCURVE",
"133 16 OFFCURVE",
"160 6 CURVE SMOOTH",
"187 -4 OFFCURVE",
"214 -8 OFFCURVE",
"242 -8 CURVE SMOOTH",
"288 -8 OFFCURVE",
"331 -1 OFFCURVE",
"370 14 CURVE SMOOTH",
"409 29 OFFCURVE",
"444 49 OFFCURVE",
"476 75 CURVE",
"526 24 LINE",
"530 19 OFFCURVE",
"535 15 OFFCURVE",
"539 12 CURVE SMOOTH",
"543 9 OFFCURVE",
"548 7 OFFCURVE",
"552 5 CURVE SMOOTH",
"556 3 OFFCURVE",
"560 2 OFFCURVE",
"565 1 CURVE SMOOTH",
"570 0 OFFCURVE",
"576 0 OFFCURVE",
"582 0 CURVE SMOOTH",
"703 0 LINE",
"552 157 LINE",
"575 191 OFFCURVE",
"592 228 OFFCURVE",
"604 268 CURVE SMOOTH",
"616 308 OFFCURVE",
"624 350 OFFCURVE",
"624 394 CURVE",
"546 394 LINE SMOOTH",
"538 394 OFFCURVE",
"532 391 OFFCURVE",
"528 386 CURVE SMOOTH",
"524 381 OFFCURVE",
"521 376 OFFCURVE",
"520 368 CURVE",
"518 344 OFFCURVE",
"515 320 OFFCURVE",
"508 297 CURVE SMOOTH",
"501 274 OFFCURVE",
"492 252 OFFCURVE",
"481 231 CURVE",
"289 430 LINE SMOOTH",
"278 441 OFFCURVE",
"269 452 OFFCURVE",
"261 462 CURVE SMOOTH",
"253 472 OFFCURVE",
"248 482 OFFCURVE",
"243 491 CURVE SMOOTH",
"238 500 OFFCURVE",
"235 510 OFFCURVE",
"233 519 CURVE SMOOTH",
"231 528 OFFCURVE",
"230 538 OFFCURVE",
"230 548 CURVE SMOOTH",
"230 560 OFFCURVE",
"232 571 OFFCURVE",
"236 582 CURVE SMOOTH",
"240 593 OFFCURVE",
"245 602 OFFCURVE",
"253 610 CURVE SMOOTH",
"261 618 OFFCURVE",
"270 625 OFFCURVE",
"281 630 CURVE SMOOTH",
"292 635 OFFCURVE",
"305 637 OFFCURVE",
"319 637 CURVE SMOOTH",
"331 637 OFFCURVE",
"341 636 OFFCURVE",
"350 632 CURVE SMOOTH",
"359 628 OFFCURVE",
"366 624 OFFCURVE",
"373 618 CURVE SMOOTH",
"380 612 OFFCURVE",
"385 605 OFFCURVE",
"390 597 CURVE SMOOTH",
"395 589 OFFCURVE",
"399 581 OFFCURVE",
"402 572 CURVE",
"405 565 OFFCURVE",
"407 561 OFFCURVE",
"412 558 CURVE",
"416 555 OFFCURVE",
"422 553 OFFCURVE",
"428 553 CURVE SMOOTH",
"431 553 LINE SMOOTH",
"432 553 OFFCURVE",
"433 554 OFFCURVE",
"434 554 CURVE",
"512 570 LINE",
"510 591 OFFCURVE",
"506 611 OFFCURVE",
"496 630 CURVE SMOOTH",
"486 649 OFFCURVE",
"473 667 OFFCURVE",
"457 682 CURVE SMOOTH",
"441 697 OFFCURVE",
"420 709 OFFCURVE",
"397 718 CURVE SMOOTH",
"374 727 OFFCURVE",
"348 731 OFFCURVE",
"319 731 CURVE SMOOTH"
);
},
{
closed = 1;
nodes = (
"145 234 OFFCURVE",
"151 257 OFFCURVE",
"163 279 CURVE SMOOTH",
"175 301 OFFCURVE",
"194 321 OFFCURVE",
"221 338 CURVE",
"411 143 LINE",
"391 127 OFFCURVE",
"369 113 OFFCURVE",
"345 104 CURVE SMOOTH",
"321 95 OFFCURVE",
"294 91 OFFCURVE",
"265 91 CURVE SMOOTH",
"249 91 OFFCURVE",
"232 93 OFFCURVE",
"218 99 CURVE SMOOTH",
"204 105 OFFCURVE",
"191 112 OFFCURVE",
"180 122 CURVE SMOOTH",
"169 132 OFFCURVE",
"160 145 OFFCURVE",
"154 160 CURVE SMOOTH",
"148 175 OFFCURVE",
"145 191 OFFCURVE",
"145 209 CURVE SMOOTH"
);
}
);
width = 723;
}
);
note = ampersand;
unicode = 0026;
},
{
glyphname = quotesingle;
layers = (
{
layerId = "C81CB9C3-2214-4415-8D0B-901773012C9D";
paths = (
{
closed = 1;
nodes = (
"146 716 LINE",
"69 716 LINE",
"69 572 LINE",
"77 494 LINE",
"79 484 OFFCURVE",
"82 475 OFFCURVE",
"87 469 CURVE SMOOTH",
"92 463 OFFCURVE",
"99 460 OFFCURVE",
"107 460 CURVE SMOOTH",
"117 460 OFFCURVE",
"125 463 OFFCURVE",
"129 469 CURVE SMOOTH",
"133 475 OFFCURVE",
"137 484 OFFCURVE",
"138 494 CURVE SMOOTH",
"146 571 LINE"
);
}
);
width = 215;
},
{
layerId = "3F211455-7DB7-4737-9D97-BF0B219628E9";
paths = (
{
closed = 1;
nodes = (
"112 708 LINE",
"70 708 LINE",
"70 562 LINE",
"75 485 LINE",
"76 479 OFFCURVE",
"78 467 OFFCURVE",
"91 467 CURVE SMOOTH",
"99 467 OFFCURVE",
"106 470 OFFCURVE",
"108 485 CURVE",
"112 562 LINE"
);
}
);
width = 182;
},
{
layerId = "394C4E3B-EB1E-48D6-87F8-186C851DDDB0";
paths = (
{
closed = 1;
nodes = (
"161 723 LINE",
"54 723 LINE",
"54 579 LINE",
"64 501 LINE SMOOTH",
"66 486 OFFCURVE",
"71 475 OFFCURVE",
"78 467 CURVE SMOOTH",
"85 459 OFFCURVE",
"94 456 OFFCURVE",
"106 456 CURVE SMOOTH",
"120 456 OFFCURVE",
"131 459 OFFCURVE",
"137 467 CURVE SMOOTH",
"143 475 OFFCURVE",
"148 486 OFFCURVE",
"150 501 CURVE SMOOTH",
"161 579 LINE"
);
}
);
width = 215;
}
);
leftKerningGroup = ordfeminine;
note = quotesingle;
rightKerningGroup = ordfeminine;
unicode = 0027;
},
{
glyphname = parenleft;
layers = (
{
layerId = "C81CB9C3-2214-4415-8D0B-901773012C9D";
paths = (
{
closed = 1;
nodes = (
"123 314 LINE",
"123 386 OFFCURVE",
"132 455 OFFCURVE",
"150 523 CURVE SMOOTH",
"168 591 OFFCURVE",
"195 655 OFFCURVE",
"230 715 CURVE",
"234 721 OFFCURVE",
"234 727 OFFCURVE",
"234 732 CURVE SMOOTH",
"234 736 OFFCURVE",
"233 741 OFFCURVE",
"231 744 CURVE SMOOTH",
"229 747 OFFCURVE",
"226 750 OFFCURVE",
"222 752 CURVE",
"182 776 LINE",
"157 738 OFFCURVE",
"136 700 OFFCURVE",
"118 662 CURVE SMOOTH",
"100 624 OFFCURVE",
"87 586 OFFCURVE",
"76 548 CURVE SMOOTH",
"65 510 OFFCURVE",
"57 472 OFFCURVE",
"52 434 CURVE SMOOTH",
"47 396 OFFCURVE",
"44 355 OFFCURVE",
"44 315 CURVE SMOOTH",
"44 275 OFFCURVE",
"47 234 OFFCURVE",
"52 196 CURVE SMOOTH",
"57 158 OFFCURVE",
"65 120 OFFCURVE",
"76 82 CURVE SMOOTH",
"87 44 OFFCURVE",
"100 6 OFFCURVE",
"118 -32 CURVE SMOOTH",
"136 -70 OFFCURVE",
"157 -108 OFFCURVE",
"182 -146 CURVE",
"222 -122 LINE",
"226 -120 OFFCURVE",
"228 -117 OFFCURVE",
"230 -114 CURVE SMOOTH",
"232 -111 OFFCURVE",
"234 -106 OFFCURVE",
"234 -102 CURVE SMOOTH",
"234 -100 OFFCURVE",
"233 -97 OFFCURVE",
"233 -95 CURVE SMOOTH",
"233 -93 OFFCURVE",
"231 -90 OFFCURVE",
"229 -86 CURVE",
"195 -25 OFFCURVE",
"168 39 OFFCURVE",
"150 106 CURVE SMOOTH",
"132 173 OFFCURVE",
"122 242 OFFCURVE",
"122 314 CURVE"
);
}
);
width = 267;
},
{
layerId = "3F211455-7DB7-4737-9D97-BF0B219628E9";
paths = (
{
closed = 1;
nodes = (
"92 463 OFFCURVE",
"133 603 OFFCURVE",
"212 729 CURVE",
"216 737 OFFCURVE",
"216 744 OFFCURVE",
"209 750 CURVE",
"188 763 LINE",
"97 625 OFFCURVE",
"50 484 OFFCURVE",
"50 315 CURVE SMOOTH",
"50 153 OFFCURVE",
"97 3 OFFCURVE",
"188 -133 CURVE",
"209 -120 LINE",
"217 -115 OFFCURVE",
"217 -107 OFFCURVE",
"212 -98 CURVE",
"134 27 OFFCURVE",
"92 163 OFFCURVE",
"92 315 CURVE SMOOTH"
);
}
);
width = 250;
},
{
layerId = "394C4E3B-EB1E-48D6-87F8-186C851DDDB0";
paths = (
{
closed = 1;
nodes = (
"132 383 OFFCURVE",
"140 450 OFFCURVE",
"157 516 CURVE SMOOTH",
"174 582 OFFCURVE",
"197 646 OFFCURVE",
"228 704 CURVE",
"232 713 OFFCURVE",
"235 720 OFFCURVE",
"235 726 CURVE SMOOTH",
"235 732 OFFCURVE",
"232 738 OFFCURVE",
"229 742 CURVE SMOOTH",
"226 746 OFFCURVE",
"222 749 OFFCURVE",
"217 752 CURVE SMOOTH",
"163 785 LINE",
"138 747 OFFCURVE",
"116 709 OFFCURVE",
"99 671 CURVE SMOOTH",
"82 633 OFFCURVE",
"68 594 OFFCURVE",
"57 555 CURVE SMOOTH",
"46 516 OFFCURVE",
"38 476 OFFCURVE",
"33 436 CURVE SMOOTH",
"28 396 OFFCURVE",
"25 356 OFFCURVE",
"25 314 CURVE SMOOTH",
"25 272 OFFCURVE",
"28 231 OFFCURVE",
"33 191 CURVE SMOOTH",
"38 151 OFFCURVE",
"46 111 OFFCURVE",
"57 72 CURVE SMOOTH",
"68 33 OFFCURVE",
"82 -6 OFFCURVE",
"99 -44 CURVE SMOOTH",
"116 -82 OFFCURVE",
"138 -120 OFFCURVE",
"163 -158 CURVE",
"217 -124 LINE SMOOTH",
"222 -121 OFFCURVE",
"226 -118 OFFCURVE",
"229 -114 CURVE SMOOTH",
"232 -110 OFFCURVE",
"235 -105 OFFCURVE",
"235 -98 CURVE SMOOTH",
"235 -95 OFFCURVE",
"234 -92 OFFCURVE",
"233 -88 CURVE SMOOTH",
"232 -84 OFFCURVE",
"231 -80 OFFCURVE",
"229 -76 CURVE SMOOTH",
"198 -18 OFFCURVE",
"174 45 OFFCURVE",
"157 111 CURVE SMOOTH",
"140 177 OFFCURVE",
"132 245 OFFCURVE",
"132 314 CURVE SMOOTH"
);
}
);
width = 251;
}
);
note = parenleft;
unicode = 0028;
},
{
glyphname = parenright;
layers = (
{
layerId = "C81CB9C3-2214-4415-8D0B-901773012C9D";
paths = (
{
closed = 1;
nodes = (
"144 242 OFFCURVE",
"135 173 OFFCURVE",
"117 106 CURVE SMOOTH",
"99 39 OFFCURVE",
"72 -25 OFFCURVE",
"38 -86 CURVE",
"36 -90 OFFCURVE",
"34 -92 OFFCURVE",
"34 -94 CURVE SMOOTH",
"34 -96 OFFCURVE",
"32 -100 OFFCURVE",
"32 -102 CURVE SMOOTH",
"32 -106 OFFCURVE",
"34 -111 OFFCURVE",
"36 -114 CURVE SMOOTH",
"38 -117 OFFCURVE",
"41 -120 OFFCURVE",
"45 -122 CURVE",
"84 -146 LINE",
"109 -108 OFFCURVE",
"130 -70 OFFCURVE",
"148 -32 CURVE SMOOTH",
"166 6 OFFCURVE",
"179 44 OFFCURVE",
"190 82 CURVE SMOOTH",
"201 120 OFFCURVE",
"209 158 OFFCURVE",
"214 196 CURVE SMOOTH",
"219 234 OFFCURVE",
"222 275 OFFCURVE",
"222 315 CURVE SMOOTH",
"222 355 OFFCURVE",
"219 396 OFFCURVE",
"214 434 CURVE SMOOTH",
"209 472 OFFCURVE",
"201 510 OFFCURVE",
"190 548 CURVE SMOOTH",
"179 586 OFFCURVE",
"166 623 OFFCURVE",
"148 661 CURVE SMOOTH",
"130 699 OFFCURVE",
"109 737 OFFCURVE",
"84 775 CURVE",
"44 750 LINE",
"40 748 OFFCURVE",
"38 745 OFFCURVE",
"36 742 CURVE SMOOTH",
"34 739 OFFCURVE",
"32 735 OFFCURVE",
"32 731 CURVE SMOOTH",
"32 726 OFFCURVE",
"33 720 OFFCURVE",
"37 714 CURVE",
"72 654 OFFCURVE",
"98 590 OFFCURVE",
"116 522 CURVE SMOOTH",
"134 454 OFFCURVE",
"144 386 OFFCURVE",
"144 314 CURVE SMOOTH"
);
}
);
width = 266;
},
{
layerId = "3F211455-7DB7-4737-9D97-BF0B219628E9";
paths = (
{
closed = 1;
nodes = (
"157 166 OFFCURVE",
"116 29 OFFCURVE",
"37 -98 CURVE",
"34 -104 OFFCURVE",
"34 -114 OFFCURVE",
"41 -120 CURVE",
"61 -132 LINE",
"155 14 OFFCURVE",
"199 140 OFFCURVE",
"199 315 CURVE SMOOTH",
"199 485 OFFCURVE",
"155 617 OFFCURVE",
"61 763 CURVE",
"41 750 LINE",
"35 746 OFFCURVE",
"33 738 OFFCURVE",
"37 729 CURVE",
"116 602 OFFCURVE",
"157 463 OFFCURVE",
"157 315 CURVE SMOOTH"
);
}
);
width = 249;
},
{
layerId = "394C4E3B-EB1E-48D6-87F8-186C851DDDB0";
paths = (
{
closed = 1;
nodes = (
"118 245 OFFCURVE",
"110 177 OFFCURVE",
"93 111 CURVE SMOOTH",
"76 45 OFFCURVE",
"53 -18 OFFCURVE",
"22 -76 CURVE SMOOTH",
"20 -80 OFFCURVE",
"18 -84 OFFCURVE",
"17 -88 CURVE SMOOTH",
"16 -92 OFFCURVE",
"15 -95 OFFCURVE",
"15 -98 CURVE SMOOTH",
"15 -105 OFFCURVE",
"18 -110 OFFCURVE",
"21 -114 CURVE SMOOTH",
"24 -118 OFFCURVE",
"28 -121 OFFCURVE",
"33 -124 CURVE SMOOTH",
"87 -158 LINE",
"112 -120 OFFCURVE",
"134 -82 OFFCURVE",
"151 -44 CURVE SMOOTH",
"168 -6 OFFCURVE",
"182 33 OFFCURVE",
"193 72 CURVE SMOOTH",
"204 111 OFFCURVE",
"212 151 OFFCURVE",
"217 191 CURVE SMOOTH",
"222 231 OFFCURVE",
"225 272 OFFCURVE",
"225 314 CURVE SMOOTH",
"225 356 OFFCURVE",
"222 396 OFFCURVE",
"217 436 CURVE SMOOTH",
"212 476 OFFCURVE",
"204 516 OFFCURVE",
"193 555 CURVE SMOOTH",
"182 594 OFFCURVE",
"168 633 OFFCURVE",
"151 671 CURVE SMOOTH",
"134 709 OFFCURVE",
"112 747 OFFCURVE",
"87 785 CURVE",
"33 752 LINE SMOOTH",
"28 749 OFFCURVE",
"24 746 OFFCURVE",
"21 742 CURVE SMOOTH",
"18 738 OFFCURVE",
"15 732 OFFCURVE",
"15 726 CURVE SMOOTH",
"15 720 OFFCURVE",
"18 713 OFFCURVE",
"22 704 CURVE",
"53 646 OFFCURVE",
"76 582 OFFCURVE",
"93 516 CURVE SMOOTH",
"110 450 OFFCURVE",
"118 383 OFFCURVE",
"118 314 CURVE SMOOTH"
);
}
);
width = 250;
}
);
note = parenright;
unicode = 0029;
},
{
glyphname = asterisk;
layers = (
{
layerId = "C81CB9C3-2214-4415-8D0B-901773012C9D";
paths = (
{
closed = 1;
nodes = (
"192 432 LINE",
"236 432 LINE",
"236 530 LINE SMOOTH",
"236 543 OFFCURVE",
"234 555 OFFCURVE",
"228 566 CURVE",
"232 560 OFFCURVE",
"236 557 OFFCURVE",
"240 553 CURVE SMOOTH",
"244 549 OFFCURVE",
"250 546 OFFCURVE",
"256 542 CURVE",
"342 492 LINE",
"364 530 LINE",
"278 580 LINE",
"272 584 OFFCURVE",
"267 586 OFFCURVE",
"261 588 CURVE SMOOTH",
"255 590 OFFCURVE",
"250 592 OFFCURVE",
"244 592 CURVE",
"250 592 OFFCURVE",
"254 594 OFFCURVE",
"260 596 CURVE SMOOTH",
"266 598 OFFCURVE",
"271 600 OFFCURVE",
"277 604 CURVE",
"363 654 LINE",
"341 692 LINE",
"255 642 LINE",
"249 638 OFFCURVE",
"244 636 OFFCURVE",
"240 632 CURVE SMOOTH",
"236 628 OFFCURVE",
"232 624 OFFCURVE",
"228 619 CURVE",
"232 629 OFFCURVE",
"235 641 OFFCURVE",
"235 655 CURVE SMOOTH",
"235 754 LINE",
"191 754 LINE",
"191 654 LINE SMOOTH",
"191 648 OFFCURVE",
"191 642 OFFCURVE",
"192 636 CURVE SMOOTH",
"193 630 OFFCURVE",
"195 624 OFFCURVE",
"198 618 CURVE",
"190 628 OFFCURVE",
"182 637 OFFCURVE",
"170 643 CURVE",
"84 693 LINE",
"62 656 LINE",
"148 605 LINE",
"154 601 OFFCURVE",
"160 598 OFFCURVE",
"166 596 CURVE SMOOTH",
"172 594 OFFCURVE",
"178 592 OFFCURVE",
"184 592 CURVE",
"172 591 OFFCURVE",
"160 587 OFFCURVE",
"148 580 CURVE SMOOTH",
"62 530 LINE",
"84 492 LINE",
"170 542 LINE SMOOTH",
"181 548 OFFCURVE",
"190 556 OFFCURVE",
"196 564 CURVE",
"194 558 OFFCURVE",
"193 554 OFFCURVE",
"192 548 CURVE SMOOTH",
"191 542 OFFCURVE",
"190 536 OFFCURVE",
"190 530 CURVE SMOOTH"
);
}
);
width = 426;
},
{
layerId = "3F211455-7DB7-4737-9D97-BF0B219628E9";
paths = (
{
closed = 1;
nodes = (
"193 448 LINE",
"219 448 LINE",
"219 556 LINE SMOOTH",
"219 563 OFFCURVE",
"216 575 OFFCURVE",
"212 586 CURVE",
"215 581 OFFCURVE",
"228 570 OFFCURVE",
"236 565 CURVE SMOOTH",
"331 510 LINE",
"344 532 LINE",
"249 588 LINE SMOOTH",
"242 592 OFFCURVE",
"231 595 OFFCURVE",
"220 597 CURVE",
"235 601 OFFCURVE",
"238 602 OFFCURVE",
"249 608 CURVE SMOOTH",
"343 662 LINE",
"330 684 LINE",
"236 630 LINE SMOOTH",
"226 624 OFFCURVE",
"219 618 OFFCURVE",
"212 608 CURVE",
"215 615 OFFCURVE",
"219 632 OFFCURVE",
"219 640 CURVE SMOOTH",
"219 746 LINE",
"193 746 LINE",
"193 639 LINE SMOOTH",
"193 631 OFFCURVE",
"194 619 OFFCURVE",
"200 607 CURVE",
"195 613 OFFCURVE",
"184 625 OFFCURVE",
"175 630 CURVE SMOOTH",
"81 685 LINE",
"68 662 LINE",
"163 607 LINE SMOOTH",
"170 603 OFFCURVE",
"183 598 OFFCURVE",
"192 597 CURVE",
"188 596 OFFCURVE",
"170 591 OFFCURVE",
"163 587 CURVE SMOOTH",
"69 532 LINE",
"81 510 LINE",
"175 565 LINE SMOOTH",
"185 571 OFFCURVE",
"189 572 OFFCURVE",
"199 585 CURVE",
"195 576 OFFCURVE",
"193 566 OFFCURVE",
"193 555 CURVE SMOOTH"
);
}
);
width = 412;
},
{
layerId = "394C4E3B-EB1E-48D6-87F8-186C851DDDB0";
paths = (
{
closed = 1;
nodes = (
"174 418 LINE",
"232 418 LINE",
"232 510 LINE SMOOTH",
"232 524 OFFCURVE",
"230 537 OFFCURVE",
"226 548 CURVE",
"230 543 OFFCURVE",
"235 539 OFFCURVE",
"240 535 CURVE SMOOTH",
"245 531 OFFCURVE",
"250 528 OFFCURVE",
"256 524 CURVE",
"336 478 LINE",
"364 528 LINE",
"285 574 LINE SMOOTH",
"272 581 OFFCURVE",
"260 586 OFFCURVE",
"249 588 CURVE",
"255 589 OFFCURVE",
"261 591 OFFCURVE",
"267 593 CURVE SMOOTH",
"273 595 OFFCURVE",
"279 598 OFFCURVE",
"285 602 CURVE",
"365 648 LINE",
"335 698 LINE",
"256 652 LINE",
"250 648 OFFCURVE",
"245 645 OFFCURVE",
"240 641 CURVE SMOOTH",
"235 637 OFFCURVE",
"231 633 OFFCURVE",
"227 628 CURVE",
"229 634 OFFCURVE",
"230 640 OFFCURVE",
"231 646 CURVE SMOOTH",
"232 652 OFFCURVE",
"232 659 OFFCURVE",
"232 666 CURVE SMOOTH",
"232 758 LINE",
"174 758 LINE",
"174 666 LINE SMOOTH",
"174 659 OFFCURVE",
"174 652 OFFCURVE",
"175 646 CURVE SMOOTH",
"176 640 OFFCURVE",
"178 634 OFFCURVE",
"180 628 CURVE",
"176 633 OFFCURVE",
"171 637 OFFCURVE",
"166 641 CURVE SMOOTH",
"161 645 OFFCURVE",
"156 648 OFFCURVE",
"150 652 CURVE",
"70 699 LINE",
"42 649 LINE",
"121 602 LINE",
"127 598 OFFCURVE",
"133 596 OFFCURVE",
"139 593 CURVE SMOOTH",
"145 590 OFFCURVE",
"151 589 OFFCURVE",
"157 588 CURVE",
"151 587 OFFCURVE",
"145 585 OFFCURVE",
"139 583 CURVE SMOOTH",
"133 581 OFFCURVE",
"127 578 OFFCURVE",
"121 574 CURVE",
"42 528 LINE",
"71 478 LINE",
"150 524 LINE",
"156 528 OFFCURVE",
"161 531 OFFCURVE",
"166 535 CURVE SMOOTH",
"171 539 OFFCURVE",
"175 543 OFFCURVE",
"179 548 CURVE",
"177 542 OFFCURVE",
"176 536 OFFCURVE",
"175 530 CURVE SMOOTH",
"174 524 OFFCURVE",
"174 517 OFFCURVE",
"174 510 CURVE SMOOTH"
);
}
);
width = 407;
}
);
leftKerningGroup = quotedbl;
note = asterisk;
rightKerningGroup = quotedbl;
unicode = 002A;
},
{
glyphname = plus;
layers = (
{
layerId = "C81CB9C3-2214-4415-8D0B-901773012C9D";
paths = (
{
closed = 1;
nodes = (
"327 583 LINE",
"254 583 LINE",
"254 370 LINE",
"52 370 LINE",
"52 302 LINE",
"254 302 LINE",
"254 87 LINE",
"327 87 LINE",
"327 302 LINE",
"530 302 LINE",
"530 370 LINE",
"327 370 LINE"
);
}
);
width = 582;
},
{
layerId = "3F211455-7DB7-4737-9D97-BF0B219628E9";
paths = (
{
closed = 1;
nodes = (
"310 579 LINE",
"270 579 LINE",
"270 354 LINE",
"56 354 LINE",
"56 317 LINE",
"270 317 LINE",
"270 90 LINE",
"310 90 LINE",
"310 317 LINE",
"525 317 LINE",
"525 354 LINE",
"310 354 LINE"
);
}
);
width = 581;
},
{
layerId = "394C4E3B-EB1E-48D6-87F8-186C851DDDB0";
paths = (
{
closed = 1;
nodes = (
"338 586 LINE",
"238 586 LINE",
"238 382 LINE",
"44 382 LINE",
"44 290 LINE",
"238 290 LINE",
"238 84 LINE",
"338 84 LINE",
"338 290 LINE",
"532 290 LINE",
"532 382 LINE",
"338 382 LINE"
);
}
);
width = 576;
}
);
note = plus;
unicode = 002B;
},
{
glyphname = comma;
layers = (
{
layerId = "C81CB9C3-2214-4415-8D0B-901773012C9D";
paths = (
{
closed = 1;
nodes = (
"45 31 OFFCURVE",
"66 0 OFFCURVE",
"104 0 CURVE SMOOTH",
"110 0 LINE",
"108 -11 OFFCURVE",
"104 -22 OFFCURVE",
"100 -32 CURVE SMOOTH",
"96 -42 OFFCURVE",
"92 -50 OFFCURVE",
"86 -58 CURVE SMOOTH",
"80 -66 OFFCURVE",
"75 -73 OFFCURVE",
"70 -79 CURVE SMOOTH",
"65 -85 OFFCURVE",
"60 -90 OFFCURVE",
"56 -94 CURVE SMOOTH",
"52 -98 OFFCURVE",
"50 -103 OFFCURVE",
"50 -107 CURVE SMOOTH",
"50 -113 OFFCURVE",
"52 -117 OFFCURVE",
"56 -121 CURVE SMOOTH",
"71 -136 LINE",
"122 -95 OFFCURVE",
"166 -21 OFFCURVE",
"166 47 CURVE SMOOTH",
"166 85 OFFCURVE",
"147 118 OFFCURVE",
"104 118 CURVE SMOOTH",
"72 118 OFFCURVE",
"45 92 OFFCURVE",
"45 61 CURVE SMOOTH"
);
}
);
width = 211;
},
{
layerId = "3F211455-7DB7-4737-9D97-BF0B219628E9";
paths = (
{
closed = 1;
nodes = (
"127 85 OFFCURVE",
"99 85 CURVE SMOOTH",
"75 85 OFFCURVE",
"55 66 OFFCURVE",
"55 42 CURVE SMOOTH",
"55 18 OFFCURVE",
"75 -2 OFFCURVE",
"99 -2 CURVE SMOOTH",
"104 -2 OFFCURVE",
"109 -1 OFFCURVE",
"113 0 CURVE",
"112 -25 OFFCURVE",
"86 -77 OFFCURVE",
"62 -101 CURVE SMOOTH",
"56 -107 OFFCURVE",
"55 -113 OFFCURVE",
"61 -119 CURVE",
"69 -126 LINE",
"112 -83 OFFCURVE",
"144 -31 OFFCURVE",
"144 32 CURVE SMOOTH",
"144 62 OFFCURVE"
);
}
);
width = 199;
},
{
layerId = "394C4E3B-EB1E-48D6-87F8-186C851DDDB0";
paths = (
{
closed = 1;
nodes = (
"25 33 OFFCURVE",
"53 2 OFFCURVE",
"95 2 CURVE",
"88 -29 OFFCURVE",
"66 -61 OFFCURVE",
"41 -86 CURVE SMOOTH",
"38 -89 OFFCURVE",
"36 -92 OFFCURVE",
"34 -95 CURVE SMOOTH",
"32 -98 OFFCURVE",
"31 -101 OFFCURVE",
"31 -104 CURVE SMOOTH",
"31 -111 OFFCURVE",
"34 -117 OFFCURVE",
"40 -122 CURVE",
"62 -142 LINE",
"80 -128 OFFCURVE",
"95 -113 OFFCURVE",
"109 -96 CURVE SMOOTH",
"123 -79 OFFCURVE",
"134 -62 OFFCURVE",
"143 -44 CURVE SMOOTH",
"152 -26 OFFCURVE",
"160 -10 OFFCURVE",
"165 8 CURVE SMOOTH",
"170 26 OFFCURVE",
"172 43 OFFCURVE",
"172 59 CURVE SMOOTH",
"172 104 OFFCURVE",
"147 143 OFFCURVE",
"97 143 CURVE SMOOTH",
"55 143 OFFCURVE",
"25 116 OFFCURVE",
"25 76 CURVE SMOOTH"
);
}
);
width = 197;
}
);
leftKerningGroup = comma;
note = comma;
rightKerningGroup = comma;
unicode = 002C;
},
{
glyphname = hyphen;
layers = (
{
layerId = "C81CB9C3-2214-4415-8D0B-901773012C9D";
paths = (
{
closed = 1;
nodes = (
"40 338 LINE",
"40 262 LINE",
"286 262 LINE",
"286 338 LINE"
);
}
);
width = 326;
},
{
layerId = "3F211455-7DB7-4737-9D97-BF0B219628E9";
paths = (
{
closed = 1;
nodes = (
"69 317 LINE",
"69 276 LINE",
"301 276 LINE",
"301 317 LINE"
);
}
);
width = 370;
},
{
layerId = "394C4E3B-EB1E-48D6-87F8-186C851DDDB0";
paths = (
{
closed = 1;
nodes = (
"50 354 LINE",
"50 250 LINE",
"310 250 LINE",
"310 354 LINE"
);
}
);
width = 360;
}
);
leftKerningGroup = emdash;
note = hyphen;
rightKerningGroup = emdash;
unicode = 002D;
},
{
glyphname = period;
layers = (
{
layerId = "C81CB9C3-2214-4415-8D0B-901773012C9D";
paths = (
{
closed = 1;
nodes = (
"45 55 LINE",
"45 46 OFFCURVE",
"47 38 OFFCURVE",
"50 30 CURVE SMOOTH",
"53 22 OFFCURVE",
"57 16 OFFCURVE",
"63 10 CURVE SMOOTH",
"69 4 OFFCURVE",
"75 1 OFFCURVE",
"83 -2 CURVE SMOOTH",
"91 -5 OFFCURVE",
"99 -7 OFFCURVE",
"107 -7 CURVE SMOOTH",
"115 -7 OFFCURVE",
"123 -5 OFFCURVE",
"131 -2 CURVE SMOOTH",
"139 1 OFFCURVE",
"144 4 OFFCURVE",
"150 10 CURVE SMOOTH",
"156 16 OFFCURVE",
"160 22 OFFCURVE",
"163 30 CURVE SMOOTH",
"166 38 OFFCURVE",
"167 45 OFFCURVE",
"167 54 CURVE SMOOTH",
"167 62 OFFCURVE",
"166 70 OFFCURVE",
"163 78 CURVE SMOOTH",
"160 86 OFFCURVE",
"156 92 OFFCURVE",
"150 98 CURVE SMOOTH",
"144 104 OFFCURVE",
"139 108 OFFCURVE",
"131 112 CURVE SMOOTH",
"123 116 OFFCURVE",
"115 116 OFFCURVE",
"107 116 CURVE SMOOTH",
"99 116 OFFCURVE",
"91 116 OFFCURVE",
"83 112 CURVE SMOOTH",
"75 108 OFFCURVE",
"69 104 OFFCURVE",
"63 98 CURVE SMOOTH",
"57 92 OFFCURVE",
"53 86 OFFCURVE",
"50 78 CURVE SMOOTH",
"47 70 OFFCURVE",
"45 62 OFFCURVE",
"45 54 CURVE"
);
}
);
width = 212;
},
{
layerId = "3F211455-7DB7-4737-9D97-BF0B219628E9";
paths = (
{
closed = 1;
nodes = (
"127 -8 OFFCURVE",
"147 13 OFFCURVE",
"147 39 CURVE SMOOTH",
"147 64 OFFCURVE",
"127 85 OFFCURVE",
"101 85 CURVE SMOOTH",
"75 85 OFFCURVE",
"55 64 OFFCURVE",
"55 39 CURVE SMOOTH",
"55 13 OFFCURVE",
"75 -8 OFFCURVE",
"101 -8 CURVE SMOOTH"
);
}
);
width = 202;
},
{
layerId = "394C4E3B-EB1E-48D6-87F8-186C851DDDB0";
paths = (
{
closed = 1;
nodes = (
"25 57 OFFCURVE",
"27 47 OFFCURVE",
"31 38 CURVE SMOOTH",
"35 29 OFFCURVE",
"40 22 OFFCURVE",
"47 15 CURVE SMOOTH",
"54 8 OFFCURVE",
"63 3 OFFCURVE",
"72 -1 CURVE SMOOTH",
"81 -5 OFFCURVE",
"91 -7 OFFCURVE",
"102 -7 CURVE SMOOTH",
"112 -7 OFFCURVE",
"122 -5 OFFCURVE",
"131 -1 CURVE SMOOTH",
"140 3 OFFCURVE",
"148 8 OFFCURVE",
"155 15 CURVE SMOOTH",
"162 22 OFFCURVE",
"167 29 OFFCURVE",
"171 38 CURVE SMOOTH",
"175 47 OFFCURVE",
"177 57 OFFCURVE",
"177 68 CURVE SMOOTH",
"177 78 OFFCURVE",
"175 89 OFFCURVE",
"171 98 CURVE SMOOTH",
"167 107 OFFCURVE",
"162 115 OFFCURVE",
"155 122 CURVE SMOOTH",
"148 129 OFFCURVE",
"140 134 OFFCURVE",
"131 138 CURVE SMOOTH",
"122 142 OFFCURVE",
"111 144 OFFCURVE",
"101 144 CURVE SMOOTH",
"90 144 OFFCURVE",
"80 142 OFFCURVE",
"71 138 CURVE SMOOTH",
"62 134 OFFCURVE",
"54 129 OFFCURVE",
"47 122 CURVE SMOOTH",
"40 115 OFFCURVE",
"35 107 OFFCURVE",
"31 98 CURVE SMOOTH",
"27 89 OFFCURVE",
"25 78 OFFCURVE",
"25 68 CURVE SMOOTH"
);
}
);
width = 202;
}
);
leftKerningGroup = comma;
note = period;
rightKerningGroup = comma;
unicode = 002E;
},
{
glyphname = slash;
layers = (
{
layerId = "C81CB9C3-2214-4415-8D0B-901773012C9D";
paths = (
{
closed = 1;
nodes = (
"114 -10 LINE",
"413 736 LINE",
"375 736 LINE SMOOTH",
"364 736 OFFCURVE",
"355 734 OFFCURVE",
"347 728 CURVE SMOOTH",
"339 722 OFFCURVE",
"332 714 OFFCURVE",
"328 704 CURVE SMOOTH",
"27 -44 LINE",
"65 -44 LINE SMOOTH",
"75 -44 OFFCURVE",
"84 -42 OFFCURVE",
"93 -36 CURVE SMOOTH",
"102 -30 OFFCURVE",
"109 -22 OFFCURVE",
"113 -10 CURVE"
);
}
);
width = 441;
},
{
layerId = "3F211455-7DB7-4737-9D97-BF0B219628E9";
paths = (
{
closed = 1;
nodes = (
"385 728 LINE",
"365 728 LINE SMOOTH",
"352 728 OFFCURVE",
"343 721 OFFCURVE",
"338 709 CURVE SMOOTH",
"27 -42 LINE",
"47 -42 LINE SMOOTH",
"56 -42 OFFCURVE",
"69 -37 OFFCURVE",
"75 -22 CURVE SMOOTH"
);
}
);
width = 413;
},
{
layerId = "394C4E3B-EB1E-48D6-87F8-186C851DDDB0";
paths = (
{
closed = 1;
nodes = (
"434 743 LINE",
"382 743 LINE SMOOTH",
"367 743 OFFCURVE",
"354 740 OFFCURVE",
"343 732 CURVE SMOOTH",
"332 724 OFFCURVE",
"324 714 OFFCURVE",
"318 700 CURVE SMOOTH",
"26 -48 LINE",
"78 -48 LINE SMOOTH",
"84 -48 OFFCURVE",
"91 -46 OFFCURVE",
"98 -44 CURVE SMOOTH",
"105 -42 OFFCURVE",
"111 -40 OFFCURVE",
"117 -36 CURVE SMOOTH",
"123 -32 OFFCURVE",
"128 -28 OFFCURVE",
"133 -22 CURVE SMOOTH",
"138 -16 OFFCURVE",
"141 -10 OFFCURVE",
"144 -2 CURVE SMOOTH"
);
}
);
width = 460;
}
);
note = slash;
unicode = 002F;
},
{
glyphname = zero;
layers = (
{
layerId = "C81CB9C3-2214-4415-8D0B-901773012C9D";
paths = (
{
closed = 1;
nodes = (
"548 358 LINE",
"548 420 OFFCURVE",
"541 475 OFFCURVE",
"527 521 CURVE SMOOTH",
"513 567 OFFCURVE",
"496 605 OFFCURVE",
"472 635 CURVE SMOOTH",
"448 665 OFFCURVE",
"421 688 OFFCURVE",
"389 702 CURVE SMOOTH",
"357 716 OFFCURVE",
"323 724 OFFCURVE",
"287 724 CURVE SMOOTH",
"251 724 OFFCURVE",
"217 716 OFFCURVE",
"185 702 CURVE SMOOTH",
"153 688 OFFCURVE",
"126 665 OFFCURVE",
"102 635 CURVE SMOOTH",
"78 605 OFFCURVE",
"61 567 OFFCURVE",
"47 521 CURVE SMOOTH",
"33 475 OFFCURVE",
"27 420 OFFCURVE",
"27 358 CURVE SMOOTH",
"27 296 OFFCURVE",
"33 241 OFFCURVE",
"47 195 CURVE SMOOTH",
"61 149 OFFCURVE",
"78 111 OFFCURVE",
"102 81 CURVE SMOOTH",
"126 51 OFFCURVE",
"153 28 OFFCURVE",
"185 14 CURVE SMOOTH",
"217 0 OFFCURVE",
"251 -8 OFFCURVE",
"287 -8 CURVE SMOOTH",
"323 -8 OFFCURVE",
"357 0 OFFCURVE",
"389 14 CURVE SMOOTH",
"421 28 OFFCURVE",
"448 51 OFFCURVE",
"472 81 CURVE SMOOTH",
"496 111 OFFCURVE",
"513 149 OFFCURVE",
"527 195 CURVE SMOOTH",
"541 241 OFFCURVE",
"547 296 OFFCURVE",
"547 358 CURVE"
);
},
{
closed = 1;
nodes = (
"455 358 LINE",
"455 304 OFFCURVE",
"450 257 OFFCURVE",
"441 220 CURVE SMOOTH",
"432 183 OFFCURVE",
"421 153 OFFCURVE",
"405 131 CURVE SMOOTH",
"389 109 OFFCURVE",
"371 92 OFFCURVE",
"351 82 CURVE SMOOTH",
"331 72 OFFCURVE",
"309 67 OFFCURVE",
"287 67 CURVE SMOOTH",
"265 67 OFFCURVE",
"243 72 OFFCURVE",
"223 82 CURVE SMOOTH",
"203 92 OFFCURVE",
"185 108 OFFCURVE",
"169 130 CURVE SMOOTH",
"153 152 OFFCURVE",
"142 183 OFFCURVE",
"133 220 CURVE SMOOTH",
"124 257 OFFCURVE",
"119 304 OFFCURVE",
"119 358 CURVE SMOOTH",
"119 412 OFFCURVE",
"124 458 OFFCURVE",
"133 495 CURVE SMOOTH",
"142 532 OFFCURVE",
"153 562 OFFCURVE",
"169 584 CURVE SMOOTH",
"185 606 OFFCURVE",
"203 623 OFFCURVE",
"223 633 CURVE SMOOTH",
"243 643 OFFCURVE",
"265 648 OFFCURVE",
"287 648 CURVE SMOOTH",
"309 648 OFFCURVE",
"330 643 OFFCURVE",
"350 633 CURVE SMOOTH",
"370 623 OFFCURVE",
"388 606 OFFCURVE",
"404 584 CURVE SMOOTH",
"420 562 OFFCURVE",
"432 531 OFFCURVE",
"441 494 CURVE SMOOTH",
"450 457 OFFCURVE",
"455 411 OFFCURVE",
"455 357 CURVE"
);
}
);
width = 577;
},
{
layerId = "3F211455-7DB7-4737-9D97-BF0B219628E9";
paths = (
{
closed = 1;
nodes = (
"549 553 OFFCURVE",
"468 716 OFFCURVE",
"295 716 CURVE SMOOTH",
"119 716 OFFCURVE",
"41 550 OFFCURVE",
"41 354 CURVE SMOOTH",
"41 153 OFFCURVE",
"122 -8 OFFCURVE",
"295 -8 CURVE SMOOTH",
"469 -8 OFFCURVE",
"549 159 OFFCURVE",
"549 354 CURVE SMOOTH"
);
},
{
closed = 1;
nodes = (
"499 191 OFFCURVE",
"446 32 OFFCURVE",
"295 32 CURVE SMOOTH",
"148 32 OFFCURVE",
"91 181 OFFCURVE",
"91 354 CURVE SMOOTH",
"91 518 OFFCURVE",
"144 676 OFFCURVE",
"294 676 CURVE SMOOTH",
"440 676 OFFCURVE",
"499 527 OFFCURVE",
"499 354 CURVE SMOOTH"
);
}
);
width = 590;
},
{
layerId = "394C4E3B-EB1E-48D6-87F8-186C851DDDB0";
paths = (
{
closed = 1;
nodes = (
"545 425 OFFCURVE",
"539 480 OFFCURVE",
"525 526 CURVE SMOOTH",
"511 572 OFFCURVE",
"493 611 OFFCURVE",
"469 641 CURVE SMOOTH",
"445 671 OFFCURVE",
"416 694 OFFCURVE",
"384 709 CURVE SMOOTH",
"352 724 OFFCURVE",
"317 731 OFFCURVE",
"279 731 CURVE SMOOTH",
"241 731 OFFCURVE",
"206 724 OFFCURVE",
"174 709 CURVE SMOOTH",
"142 694 OFFCURVE",
"115 671 OFFCURVE",
"91 641 CURVE SMOOTH",
"67 611 OFFCURVE",
"48 572 OFFCURVE",
"35 526 CURVE SMOOTH",
"22 480 OFFCURVE",
"15 425 OFFCURVE",
"15 362 CURVE SMOOTH",
"15 299 OFFCURVE",
"22 243 OFFCURVE",
"35 197 CURVE SMOOTH",
"48 151 OFFCURVE",
"67 112 OFFCURVE",
"91 82 CURVE SMOOTH",
"115 52 OFFCURVE",
"142 29 OFFCURVE",
"174 14 CURVE SMOOTH",
"206 -1 OFFCURVE",
"241 -8 OFFCURVE",
"279 -8 CURVE SMOOTH",
"317 -8 OFFCURVE",
"352 -1 OFFCURVE",
"384 14 CURVE SMOOTH",
"416 29 OFFCURVE",
"445 52 OFFCURVE",
"469 82 CURVE SMOOTH",
"493 112 OFFCURVE",
"511 151 OFFCURVE",
"525 197 CURVE SMOOTH",
"539 243 OFFCURVE",
"545 299 OFFCURVE",
"545 362 CURVE SMOOTH"
);
},
{
closed = 1;
nodes = (
"417 310 OFFCURVE",
"414 266 OFFCURVE",
"406 232 CURVE SMOOTH",
"398 198 OFFCURVE",
"388 169 OFFCURVE",
"375 149 CURVE SMOOTH",
"362 129 OFFCURVE",
"348 115 OFFCURVE",
"331 107 CURVE SMOOTH",
"314 99 OFFCURVE",
"297 94 OFFCURVE",
"279 94 CURVE SMOOTH",
"261 94 OFFCURVE",
"244 99 OFFCURVE",
"228 107 CURVE SMOOTH",
"212 115 OFFCURVE",
"197 130 OFFCURVE",
"184 150 CURVE SMOOTH",
"171 170 OFFCURVE",
"162 198 OFFCURVE",
"154 232 CURVE SMOOTH",
"146 266 OFFCURVE",
"142 310 OFFCURVE",
"142 362 CURVE SMOOTH",
"142 414 OFFCURVE",
"146 458 OFFCURVE",
"154 492 CURVE SMOOTH",
"162 526 OFFCURVE",
"171 554 OFFCURVE",
"184 574 CURVE SMOOTH",
"197 594 OFFCURVE",
"212 608 OFFCURVE",
"228 616 CURVE SMOOTH",
"244 624 OFFCURVE",
"261 628 OFFCURVE",
"279 628 CURVE SMOOTH",
"297 628 OFFCURVE",
"314 624 OFFCURVE",
"331 616 CURVE SMOOTH",
"348 608 OFFCURVE",
"362 594 OFFCURVE",
"375 574 CURVE SMOOTH",
"388 554 OFFCURVE",
"398 526 OFFCURVE",
"406 492 CURVE SMOOTH",
"414 458 OFFCURVE",
"417 414 OFFCURVE",
"417 362 CURVE SMOOTH"
);
}
);
width = 562;
}
);
note = zero;
unicode = 0030;
},
{
glyphname = one;
layers = (
{
layerId = "C81CB9C3-2214-4415-8D0B-901773012C9D";
paths = (
{
closed = 1;
nodes = (
"371 68 LINE",
"371 718 LINE",
"299 718 LINE",
"86 534 LINE",
"114 495 LINE",
"121 484 OFFCURVE",
"139 478 OFFCURVE",
"156 492 CURVE SMOOTH",
"284 601 LINE",
"283 586 OFFCURVE",
"283 570 OFFCURVE",
"283 556 CURVE SMOOTH",
"283 68 LINE",
"143 58 LINE",
"133 56 OFFCURVE",
"129 50 OFFCURVE",
"129 40 CURVE SMOOTH",
"129 0 LINE",
"513 0 LINE",
"513 40 LINE SMOOTH",
"513 50 OFFCURVE",
"509 56 OFFCURVE",
"499 58 CURVE"
);
}
);
width = 601;
},
{
layerId = "3F211455-7DB7-4737-9D97-BF0B219628E9";
paths = (
{
closed = 1;
nodes = (
"499 0 LINE",
"499 16 LINE SMOOTH",
"499 25 OFFCURVE",
"493 30 OFFCURVE",
"482 31 CURVE",
"344 38 LINE",
"344 710 LINE",
"307 710 LINE",
"103 530 LINE",
"117 510 LINE SMOOTH",
"123 502 OFFCURVE",
"136 502 OFFCURVE",
"142 508 CURVE",
"298 647 LINE",
"296 38 LINE",
"150 31 LINE",
"139 30 OFFCURVE",
"134 25 OFFCURVE",
"134 16 CURVE SMOOTH",
"134 0 LINE"
);
}
);
width = 603;
},
{
layerId = "394C4E3B-EB1E-48D6-87F8-186C851DDDB0";
paths = (
{
closed = 1;
nodes = (
"476 84 OFFCURVE",
"439 88 OFFCURVE",
"372 93 CURVE",
"372 724 LINE",
"270 724 LINE",
"50 536 LINE",
"89 483 LINE SMOOTH",
"92 479 OFFCURVE",
"95 476 OFFCURVE",
"101 473 CURVE",
"106 470 OFFCURVE",
"112 469 OFFCURVE",
"119 469 CURVE SMOOTH",
"123 469 OFFCURVE",
"129 470 OFFCURVE",
"133 471 CURVE SMOOTH",
"137 472 OFFCURVE",
"142 475 OFFCURVE",
"146 479 CURVE",
"250 566 LINE",
"249 548 OFFCURVE",
"248 530 OFFCURVE",
"248 514 CURVE SMOOTH",
"248 94 LINE",
"171 88 OFFCURVE",
"129 84 OFFCURVE",
"122 83 CURVE",
"109 80 OFFCURVE",
"102 72 OFFCURVE",
"102 58 CURVE SMOOTH",
"102 0 LINE",
"298 0 LINE",
"306 0 LINE",
"502 0 LINE",
"502 58 LINE SMOOTH",
"502 72 OFFCURVE",
"495 80 OFFCURVE",
"482 83 CURVE"
);
}
);
width = 548;
}
);
note = one;
unicode = 0031;
},
{
glyphname = two;
layers = (
{
layerId = "C81CB9C3-2214-4415-8D0B-901773012C9D";
paths = (
{
closed = 1;
nodes = (
"535 62 LINE",
"535 78 LINE",
"535 160 LINE",
"486 160 LINE SMOOTH",
"476 160 OFFCURVE",
"467 152 OFFCURVE",
"465 142 CURVE",
"465 138 OFFCURVE",
"461 113 OFFCURVE",
"459 85 CURVE",
"263 85 LINE SMOOTH",
"251 85 OFFCURVE",
"238 84 OFFCURVE",
"224 82 CURVE SMOOTH",
"210 80 OFFCURVE",
"197 78 OFFCURVE",
"183 74 CURVE",
"372 266 LINE SMOOTH",
"392 286 OFFCURVE",
"411 306 OFFCURVE",
"429 326 CURVE SMOOTH",
"447 346 OFFCURVE",
"463 366 OFFCURVE",
"477 387 CURVE SMOOTH",
"491 408 OFFCURVE",
"501 430 OFFCURVE",
"509 452 CURVE SMOOTH",
"517 474 OFFCURVE",
"521 500 OFFCURVE",
"521 526 CURVE SMOOTH",
"521 558 OFFCURVE",
"516 586 OFFCURVE",
"505 610 CURVE SMOOTH",
"494 634 OFFCURVE",
"478 655 OFFCURVE",
"459 672 CURVE SMOOTH",
"440 689 OFFCURVE",
"417 703 OFFCURVE",
"391 712 CURVE SMOOTH",
"365 721 OFFCURVE",
"335 725 OFFCURVE",
"305 725 CURVE SMOOTH",
"275 725 OFFCURVE",
"246 721 OFFCURVE",
"220 712 CURVE SMOOTH",
"194 703 OFFCURVE",
"169 689 OFFCURVE",
"149 672 CURVE SMOOTH",
"129 655 OFFCURVE",
"113 635 OFFCURVE",
"99 610 CURVE SMOOTH",
"85 585 OFFCURVE",
"75 555 OFFCURVE",
"71 523 CURVE",
"118 515 LINE",
"120 515 OFFCURVE",
"123 514 OFFCURVE",
"125 514 CURVE SMOOTH",
"129 514 LINE SMOOTH",
"137 514 OFFCURVE",
"145 516 OFFCURVE",
"151 520 CURVE SMOOTH",
"157 524 OFFCURVE",
"161 532 OFFCURVE",
"163 542 CURVE",
"167 558 OFFCURVE",
"172 571 OFFCURVE",
"180 584 CURVE SMOOTH",
"188 597 OFFCURVE",
"198 608 OFFCURVE",
"210 618 CURVE SMOOTH",
"222 628 OFFCURVE",
"235 634 OFFCURVE",
"251 640 CURVE SMOOTH",
"267 646 OFFCURVE",
"283 648 OFFCURVE",
"301 648 CURVE SMOOTH",
"319 648 OFFCURVE",
"335 646 OFFCURVE",
"351 641 CURVE SMOOTH",
"367 636 OFFCURVE",
"380 628 OFFCURVE",
"392 618 CURVE SMOOTH",
"404 608 OFFCURVE",
"413 594 OFFCURVE",
"419 578 CURVE SMOOTH",
"425 562 OFFCURVE",
"429 544 OFFCURVE",
"429 523 CURVE SMOOTH",
"429 502 OFFCURVE",
"426 482 OFFCURVE",
"420 464 CURVE SMOOTH",
"414 446 OFFCURVE",
"406 426 OFFCURVE",
"395 408 CURVE SMOOTH",
"384 390 OFFCURVE",
"371 372 OFFCURVE",
"355 354 CURVE SMOOTH",
"339 336 OFFCURVE",
"322 318 OFFCURVE",
"303 298 CURVE SMOOTH",
"73 68 LINE SMOOTH",
"67 62 OFFCURVE",
"63 56 OFFCURVE",
"61 50 CURVE SMOOTH",
"59 44 OFFCURVE",
"57 36 OFFCURVE",
"57 30 CURVE SMOOTH",
"57 0 LINE",
"534 0 LINE"
);
}
);
width = 600;
},
{
layerId = "3F211455-7DB7-4737-9D97-BF0B219628E9";
paths = (
{
closed = 1;
nodes = (
"502 134 LINE SMOOTH",
"488 134 OFFCURVE",
"482 126 OFFCURVE",
"481 110 CURVE",
"475 45 LINE",
"204 45 LINE SMOOTH",
"187 45 OFFCURVE",
"155 42 OFFCURVE",
"136 37 CURVE",
"357 263 LINE SMOOTH",
"446 356 OFFCURVE",
"510 422 OFFCURVE",
"510 525 CURVE SMOOTH",
"510 640 OFFCURVE",
"431 715 OFFCURVE",
"307 715 CURVE SMOOTH",
"189 715 OFFCURVE",
"104 647 OFFCURVE",
"88 524 CURVE",
"113 521 LINE SMOOTH",
"127 519 OFFCURVE",
"134 525 OFFCURVE",
"137 537 CURVE",
"155 625 OFFCURVE",
"218 675 OFFCURVE",
"304 675 CURVE SMOOTH",
"398 675 OFFCURVE",
"461 616 OFFCURVE",
"461 523 CURVE SMOOTH",
"461 440 OFFCURVE",
"406 367 OFFCURVE",
"321 282 CURVE SMOOTH",
"79 38 LINE SMOOTH",
"74 32 OFFCURVE",
"70 24 OFFCURVE",
"70 16 CURVE SMOOTH",
"70 0 LINE",
"526 0 LINE",
"526 134 LINE"
);
}
);
width = 600;
},
{
layerId = "394C4E3B-EB1E-48D6-87F8-186C851DDDB0";
paths = (
{
closed = 1;
nodes = (
"549 108 LINE",
"549 178 LINE",
"496 178 LINE SMOOTH",
"483 178 OFFCURVE",
"476 172 OFFCURVE",
"473 160 CURVE SMOOTH",
"472 156 OFFCURVE",
"471 141 OFFCURVE",
"469 115 CURVE",
"309 115 LINE SMOOTH",
"295 115 OFFCURVE",
"280 113 OFFCURVE",
"265 111 CURVE",
"250 108 OFFCURVE",
"234 105 OFFCURVE",
"218 100 CURVE",
"381 267 LINE SMOOTH",
"400 287 OFFCURVE",
"419 307 OFFCURVE",
"437 326 CURVE SMOOTH",
"455 345 OFFCURVE",
"470 365 OFFCURVE",
"483 386 CURVE SMOOTH",
"496 407 OFFCURVE",
"506 428 OFFCURVE",
"514 451 CURVE SMOOTH",
"522 474 OFFCURVE",
"526 498 OFFCURVE",
"526 525 CURVE SMOOTH",
"526 556 OFFCURVE",
"520 584 OFFCURVE",
"509 609 CURVE SMOOTH",
"498 634 OFFCURVE",
"483 656 OFFCURVE",
"463 674 CURVE SMOOTH",
"443 692 OFFCURVE",
"421 706 OFFCURVE",
"393 716 CURVE SMOOTH",
"365 726 OFFCURVE",
"334 731 OFFCURVE",
"301 731 CURVE SMOOTH",
"269 731 OFFCURVE",
"239 727 OFFCURVE",
"211 718 CURVE SMOOTH",
"183 709 OFFCURVE",
"158 696 OFFCURVE",
"137 678 CURVE SMOOTH",
"115 660 OFFCURVE",
"98 639 OFFCURVE",
"84 613 CURVE SMOOTH",
"70 587 OFFCURVE",
"60 556 OFFCURVE",
"55 521 CURVE",
"120 510 LINE SMOOTH",
"126 509 OFFCURVE",
"131 508 OFFCURVE",
"136 508 CURVE SMOOTH",
"147 508 OFFCURVE",
"157 511 OFFCURVE",
"164 517 CURVE",
"171 522 OFFCURVE",
"177 531 OFFCURVE",
"181 544 CURVE SMOOTH",
"189 569 OFFCURVE",
"202 589 OFFCURVE",
"221 604 CURVE SMOOTH",
"240 619 OFFCURVE",
"264 627 OFFCURVE",
"294 627 CURVE SMOOTH",
"310 627 OFFCURVE",
"324 624 OFFCURVE",
"337 620 CURVE SMOOTH",
"350 616 OFFCURVE",
"361 609 OFFCURVE",
"370 600 CURVE SMOOTH",
"379 591 OFFCURVE",
"387 580 OFFCURVE",
"392 567 CURVE SMOOTH",
"397 554 OFFCURVE",
"399 538 OFFCURVE",
"399 521 CURVE SMOOTH",
"399 502 OFFCURVE",
"397 484 OFFCURVE",
"392 467 CURVE SMOOTH",
"387 450 OFFCURVE",
"379 433 OFFCURVE",
"369 416 CURVE SMOOTH",
"359 399 OFFCURVE",
"347 382 OFFCURVE",
"333 365 CURVE SMOOTH",
"319 348 OFFCURVE",
"301 331 OFFCURVE",
"283 312 CURVE SMOOTH",
"64 92 LINE SMOOTH",
"56 84 OFFCURVE",
"51 76 OFFCURVE",
"47 67 CURVE",
"44 58 OFFCURVE",
"42 49 OFFCURVE",
"42 41 CURVE SMOOTH",
"42 0 LINE",
"509 0 LINE",
"538 0 LINE",
"549 0 LINE"
);
}
);
width = 596;
}
);
note = two;
unicode = 0032;
},
{
glyphname = three;
layers = (
{
layerId = "C81CB9C3-2214-4415-8D0B-901773012C9D";
paths = (
{
closed = 1;
nodes = (
"308 724 LINE SMOOTH",
"278 724 OFFCURVE",
"248 720 OFFCURVE",
"222 711 CURVE SMOOTH",
"196 702 OFFCURVE",
"172 689 OFFCURVE",
"152 672 CURVE SMOOTH",
"132 655 OFFCURVE",
"115 634 OFFCURVE",
"101 609 CURVE SMOOTH",
"87 584 OFFCURVE",
"78 554 OFFCURVE",
"74 522 CURVE",
"120 514 LINE",
"127 514 LINE",
"132 514 LINE SMOOTH",
"140 514 OFFCURVE",
"147 516 OFFCURVE",
"153 520 CURVE SMOOTH",
"159 524 OFFCURVE",
"163 531 OFFCURVE",
"165 541 CURVE",
"169 557 OFFCURVE",
"175 571 OFFCURVE",
"183 584 CURVE SMOOTH",
"191 597 OFFCURVE",
"201 608 OFFCURVE",
"213 618 CURVE SMOOTH",
"225 628 OFFCURVE",
"238 634 OFFCURVE",
"254 640 CURVE SMOOTH",
"270 646 OFFCURVE",
"286 648 OFFCURVE",
"304 648 CURVE SMOOTH",
"322 648 OFFCURVE",
"338 645 OFFCURVE",
"354 640 CURVE SMOOTH",
"370 635 OFFCURVE",
"382 628 OFFCURVE",
"394 618 CURVE SMOOTH",
"406 608 OFFCURVE",
"416 596 OFFCURVE",
"422 580 CURVE SMOOTH",
"428 564 OFFCURVE",
"431 546 OFFCURVE",
"431 526 CURVE SMOOTH",
"431 508 OFFCURVE",
"428 491 OFFCURVE",
"422 475 CURVE SMOOTH",
"416 459 OFFCURVE",
"406 447 OFFCURVE",
"392 436 CURVE SMOOTH",
"378 425 OFFCURVE",
"362 416 OFFCURVE",
"340 410 CURVE SMOOTH",
"318 404 OFFCURVE",
"292 399 OFFCURVE",
"262 399 CURVE",
"262 334 LINE",
"300 334 OFFCURVE",
"330 330 OFFCURVE",
"354 324 CURVE SMOOTH",
"378 318 OFFCURVE",
"396 310 OFFCURVE",
"410 298 CURVE SMOOTH",
"424 286 OFFCURVE",
"433 272 OFFCURVE",
"438 256 CURVE SMOOTH",
"443 240 OFFCURVE",
"446 223 OFFCURVE",
"446 203 CURVE SMOOTH",
"446 187 OFFCURVE",
"442 172 OFFCURVE",
"436 156 CURVE SMOOTH",
"430 140 OFFCURVE",
"420 125 OFFCURVE",
"408 112 CURVE SMOOTH",
"396 99 OFFCURVE",
"379 88 OFFCURVE",
"360 80 CURVE SMOOTH",
"341 72 OFFCURVE",
"319 68 OFFCURVE",
"294 68 CURVE SMOOTH",
"269 68 OFFCURVE",
"249 72 OFFCURVE",
"232 80 CURVE SMOOTH",
"215 88 OFFCURVE",
"201 96 OFFCURVE",
"189 106 CURVE SMOOTH",
"177 116 OFFCURVE",
"168 128 OFFCURVE",
"162 140 CURVE SMOOTH",
"156 152 OFFCURVE",
"150 163 OFFCURVE",
"146 173 CURVE",
"146 175 OFFCURVE",
"144 176 OFFCURVE",
"144 178 CURVE SMOOTH",
"144 180 OFFCURVE",
"142 180 OFFCURVE",
"142 182 CURVE",
"140 188 OFFCURVE",
"136 193 OFFCURVE",
"131 196 CURVE SMOOTH",
"126 199 OFFCURVE",
"120 200 OFFCURVE",
"114 200 CURVE SMOOTH",
"107 200 OFFCURVE",
"99 199 OFFCURVE",
"92 196 CURVE SMOOTH",
"54 180 LINE",
"62 154 OFFCURVE",
"73 128 OFFCURVE",
"85 105 CURVE SMOOTH",
"97 82 OFFCURVE",
"113 62 OFFCURVE",
"131 46 CURVE SMOOTH",
"149 30 OFFCURVE",
"173 16 OFFCURVE",
"200 6 CURVE SMOOTH",
"227 -4 OFFCURVE",
"259 -8 OFFCURVE",
"297 -8 CURVE SMOOTH",
"330 -8 OFFCURVE",
"361 -3 OFFCURVE",
"390 7 CURVE SMOOTH",
"419 17 OFFCURVE",
"444 32 OFFCURVE",
"466 50 CURVE SMOOTH",
"488 68 OFFCURVE",
"504 91 OFFCURVE",
"516 117 CURVE SMOOTH",
"528 143 OFFCURVE",
"535 173 OFFCURVE",
"535 206 CURVE SMOOTH",
"535 250 OFFCURVE",
"524 286 OFFCURVE",
"500 315 CURVE SMOOTH",
"476 344 OFFCURVE",
"440 365 OFFCURVE",
"394 377 CURVE",
"413 383 OFFCURVE",
"430 390 OFFCURVE",
"446 400 CURVE SMOOTH",
"462 410 OFFCURVE",
"475 420 OFFCURVE",
"486 434 CURVE SMOOTH",
"497 448 OFFCURVE",
"505 463 OFFCURVE",
"511 481 CURVE SMOOTH",
"517 499 OFFCURVE",
"520 520 OFFCURVE",
"520 542 CURVE SMOOTH",
"520 570 OFFCURVE",
"514 594 OFFCURVE",
"504 616 CURVE SMOOTH",
"494 638 OFFCURVE",
"479 658 OFFCURVE",
"461 674 CURVE SMOOTH",
"443 690 OFFCURVE",
"421 704 OFFCURVE",
"395 712 CURVE SMOOTH",
"369 720 OFFCURVE",
"341 724 OFFCURVE",
"311 724 CURVE SMOOTH"
);
}
);
width = 604;
},
{
layerId = "3F211455-7DB7-4737-9D97-BF0B219628E9";
paths = (
{
closed = 1;
nodes = (
"202 716 OFFCURVE",
"118 642 OFFCURVE",
"102 524 CURVE",
"132 520 LINE SMOOTH",
"142 520 OFFCURVE",
"148 526 OFFCURVE",
"151 538 CURVE SMOOTH",
"172 624 OFFCURVE",
"232 675 OFFCURVE",
"320 675 CURVE SMOOTH",
"412 675 OFFCURVE",
"473 619 OFFCURVE",
"473 529 CURVE SMOOTH",
"473 429 OFFCURVE",
"393 383 OFFCURVE",
"286 380 CURVE",
"286 346 LINE",
"405 346 OFFCURVE",
"490 307 OFFCURVE",
"490 193 CURVE SMOOTH",
"490 103 OFFCURVE",
"411 32 OFFCURVE",
"310 32 CURVE SMOOTH",
"215 32 OFFCURVE",
"160 77 OFFCURVE",
"128 171 CURVE SMOOTH",
"123 184 OFFCURVE",
"108 185 OFFCURVE",
"98 181 CURVE",
"80 173 LINE",
"115 51 OFFCURVE",
"177 -8 OFFCURVE",
"310 -8 CURVE SMOOTH",
"436 -8 OFFCURVE",
"538 76 OFFCURVE",
"538 194 CURVE SMOOTH",
"538 292 OFFCURVE",
"479 350 OFFCURVE",
"380 369 CURVE",
"466 390 OFFCURVE",
"520 451 OFFCURVE",
"520 537 CURVE SMOOTH",
"520 648 OFFCURVE",
"433 716 OFFCURVE",
"322 716 CURVE SMOOTH"
);
}
);
width = 628;
},
{
layerId = "394C4E3B-EB1E-48D6-87F8-186C851DDDB0";
paths = (
{
closed = 1;
nodes = (
"258 731 OFFCURVE",
"228 727 OFFCURVE",
"200 718 CURVE SMOOTH",
"172 709 OFFCURVE",
"148 696 OFFCURVE",
"126 678 CURVE SMOOTH",
"104 660 OFFCURVE",
"87 639 OFFCURVE",
"73 613 CURVE SMOOTH",
"59 587 OFFCURVE",
"48 557 OFFCURVE",
"43 522 CURVE",
"109 510 LINE SMOOTH",
"115 509 OFFCURVE",
"120 508 OFFCURVE",
"125 508 CURVE SMOOTH",
"136 508 OFFCURVE",
"146 511 OFFCURVE",
"153 517 CURVE SMOOTH",
"160 523 OFFCURVE",
"165 531 OFFCURVE",
"169 544 CURVE SMOOTH",
"177 568 OFFCURVE",
"191 588 OFFCURVE",
"210 604 CURVE SMOOTH",
"229 620 OFFCURVE",
"254 627 OFFCURVE",
"283 627 CURVE SMOOTH",
"315 627 OFFCURVE",
"340 619 OFFCURVE",
"359 601 CURVE SMOOTH",
"378 583 OFFCURVE",
"387 557 OFFCURVE",
"387 523 CURVE SMOOTH",
"387 507 OFFCURVE",
"386 492 OFFCURVE",
"381 479 CURVE SMOOTH",
"376 466 OFFCURVE",
"368 455 OFFCURVE",
"356 445 CURVE",
"344 436 OFFCURVE",
"328 427 OFFCURVE",
"308 422 CURVE SMOOTH",
"288 417 OFFCURVE",
"263 414 OFFCURVE",
"233 414 CURVE",
"233 326 LINE",
"270 326 OFFCURVE",
"298 324 OFFCURVE",
"320 318 CURVE SMOOTH",
"342 312 OFFCURVE",
"359 304 OFFCURVE",
"371 294 CURVE SMOOTH",
"383 284 OFFCURVE",
"389 272 OFFCURVE",
"393 258 CURVE SMOOTH",
"397 244 OFFCURVE",
"399 227 OFFCURVE",
"399 210 CURVE SMOOTH",
"399 196 OFFCURVE",
"396 184 OFFCURVE",
"391 170 CURVE SMOOTH",
"386 156 OFFCURVE",
"378 144 OFFCURVE",
"368 133 CURVE SMOOTH",
"358 122 OFFCURVE",
"345 113 OFFCURVE",
"329 106 CURVE SMOOTH",
"313 99 OFFCURVE",
"294 96 OFFCURVE",
"273 96 CURVE SMOOTH",
"254 96 OFFCURVE",
"239 98 OFFCURVE",
"225 104 CURVE SMOOTH",
"211 110 OFFCURVE",
"200 117 OFFCURVE",
"190 126 CURVE SMOOTH",
"180 135 OFFCURVE",
"171 145 OFFCURVE",
"164 156 CURVE SMOOTH",
"157 167 OFFCURVE",
"151 178 OFFCURVE",
"145 190 CURVE",
"141 197 OFFCURVE",
"136 202 OFFCURVE",
"129 206 CURVE SMOOTH",
"122 210 OFFCURVE",
"114 212 OFFCURVE",
"105 212 CURVE SMOOTH",
"95 212 OFFCURVE",
"86 210 OFFCURVE",
"77 206 CURVE SMOOTH",
"23 184 LINE",
"33 153 OFFCURVE",
"45 126 OFFCURVE",
"59 102 CURVE SMOOTH",
"73 78 OFFCURVE",
"89 58 OFFCURVE",
"109 42 CURVE SMOOTH",
"129 26 OFFCURVE",
"153 12 OFFCURVE",
"180 4 CURVE SMOOTH",
"207 -4 OFFCURVE",
"239 -8 OFFCURVE",
"275 -8 CURVE SMOOTH",
"308 -8 OFFCURVE",
"340 -4 OFFCURVE",
"370 6 CURVE SMOOTH",
"400 16 OFFCURVE",
"426 30 OFFCURVE",
"449 49 CURVE SMOOTH",
"472 68 OFFCURVE",
"490 91 OFFCURVE",
"503 119 CURVE SMOOTH",
"516 147 OFFCURVE",
"523 178 OFFCURVE",
"523 214 CURVE SMOOTH",
"523 256 OFFCURVE",
"512 292 OFFCURVE",
"491 320 CURVE SMOOTH",
"470 348 OFFCURVE",
"436 368 OFFCURVE",
"393 382 CURVE",
"411 388 OFFCURVE",
"428 396 OFFCURVE",
"442 405 CURVE SMOOTH",
"456 414 OFFCURVE",
"468 425 OFFCURVE",
"478 438 CURVE SMOOTH",
"488 451 OFFCURVE",
"495 466 OFFCURVE",
"500 484 CURVE SMOOTH",
"505 502 OFFCURVE",
"508 521 OFFCURVE",
"508 544 CURVE SMOOTH",
"508 570 OFFCURVE",
"503 595 OFFCURVE",
"493 618 CURVE SMOOTH",
"483 641 OFFCURVE",
"468 660 OFFCURVE",
"449 677 CURVE SMOOTH",
"430 694 OFFCURVE",
"407 707 OFFCURVE",
"380 717 CURVE SMOOTH",
"353 727 OFFCURVE",
"323 731 OFFCURVE",
"290 731 CURVE SMOOTH"
);
}
);
width = 558;
}
);
note = three;
unicode = 0033;
},
{
glyphname = four;
layers = (
{
layerId = "C81CB9C3-2214-4415-8D0B-901773012C9D";
paths = (
{
closed = 1;
nodes = (
"455 258 LINE",
"455 716 LINE",
"372 716 LINE",
"24 254 LINE",
"32 208 LINE",
"34 202 OFFCURVE",
"37 198 OFFCURVE",
"42 194 CURVE SMOOTH",
"47 190 OFFCURVE",
"53 188 OFFCURVE",
"59 188 CURVE SMOOTH",
"376 188 LINE",
"376 0 LINE",
"455 0 LINE",
"455 188 LINE",
"544 188 LINE SMOOTH",
"550 188 OFFCURVE",
"555 190 OFFCURVE",
"558 194 CURVE SMOOTH",
"561 198 OFFCURVE",
"563 201 OFFCURVE",
"563 207 CURVE SMOOTH",
"563 258 LINE"
);
},
{
closed = 1;
nodes = (
"376 258 LINE",
"120 258 LINE",
"380 612 LINE",
"378 602 OFFCURVE",
"377 592 OFFCURVE",
"377 582 CURVE SMOOTH",
"377 572 OFFCURVE",
"376 562 OFFCURVE",
"376 554 CURVE SMOOTH"
);
}
);
width = 598;
},
{
layerId = "3F211455-7DB7-4737-9D97-BF0B219628E9";
paths = (
{
closed = 1;
nodes = (
"431 241 LINE",
"431 708 LINE",
"388 708 LINE",
"33 238 LINE",
"37 215 LINE",
"39 206 OFFCURVE",
"46 203 OFFCURVE",
"54 203 CURVE SMOOTH",
"387 203 LINE",
"387 0 LINE",
"431 0 LINE",
"431 203 LINE",
"547 203 LINE SMOOTH",
"552 203 OFFCURVE",
"560 204 OFFCURVE",
"560 215 CURVE SMOOTH",
"560 241 LINE"
);
},
{
closed = 1;
nodes = (
"387 241 LINE",
"85 241 LINE",
"390 649 LINE",
"389 641 OFFCURVE",
"387 620 OFFCURVE",
"387 612 CURVE SMOOTH"
);
}
);
width = 603;
},
{
layerId = "394C4E3B-EB1E-48D6-87F8-186C851DDDB0";
paths = (
{
closed = 1;
nodes = (
"468 272 LINE",
"468 724 LINE",
"351 724 LINE",
"8 266 LINE",
"21 204 LINE",
"23 196 OFFCURVE",
"27 189 OFFCURVE",
"33 184 CURVE SMOOTH",
"39 179 OFFCURVE",
"47 176 OFFCURVE",
"55 176 CURVE SMOOTH",
"360 176 LINE",
"360 0 LINE",
"468 0 LINE",
"468 176 LINE",
"534 176 LINE SMOOTH",
"542 176 OFFCURVE",
"548 179 OFFCURVE",
"552 184 CURVE SMOOTH",
"556 189 OFFCURVE",
"559 194 OFFCURVE",
"559 201 CURVE SMOOTH",
"559 272 LINE"
);
},
{
closed = 1;
nodes = (
"360 272 LINE",
"140 272 LINE",
"364 582 LINE",
"362 569 OFFCURVE",
"362 556 OFFCURVE",
"361 544 CURVE SMOOTH",
"360 532 OFFCURVE",
"360 520 OFFCURVE",
"360 509 CURVE SMOOTH"
);
}
);
width = 573;
}
);
note = four;
unicode = 0034;
},
{
glyphname = five;
layers = (
{
layerId = "C81CB9C3-2214-4415-8D0B-901773012C9D";
paths = (
{
closed = 1;
nodes = (
"499 678 LINE",
"499 716 LINE",
"159 716 LINE",
"101 382 LINE",
"157 365 LINE",
"177 371 OFFCURVE",
"197 377 OFFCURVE",
"217 380 CURVE SMOOTH",
"237 383 OFFCURVE",
"255 384 OFFCURVE",
"273 384 CURVE SMOOTH",
"299 384 OFFCURVE",
"322 381 OFFCURVE",
"342 374 CURVE SMOOTH",
"362 367 OFFCURVE",
"378 356 OFFCURVE",
"391 344 CURVE SMOOTH",
"404 332 OFFCURVE",
"415 316 OFFCURVE",
"421 298 CURVE SMOOTH",
"427 280 OFFCURVE",
"430 260 OFFCURVE",
"430 238 CURVE SMOOTH",
"430 212 OFFCURVE",
"427 188 OFFCURVE",
"419 168 CURVE SMOOTH",
"411 148 OFFCURVE",
"400 130 OFFCURVE",
"386 115 CURVE SMOOTH",
"372 100 OFFCURVE",
"355 88 OFFCURVE",
"335 80 CURVE SMOOTH",
"315 72 OFFCURVE",
"292 68 OFFCURVE",
"267 68 CURVE SMOOTH",
"245 68 OFFCURVE",
"225 71 OFFCURVE",
"209 76 CURVE SMOOTH",
"193 81 OFFCURVE",
"179 87 OFFCURVE",
"167 93 CURVE SMOOTH",
"155 99 OFFCURVE",
"145 105 OFFCURVE",
"137 110 CURVE SMOOTH",
"129 115 OFFCURVE",
"120 118 OFFCURVE",
"114 118 CURVE SMOOTH",
"104 118 OFFCURVE",
"96 112 OFFCURVE",
"90 104 CURVE SMOOTH",
"63 66 LINE",
"74 56 OFFCURVE",
"87 47 OFFCURVE",
"101 38 CURVE SMOOTH",
"115 29 OFFCURVE",
"131 21 OFFCURVE",
"147 14 CURVE SMOOTH",
"163 7 OFFCURVE",
"181 2 OFFCURVE",
"201 -2 CURVE SMOOTH",
"221 -6 OFFCURVE",
"241 -8 OFFCURVE",
"262 -8 CURVE SMOOTH",
"298 -8 OFFCURVE",
"332 -3 OFFCURVE",
"364 9 CURVE SMOOTH",
"396 21 OFFCURVE",
"422 37 OFFCURVE",
"445 59 CURVE SMOOTH",
"468 81 OFFCURVE",
"486 108 OFFCURVE",
"500 138 CURVE SMOOTH",
"514 168 OFFCURVE",
"520 202 OFFCURVE",
"520 240 CURVE SMOOTH",
"520 271 OFFCURVE",
"515 300 OFFCURVE",
"505 326 CURVE SMOOTH",
"495 352 OFFCURVE",
"481 376 OFFCURVE",
"461 396 CURVE SMOOTH",
"441 416 OFFCURVE",
"417 430 OFFCURVE",
"389 441 CURVE SMOOTH",
"361 452 OFFCURVE",
"328 458 OFFCURVE",
"290 458 CURVE SMOOTH",
"258 458 OFFCURVE",
"225 454 OFFCURVE",
"187 446 CURVE",
"219 634 LINE",
"445 634 LINE SMOOTH",
"464 634 OFFCURVE",
"477 638 OFFCURVE",
"485 646 CURVE SMOOTH",
"493 654 OFFCURVE",
"497 664 OFFCURVE",
"497 676 CURVE"
);
}
);
width = 590;
},
{
layerId = "3F211455-7DB7-4737-9D97-BF0B219628E9";
paths = (
{
closed = 1;
nodes = (
"490 708 LINE",
"172 708 LINE",
"116 394 LINE",
"147 384 LINE",
"185 395 OFFCURVE",
"239 404 OFFCURVE",
"275 404 CURVE SMOOTH",
"390 404 OFFCURVE",
"460 343 OFFCURVE",
"460 230 CURVE SMOOTH",
"460 114 OFFCURVE",
"382 34 OFFCURVE",
"266 34 CURVE SMOOTH",
"223 34 OFFCURVE",
"164 51 OFFCURVE",
"128 74 CURVE SMOOTH",
"114 83 OFFCURVE",
"101 86 OFFCURVE",
"92 73 CURVE",
"80 55 LINE",
"127 17 OFFCURVE",
"195 -8 OFFCURVE",
"264 -8 CURVE SMOOTH",
"406 -8 OFFCURVE",
"508 91 OFFCURVE",
"508 232 CURVE SMOOTH",
"508 362 OFFCURVE",
"422 444 OFFCURVE",
"284 444 CURVE SMOOTH",
"249 444 OFFCURVE",
"196 437 OFFCURVE",
"163 428 CURVE",
"206 664 LINE",
"462 664 LINE SMOOTH",
"478 664 OFFCURVE",
"490 671 OFFCURVE",
"490 687 CURVE SMOOTH"
);
}
);
width = 599;
},
{
layerId = "394C4E3B-EB1E-48D6-87F8-186C851DDDB0";
paths = (
{
closed = 1;
nodes = (
"493 723 LINE",
"136 723 LINE",
"76 372 LINE",
"153 350 LINE",
"188 363 OFFCURVE",
"223 369 OFFCURVE",
"258 369 CURVE SMOOTH",
"302 369 OFFCURVE",
"336 358 OFFCURVE",
"359 336 CURVE SMOOTH",
"382 314 OFFCURVE",
"393 283 OFFCURVE",
"393 244 CURVE SMOOTH",
"393 223 OFFCURVE",
"391 202 OFFCURVE",
"385 184 CURVE SMOOTH",
"379 166 OFFCURVE",
"371 150 OFFCURVE",
"359 137 CURVE SMOOTH",
"347 124 OFFCURVE",
"332 113 OFFCURVE",
"315 106 CURVE SMOOTH",
"298 99 OFFCURVE",
"278 96 OFFCURVE",
"255 96 CURVE SMOOTH",
"234 96 OFFCURVE",
"216 99 OFFCURVE",
"201 104 CURVE SMOOTH",
"186 109 OFFCURVE",
"172 115 OFFCURVE",
"161 121 CURVE SMOOTH",
"150 127 OFFCURVE",
"140 134 OFFCURVE",
"132 139 CURVE SMOOTH",
"124 144 OFFCURVE",
"115 147 OFFCURVE",
"107 147 CURVE SMOOTH",
"94 147 OFFCURVE",
"83 141 OFFCURVE",
"75 130 CURVE SMOOTH",
"37 77 LINE",
"49 66 OFFCURVE",
"62 55 OFFCURVE",
"77 45 CURVE SMOOTH",
"92 35 OFFCURVE",
"109 26 OFFCURVE",
"127 18 CURVE SMOOTH",
"145 10 OFFCURVE",
"164 4 OFFCURVE",
"184 -1 CURVE SMOOTH",
"204 -6 OFFCURVE",
"226 -8 OFFCURVE",
"249 -8 CURVE SMOOTH",
"288 -8 OFFCURVE",
"323 -1 OFFCURVE",
"356 11 CURVE SMOOTH",
"389 23 OFFCURVE",
"417 41 OFFCURVE",
"441 63 CURVE SMOOTH",
"465 85 OFFCURVE",
"483 112 OFFCURVE",
"497 144 CURVE SMOOTH",
"511 176 OFFCURVE",
"517 211 OFFCURVE",
"517 249 CURVE SMOOTH",
"517 280 OFFCURVE",
"513 309 OFFCURVE",
"503 336 CURVE SMOOTH",
"493 363 OFFCURVE",
"478 386 OFFCURVE",
"458 406 CURVE SMOOTH",
"438 426 OFFCURVE",
"414 442 OFFCURVE",
"385 453 CURVE SMOOTH",
"356 464 OFFCURVE",
"323 470 OFFCURVE",
"285 470 CURVE SMOOTH",
"258 470 OFFCURVE",
"228 467 OFFCURVE",
"195 460 CURVE",
"221 611 LINE",
"421 611 LINE SMOOTH",
"447 611 OFFCURVE",
"465 617 OFFCURVE",
"476 628 CURVE SMOOTH",
"487 639 OFFCURVE",
"493 652 OFFCURVE",
"493 670 CURVE SMOOTH"
);
}
);
width = 558;
}
);
note = five;
unicode = 0035;
},
{
glyphname = six;
layers = (
{
layerId = "C81CB9C3-2214-4415-8D0B-901773012C9D";
paths = (
{
closed = 1;
nodes = (
"315 439 LINE",
"291 439 OFFCURVE",
"268 435 OFFCURVE",
"248 429 CURVE SMOOTH",
"228 423 OFFCURVE",
"209 414 OFFCURVE",
"192 402 CURVE",
"440 716 LINE",
"361 716 LINE SMOOTH",
"351 716 OFFCURVE",
"340 714 OFFCURVE",
"332 710 CURVE SMOOTH",
"324 706 OFFCURVE",
"317 702 OFFCURVE",
"313 696 CURVE",
"132 451 LINE SMOOTH",
"102 411 OFFCURVE",
"79 373 OFFCURVE",
"65 337 CURVE SMOOTH",
"51 301 OFFCURVE",
"44 268 OFFCURVE",
"44 236 CURVE SMOOTH",
"44 198 OFFCURVE",
"49 165 OFFCURVE",
"60 135 CURVE SMOOTH",
"71 105 OFFCURVE",
"88 79 OFFCURVE",
"108 58 CURVE SMOOTH",
"128 37 OFFCURVE",
"153 22 OFFCURVE",
"182 10 CURVE SMOOTH",
"211 -2 OFFCURVE",
"244 -8 OFFCURVE",
"280 -8 CURVE SMOOTH",
"316 -8 OFFCURVE",
"350 -2 OFFCURVE",
"380 10 CURVE SMOOTH",
"410 22 OFFCURVE",
"436 39 OFFCURVE",
"458 60 CURVE SMOOTH",
"480 81 OFFCURVE",
"496 106 OFFCURVE",
"508 134 CURVE SMOOTH",
"520 162 OFFCURVE",
"526 193 OFFCURVE",
"526 226 CURVE SMOOTH",
"526 260 OFFCURVE",
"522 290 OFFCURVE",
"510 316 CURVE SMOOTH",
"498 342 OFFCURVE",
"483 365 OFFCURVE",
"463 383 CURVE SMOOTH",
"443 401 OFFCURVE",
"422 414 OFFCURVE",
"396 424 CURVE SMOOTH",
"370 434 OFFCURVE",
"342 438 OFFCURVE",
"314 438 CURVE"
);
},
{
closed = 1;
nodes = (
"130 240 OFFCURVE",
"133 259 OFFCURVE",
"140 277 CURVE SMOOTH",
"147 295 OFFCURVE",
"157 311 OFFCURVE",
"171 325 CURVE SMOOTH",
"185 339 OFFCURVE",
"200 350 OFFCURVE",
"220 358 CURVE SMOOTH",
"240 366 OFFCURVE",
"262 370 OFFCURVE",
"286 370 CURVE SMOOTH",
"308 370 OFFCURVE",
"329 367 OFFCURVE",
"347 360 CURVE SMOOTH",
"365 353 OFFCURVE",
"381 343 OFFCURVE",
"395 330 CURVE SMOOTH",
"409 317 OFFCURVE",
"418 301 OFFCURVE",
"426 282 CURVE SMOOTH",
"434 263 OFFCURVE",
"438 242 OFFCURVE",
"438 218 CURVE SMOOTH",
"438 196 OFFCURVE",
"434 175 OFFCURVE",
"426 157 CURVE SMOOTH",
"418 139 OFFCURVE",
"408 123 OFFCURVE",
"394 109 CURVE SMOOTH",
"380 95 OFFCURVE",
"364 86 OFFCURVE",
"344 78 CURVE SMOOTH",
"324 70 OFFCURVE",
"303 66 OFFCURVE",
"279 66 CURVE SMOOTH",
"255 66 OFFCURVE",
"234 69 OFFCURVE",
"216 77 CURVE SMOOTH",
"198 85 OFFCURVE",
"182 94 OFFCURVE",
"169 108 CURVE SMOOTH",
"156 122 OFFCURVE",
"146 139 OFFCURVE",
"140 158 CURVE SMOOTH",
"134 177 OFFCURVE",
"130 197 OFFCURVE",
"130 220 CURVE SMOOTH"
);
}
);
width = 566;
},
{
layerId = "3F211455-7DB7-4737-9D97-BF0B219628E9";
paths = (
{
closed = 1;
nodes = (
"257 423 OFFCURVE",
"204 402 OFFCURVE",
"160 358 CURVE",
"184 399 OFFCURVE",
"193 407 OFFCURVE",
"212 432 CURVE SMOOTH",
"423 708 LINE",
"381 708 LINE SMOOTH",
"370 708 OFFCURVE",
"361 704 OFFCURVE",
"355 696 CURVE SMOOTH",
"163 436 LINE SMOOTH",
"114 370 OFFCURVE",
"73 300 OFFCURVE",
"73 225 CURVE SMOOTH",
"73 85 OFFCURVE",
"157 -8 OFFCURVE",
"295 -8 CURVE SMOOTH",
"429 -8 OFFCURVE",
"528 80 OFFCURVE",
"528 213 CURVE SMOOTH",
"528 337 OFFCURVE",
"443 423 OFFCURVE",
"319 423 CURVE SMOOTH"
);
},
{
closed = 1;
nodes = (
"119 313 OFFCURVE",
"204 386 OFFCURVE",
"305 386 CURVE SMOOTH",
"412 386 OFFCURVE",
"481 316 OFFCURVE",
"481 210 CURVE SMOOTH",
"481 107 OFFCURVE",
"407 32 OFFCURVE",
"294 32 CURVE SMOOTH",
"186 32 OFFCURVE",
"119 106 OFFCURVE",
"119 214 CURVE SMOOTH"
);
}
);
width = 594;
},
{
layerId = "394C4E3B-EB1E-48D6-87F8-186C851DDDB0";
paths = (
{
closed = 1;
nodes = (
"291 452 OFFCURVE",
"273 450 OFFCURVE",
"257 446 CURVE SMOOTH",
"241 442 OFFCURVE",
"226 436 OFFCURVE",
"212 429 CURVE",
"224 444 LINE SMOOTH",
"228 449 OFFCURVE",
"233 454 OFFCURVE",
"238 460 CURVE SMOOTH",
"452 723 LINE",
"342 723 LINE SMOOTH",
"327 723 OFFCURVE",
"314 720 OFFCURVE",
"302 714 CURVE SMOOTH",
"290 708 OFFCURVE",
"282 702 OFFCURVE",
"276 694 CURVE SMOOTH",
"104 462 LINE SMOOTH",
"75 423 OFFCURVE",
"53 387 OFFCURVE",
"39 351 CURVE SMOOTH",
"25 315 OFFCURVE",
"18 280 OFFCURVE",
"18 246 CURVE SMOOTH",
"18 208 OFFCURVE",
"24 173 OFFCURVE",
"36 142 CURVE SMOOTH",
"48 111 OFFCURVE",
"64 84 OFFCURVE",
"86 62 CURVE SMOOTH",
"108 40 OFFCURVE",
"133 22 OFFCURVE",
"164 10 CURVE SMOOTH",
"195 -2 OFFCURVE",
"229 -8 OFFCURVE",
"268 -8 CURVE SMOOTH",
"306 -8 OFFCURVE",
"340 -2 OFFCURVE",
"372 11 CURVE SMOOTH",
"404 24 OFFCURVE",
"431 41 OFFCURVE",
"453 63 CURVE SMOOTH",
"475 85 OFFCURVE",
"493 110 OFFCURVE",
"505 140 CURVE SMOOTH",
"517 170 OFFCURVE",
"524 201 OFFCURVE",
"524 235 CURVE SMOOTH",
"524 271 OFFCURVE",
"518 303 OFFCURVE",
"506 330 CURVE SMOOTH",
"494 357 OFFCURVE",
"478 379 OFFCURVE",
"458 397 CURVE SMOOTH",
"438 415 OFFCURVE",
"416 429 OFFCURVE",
"390 438 CURVE SMOOTH",
"364 447 OFFCURVE",
"337 452 OFFCURVE",
"310 452 CURVE SMOOTH"
);
},
{
closed = 1;
nodes = (
"137 246 OFFCURVE",
"140 263 OFFCURVE",
"146 279 CURVE SMOOTH",
"152 295 OFFCURVE",
"161 309 OFFCURVE",
"173 321 CURVE SMOOTH",
"185 333 OFFCURVE",
"198 342 OFFCURVE",
"214 349 CURVE SMOOTH",
"230 356 OFFCURVE",
"247 359 OFFCURVE",
"267 359 CURVE SMOOTH",
"287 359 OFFCURVE",
"305 356 OFFCURVE",
"321 350 CURVE SMOOTH",
"337 344 OFFCURVE",
"351 336 OFFCURVE",
"363 324 CURVE SMOOTH",
"375 312 OFFCURVE",
"384 298 OFFCURVE",
"390 282 CURVE SMOOTH",
"396 266 OFFCURVE",
"400 247 OFFCURVE",
"400 226 CURVE SMOOTH",
"400 207 OFFCURVE",
"397 189 OFFCURVE",
"390 173 CURVE SMOOTH",
"383 157 OFFCURVE",
"374 143 OFFCURVE",
"362 131 CURVE SMOOTH",
"350 119 OFFCURVE",
"337 110 OFFCURVE",
"320 103 CURVE SMOOTH",
"304 96 OFFCURVE",
"285 93 OFFCURVE",
"265 93 CURVE SMOOTH",
"244 93 OFFCURVE",
"226 97 OFFCURVE",
"210 103 CURVE SMOOTH",
"194 109 OFFCURVE",
"181 118 OFFCURVE",
"170 130 CURVE SMOOTH",
"159 142 OFFCURVE",
"151 156 OFFCURVE",
"145 172 CURVE SMOOTH",
"139 188 OFFCURVE",
"137 207 OFFCURVE",
"137 227 CURVE SMOOTH"
);
}
);
width = 540;
}
);
note = six;
unicode = 0036;
},
{
glyphname = seven;
layers = (
{
layerId = "C81CB9C3-2214-4415-8D0B-901773012C9D";
paths = (
{
closed = 1;
nodes = (
"64 716 LINE",
"64 542 LINE",
"113 542 LINE SMOOTH",
"125 542 OFFCURVE",
"131 547 OFFCURVE",
"133 559 CURVE",
"134 563 OFFCURVE",
"137 588 OFFCURVE",
"141 634 CURVE",
"461 634 LINE",
"451 623 OFFCURVE",
"442 609 OFFCURVE",
"432 591 CURVE",
"131 0 LINE",
"195 0 LINE SMOOTH",
"217 0 OFFCURVE",
"233 11 OFFCURVE",
"243 32 CURVE SMOOTH",
"540 630 LINE",
"548 644 OFFCURVE",
"551 660 OFFCURVE",
"551 676 CURVE SMOOTH",
"551 716 LINE"
);
}
);
width = 602;
},
{
layerId = "3F211455-7DB7-4737-9D97-BF0B219628E9";
paths = (
{
closed = 1;
nodes = (
"84 707 LINE",
"84 573 LINE",
"108 573 LINE SMOOTH",
"122 573 OFFCURVE",
"128 581 OFFCURVE",
"129 597 CURVE",
"133 664 LINE",
"504 664 LINE",
"163 0 LINE",
"195 0 LINE SMOOTH",
"209 0 OFFCURVE",
"217 6 OFFCURVE",
"224 18 CURVE",
"548 661 LINE",
"551 666 OFFCURVE",
"554 679 OFFCURVE",
"554 686 CURVE SMOOTH",
"554 708 LINE"
);
}
);
width = 598;
},
{
layerId = "394C4E3B-EB1E-48D6-87F8-186C851DDDB0";
paths = (
{
closed = 1;
nodes = (
"32 723 LINE",
"32 639 LINE",
"32 638 LINE",
"32 637 LINE",
"32 530 LINE",
"85 530 LINE SMOOTH",
"98 530 OFFCURVE",
"106 536 OFFCURVE",
"109 548 CURVE",
"111 558 OFFCURVE",
"112 579 OFFCURVE",
"115 611 CURVE",
"406 611 LINE",
"392 595 OFFCURVE",
"379 575 OFFCURVE",
"367 552 CURVE SMOOTH",
"87 0 LINE",
"177 0 LINE SMOOTH",
"195 0 OFFCURVE",
"209 4 OFFCURVE",
"219 12 CURVE SMOOTH",
"229 20 OFFCURVE",
"237 30 OFFCURVE",
"243 42 CURVE SMOOTH",
"516 606 LINE",
"519 613 OFFCURVE",
"524 621 OFFCURVE",
"527 631 CURVE SMOOTH",
"530 641 OFFCURVE",
"532 654 OFFCURVE",
"532 670 CURVE SMOOTH",
"532 723 LINE"
);
}
);
width = 551;
}
);
note = seven;
unicode = 0037;
},
{
glyphname = eight;
layers = (
{
layerId = "C81CB9C3-2214-4415-8D0B-901773012C9D";
paths = (
{
closed = 1;
nodes = (
"292 -8 LINE",
"328 -8 OFFCURVE",
"359 -4 OFFCURVE",
"389 6 CURVE SMOOTH",
"419 16 OFFCURVE",
"444 28 OFFCURVE",
"465 46 CURVE SMOOTH",
"486 64 OFFCURVE",
"502 85 OFFCURVE",
"514 110 CURVE SMOOTH",
"526 135 OFFCURVE",
"532 163 OFFCURVE",
"532 195 CURVE SMOOTH",
"532 241 OFFCURVE",
"520 279 OFFCURVE",
"496 309 CURVE SMOOTH",
"472 339 OFFCURVE",
"438 360 OFFCURVE",
"394 372 CURVE",
"432 386 OFFCURVE",
"459 408 OFFCURVE",
"479 436 CURVE SMOOTH",
"499 464 OFFCURVE",
"508 497 OFFCURVE",
"508 535 CURVE SMOOTH",
"508 561 OFFCURVE",
"502 586 OFFCURVE",
"492 609 CURVE SMOOTH",
"482 632 OFFCURVE",
"467 652 OFFCURVE",
"448 669 CURVE SMOOTH",
"429 686 OFFCURVE",
"406 699 OFFCURVE",
"380 709 CURVE SMOOTH",
"354 719 OFFCURVE",
"324 724 OFFCURVE",
"292 724 CURVE SMOOTH",
"260 724 OFFCURVE",
"229 719 OFFCURVE",
"203 709 CURVE SMOOTH",
"177 699 OFFCURVE",
"153 686 OFFCURVE",
"134 669 CURVE SMOOTH",
"115 652 OFFCURVE",
"100 632 OFFCURVE",
"90 609 CURVE SMOOTH",
"80 586 OFFCURVE",
"75 561 OFFCURVE",
"75 535 CURVE SMOOTH",
"75 497 OFFCURVE",
"85 463 OFFCURVE",
"104 435 CURVE SMOOTH",
"123 407 OFFCURVE",
"150 386 OFFCURVE",
"188 372 CURVE",
"144 360 OFFCURVE",
"110 338 OFFCURVE",
"86 308 CURVE SMOOTH",
"62 278 OFFCURVE",
"50 240 OFFCURVE",
"50 194 CURVE SMOOTH",
"50 162 OFFCURVE",
"55 134 OFFCURVE",
"67 109 CURVE SMOOTH",
"79 84 OFFCURVE",
"94 63 OFFCURVE",
"116 45 CURVE SMOOTH",
"138 27 OFFCURVE",
"163 14 OFFCURVE",
"193 4 CURVE SMOOTH",
"223 -6 OFFCURVE",
"254 -10 OFFCURVE",
"290 -10 CURVE"
);
},
{
closed = 1;
nodes = (
"290 62 LINE",
"266 62 OFFCURVE",
"246 65 OFFCURVE",
"228 71 CURVE SMOOTH",
"210 77 OFFCURVE",
"193 86 OFFCURVE",
"180 98 CURVE SMOOTH",
"167 110 OFFCURVE",
"157 125 OFFCURVE",
"150 141 CURVE SMOOTH",
"143 157 OFFCURVE",
"140 176 OFFCURVE",
"140 196 CURVE SMOOTH",
"140 220 OFFCURVE",
"144 240 OFFCURVE",
"152 258 CURVE SMOOTH",
"160 276 OFFCURVE",
"171 290 OFFCURVE",
"185 301 CURVE SMOOTH",
"199 312 OFFCURVE",
"215 320 OFFCURVE",
"233 325 CURVE SMOOTH",
"251 330 OFFCURVE",
"270 332 OFFCURVE",
"290 332 CURVE SMOOTH",
"310 332 OFFCURVE",
"328 330 OFFCURVE",
"346 325 CURVE SMOOTH",
"364 320 OFFCURVE",
"380 312 OFFCURVE",
"394 301 CURVE SMOOTH",
"408 290 OFFCURVE",
"419 276 OFFCURVE",
"427 258 CURVE SMOOTH",
"435 240 OFFCURVE",
"439 219 OFFCURVE",
"439 195 CURVE SMOOTH",
"439 175 OFFCURVE",
"435 156 OFFCURVE",
"428 140 CURVE SMOOTH",
"421 124 OFFCURVE",
"411 110 OFFCURVE",
"398 98 CURVE SMOOTH",
"385 86 OFFCURVE",
"370 76 OFFCURVE",
"352 70 CURVE SMOOTH",
"334 64 OFFCURVE",
"312 60 OFFCURVE",
"288 60 CURVE"
);
},
{
closed = 1;
nodes = (
"288 404 LINE",
"264 404 OFFCURVE",
"244 407 OFFCURVE",
"228 414 CURVE SMOOTH",
"212 421 OFFCURVE",
"198 431 OFFCURVE",
"188 443 CURVE SMOOTH",
"178 455 OFFCURVE",
"170 468 OFFCURVE",
"166 484 CURVE SMOOTH",
"162 500 OFFCURVE",
"158 516 OFFCURVE",
"158 532 CURVE SMOOTH",
"158 548 OFFCURVE",
"160 564 OFFCURVE",
"166 578 CURVE SMOOTH",
"172 592 OFFCURVE",
"180 606 OFFCURVE",
"191 617 CURVE SMOOTH",
"202 628 OFFCURVE",
"216 637 OFFCURVE",
"232 643 CURVE SMOOTH",
"248 649 OFFCURVE",
"266 652 OFFCURVE",
"288 652 CURVE SMOOTH",
"310 652 OFFCURVE",
"328 649 OFFCURVE",
"344 643 CURVE SMOOTH",
"360 637 OFFCURVE",
"373 628 OFFCURVE",
"384 617 CURVE SMOOTH",
"395 606 OFFCURVE",
"402 592 OFFCURVE",
"408 578 CURVE SMOOTH",
"414 564 OFFCURVE",
"416 548 OFFCURVE",
"416 532 CURVE SMOOTH",
"416 516 OFFCURVE",
"414 500 OFFCURVE",
"410 484 CURVE SMOOTH",
"406 468 OFFCURVE",
"397 455 OFFCURVE",
"387 443 CURVE SMOOTH",
"377 431 OFFCURVE",
"362 421 OFFCURVE",
"346 414 CURVE SMOOTH",
"330 407 OFFCURVE",
"310 404 OFFCURVE",
"286 404 CURVE"
);
}
);
width = 581;
},
{
layerId = "3F211455-7DB7-4737-9D97-BF0B219628E9";
paths = (
{
closed = 1;
nodes = (
"427 -8 OFFCURVE",
"527 62 OFFCURVE",
"527 187 CURVE SMOOTH",
"527 286 OFFCURVE",
"468 349 OFFCURVE",
"373 370 CURVE",
"452 391 OFFCURVE",
"502 454 OFFCURVE",
"502 535 CURVE SMOOTH",
"502 646 OFFCURVE",
"412 716 OFFCURVE",
"298 716 CURVE SMOOTH",
"180 716 OFFCURVE",
"93 645 OFFCURVE",
"93 535 CURVE SMOOTH",
"93 455 OFFCURVE",
"137 394 OFFCURVE",
"222 370 CURVE",
"126 350 OFFCURVE",
"68 286 OFFCURVE",
"68 187 CURVE SMOOTH",
"68 63 OFFCURVE",
"167 -8 OFFCURVE",
"297 -8 CURVE SMOOTH"
);
},
{
closed = 1;
nodes = (
"192 30 OFFCURVE",
"116 89 OFFCURVE",
"116 188 CURVE SMOOTH",
"116 292 OFFCURVE",
"191 348 OFFCURVE",
"297 348 CURVE SMOOTH",
"404 348 OFFCURVE",
"478 291 OFFCURVE",
"478 188 CURVE SMOOTH",
"478 89 OFFCURVE",
"401 30 OFFCURVE",
"298 30 CURVE SMOOTH"
);
},
{
closed = 1;
nodes = (
"203 387 OFFCURVE",
"139 445 OFFCURVE",
"139 534 CURVE SMOOTH",
"139 619 OFFCURVE",
"202 678 OFFCURVE",
"297 678 CURVE SMOOTH",
"390 678 OFFCURVE",
"455 622 OFFCURVE",
"455 534 CURVE SMOOTH",
"455 442 OFFCURVE",
"390 387 OFFCURVE",
"297 387 CURVE SMOOTH"
);
}
);
width = 595;
},
{
layerId = "394C4E3B-EB1E-48D6-87F8-186C851DDDB0";
paths = (
{
closed = 1;
nodes = (
"305 -8 OFFCURVE",
"339 -3 OFFCURVE",
"370 7 CURVE SMOOTH",
"401 17 OFFCURVE",
"428 32 OFFCURVE",
"450 50 CURVE SMOOTH",
"472 68 OFFCURVE",
"489 90 OFFCURVE",
"501 116 CURVE SMOOTH",
"513 142 OFFCURVE",
"519 171 OFFCURVE",
"519 203 CURVE SMOOTH",
"519 246 OFFCURVE",
"509 281 OFFCURVE",
"488 311 CURVE SMOOTH",
"467 341 OFFCURVE",
"434 363 OFFCURVE",
"390 377 CURVE",
"425 392 OFFCURVE",
"450 413 OFFCURVE",
"468 440 CURVE SMOOTH",
"486 467 OFFCURVE",
"495 499 OFFCURVE",
"495 537 CURVE SMOOTH",
"495 564 OFFCURVE",
"489 590 OFFCURVE",
"478 614 CURVE SMOOTH",
"467 638 OFFCURVE",
"452 657 OFFCURVE",
"432 675 CURVE SMOOTH",
"412 693 OFFCURVE",
"388 706 OFFCURVE",
"360 716 CURVE SMOOTH",
"332 726 OFFCURVE",
"301 731 OFFCURVE",
"268 731 CURVE SMOOTH",
"235 731 OFFCURVE",
"204 726 OFFCURVE",
"176 716 CURVE SMOOTH",
"148 706 OFFCURVE",
"124 693 OFFCURVE",
"104 675 CURVE SMOOTH",
"84 657 OFFCURVE",
"69 638 OFFCURVE",
"58 614 CURVE SMOOTH",
"47 590 OFFCURVE",
"41 564 OFFCURVE",
"41 537 CURVE SMOOTH",
"41 499 OFFCURVE",
"49 467 OFFCURVE",
"67 440 CURVE SMOOTH",
"85 413 OFFCURVE",
"111 392 OFFCURVE",
"146 377 CURVE",
"102 363 OFFCURVE",
"69 341 OFFCURVE",
"48 311 CURVE SMOOTH",
"27 281 OFFCURVE",
"17 246 OFFCURVE",
"17 203 CURVE SMOOTH",
"17 171 OFFCURVE",
"23 142 OFFCURVE",
"35 116 CURVE SMOOTH",
"47 90 OFFCURVE",
"64 68 OFFCURVE",
"86 50 CURVE SMOOTH",
"108 32 OFFCURVE",
"135 17 OFFCURVE",
"166 7 CURVE SMOOTH",
"197 -3 OFFCURVE",
"231 -8 OFFCURVE",
"268 -8 CURVE SMOOTH"
);
},
{
closed = 1;
nodes = (
"248 88 OFFCURVE",
"229 91 OFFCURVE",
"214 97 CURVE SMOOTH",
"199 103 OFFCURVE",
"186 112 OFFCURVE",
"176 122 CURVE SMOOTH",
"166 132 OFFCURVE",
"157 144 OFFCURVE",
"152 158 CURVE SMOOTH",
"147 172 OFFCURVE",
"144 188 OFFCURVE",
"144 205 CURVE SMOOTH",
"144 245 OFFCURVE",
"155 275 OFFCURVE",
"177 295 CURVE SMOOTH",
"199 315 OFFCURVE",
"229 326 OFFCURVE",
"268 326 CURVE SMOOTH",
"307 326 OFFCURVE",
"337 315 OFFCURVE",
"359 295 CURVE SMOOTH",
"381 275 OFFCURVE",
"392 245 OFFCURVE",
"392 205 CURVE SMOOTH",
"392 188 OFFCURVE",
"389 172 OFFCURVE",
"384 158 CURVE SMOOTH",
"379 144 OFFCURVE",
"371 132 OFFCURVE",
"360 122 CURVE",
"350 112 OFFCURVE",
"337 103 OFFCURVE",
"322 97 CURVE SMOOTH",
"307 91 OFFCURVE",
"288 88 OFFCURVE",
"268 88 CURVE SMOOTH"
);
},
{
closed = 1;
nodes = (
"248 422 OFFCURVE",
"232 426 OFFCURVE",
"218 432 CURVE SMOOTH",
"204 438 OFFCURVE",
"193 447 OFFCURVE",
"185 457 CURVE SMOOTH",
"177 467 OFFCURVE",
"171 479 OFFCURVE",
"167 493 CURVE SMOOTH",
"163 507 OFFCURVE",
"162 521 OFFCURVE",
"162 535 CURVE SMOOTH",
"162 549 OFFCURVE",
"164 562 OFFCURVE",
"168 574 CURVE SMOOTH",
"172 586 OFFCURVE",
"178 597 OFFCURVE",
"187 607 CURVE SMOOTH",
"196 617 OFFCURVE",
"208 624 OFFCURVE",
"221 630 CURVE SMOOTH",
"234 636 OFFCURVE",
"250 638 OFFCURVE",
"268 638 CURVE SMOOTH",
"286 638 OFFCURVE",
"303 636 OFFCURVE",
"316 630 CURVE SMOOTH",
"329 624 OFFCURVE",
"340 617 OFFCURVE",
"349 607 CURVE SMOOTH",
"358 597 OFFCURVE",
"364 586 OFFCURVE",
"368 574 CURVE SMOOTH",
"372 562 OFFCURVE",
"375 549 OFFCURVE",
"375 535 CURVE SMOOTH",
"375 521 OFFCURVE",
"373 507 OFFCURVE",
"369 493 CURVE",
"366 479 OFFCURVE",
"360 467 OFFCURVE",
"352 457 CURVE SMOOTH",
"344 447 OFFCURVE",
"333 438 OFFCURVE",
"319 432 CURVE SMOOTH",
"305 426 OFFCURVE",
"288 422 OFFCURVE",
"268 422 CURVE SMOOTH"
);
}
);
width = 537;
}
);
note = eight;
unicode = 0038;
},
{
glyphname = nine;
layers = (
{
layerId = "C81CB9C3-2214-4415-8D0B-901773012C9D";
paths = (
{
closed = 1;
nodes = (
"267 294 OFFCURVE",
"292 298 OFFCURVE",
"315 306 CURVE SMOOTH",
"338 314 OFFCURVE",
"359 324 OFFCURVE",
"377 338 CURVE",
"371 330 OFFCURVE",
"365 321 OFFCURVE",
"359 313 CURVE SMOOTH",
"353 305 OFFCURVE",
"345 296 OFFCURVE",
"337 286 CURVE SMOOTH",
"119 0 LINE",
"201 0 LINE SMOOTH",
"211 0 OFFCURVE",
"221 2 OFFCURVE",
"229 6 CURVE SMOOTH",
"237 10 OFFCURVE",
"243 16 OFFCURVE",
"247 22 CURVE SMOOTH",
"422 274 LINE SMOOTH",
"435 292 OFFCURVE",
"447 310 OFFCURVE",
"457 328 CURVE SMOOTH",
"467 346 OFFCURVE",
"475 362 OFFCURVE",
"483 380 CURVE SMOOTH",
"491 398 OFFCURVE",
"495 416 OFFCURVE",
"499 434 CURVE SMOOTH",
"503 452 OFFCURVE",
"505 473 OFFCURVE",
"505 493 CURVE SMOOTH",
"505 527 OFFCURVE",
"500 560 OFFCURVE",
"489 588 CURVE SMOOTH",
"478 616 OFFCURVE",
"463 641 OFFCURVE",
"443 661 CURVE SMOOTH",
"423 681 OFFCURVE",
"399 697 OFFCURVE",
"371 709 CURVE SMOOTH",
"343 721 OFFCURVE",
"311 726 OFFCURVE",
"277 726 CURVE SMOOTH",
"243 726 OFFCURVE",
"210 720 OFFCURVE",
"181 708 CURVE SMOOTH",
"152 696 OFFCURVE",
"128 680 OFFCURVE",
"107 660 CURVE SMOOTH",
"86 640 OFFCURVE",
"69 616 OFFCURVE",
"57 588 CURVE SMOOTH",
"45 560 OFFCURVE",
"40 532 OFFCURVE",
"40 500 CURVE SMOOTH",
"40 467 OFFCURVE",
"46 438 OFFCURVE",
"57 412 CURVE SMOOTH",
"68 386 OFFCURVE",
"83 366 OFFCURVE",
"101 348 CURVE SMOOTH",
"119 330 OFFCURVE",
"140 317 OFFCURVE",
"164 308 CURVE SMOOTH",
"188 299 OFFCURVE",
"214 294 OFFCURVE",
"241 294 CURVE SMOOTH"
);
},
{
closed = 1;
nodes = (
"419 504 LINE",
"419 486 OFFCURVE",
"415 467 OFFCURVE",
"409 450 CURVE SMOOTH",
"403 433 OFFCURVE",
"393 419 OFFCURVE",
"381 406 CURVE SMOOTH",
"369 393 OFFCURVE",
"353 382 OFFCURVE",
"335 374 CURVE SMOOTH",
"317 366 OFFCURVE",
"295 362 OFFCURVE",
"271 362 CURVE SMOOTH",
"249 362 OFFCURVE",
"230 366 OFFCURVE",
"212 372 CURVE SMOOTH",
"194 378 OFFCURVE",
"179 388 OFFCURVE",
"167 400 CURVE SMOOTH",
"155 412 OFFCURVE",
"145 428 OFFCURVE",
"139 446 CURVE SMOOTH",
"133 464 OFFCURVE",
"129 484 OFFCURVE",
"129 506 CURVE SMOOTH",
"129 527 OFFCURVE",
"133 546 OFFCURVE",
"140 564 CURVE SMOOTH",
"147 582 OFFCURVE",
"157 597 OFFCURVE",
"170 609 CURVE SMOOTH",
"183 621 OFFCURVE",
"199 631 OFFCURVE",
"217 638 CURVE SMOOTH",
"235 645 OFFCURVE",
"255 649 OFFCURVE",
"277 649 CURVE SMOOTH",
"298 649 OFFCURVE",
"316 645 OFFCURVE",
"334 638 CURVE SMOOTH",
"352 631 OFFCURVE",
"367 621 OFFCURVE",
"379 609 CURVE SMOOTH",
"391 597 OFFCURVE",
"402 581 OFFCURVE",
"409 563 CURVE SMOOTH",
"416 545 OFFCURVE",
"419 524 OFFCURVE",
"419 502 CURVE"
);
}
);
width = 549;
},
{
layerId = "3F211455-7DB7-4737-9D97-BF0B219628E9";
paths = (
{
closed = 1;
nodes = (
"327 301 OFFCURVE",
"385 324 OFFCURVE",
"425 368 CURVE",
"421 361 OFFCURVE",
"392 319 OFFCURVE",
"373 292 CURVE SMOOTH",
"165 0 LINE",
"207 0 LINE SMOOTH",
"218 0 OFFCURVE",
"227 4 OFFCURVE",
"232 12 CURVE",
"417 284 LINE SMOOTH",
"467 355 OFFCURVE",
"504 421 OFFCURVE",
"504 494 CURVE SMOOTH",
"504 622 OFFCURVE",
"417 716 OFFCURVE",
"291 716 CURVE SMOOTH",
"166 716 OFFCURVE",
"65 626 OFFCURVE",
"65 503 CURVE SMOOTH",
"65 388 OFFCURVE",
"143 301 OFFCURVE",
"266 301 CURVE SMOOTH"
);
},
{
closed = 1;
nodes = (
"458 411 OFFCURVE",
"381 338 OFFCURVE",
"279 338 CURVE SMOOTH",
"178 338 OFFCURVE",
"113 405 OFFCURVE",
"113 506 CURVE SMOOTH",
"113 604 OFFCURVE",
"183 676 OFFCURVE",
"290 676 CURVE SMOOTH",
"390 676 OFFCURVE",
"458 602 OFFCURVE",
"458 502 CURVE SMOOTH"
);
}
);
width = 578;
},
{
layerId = "394C4E3B-EB1E-48D6-87F8-186C851DDDB0";
paths = (
{
closed = 1;
nodes = (
"237 288 OFFCURVE",
"258 291 OFFCURVE",
"278 297 CURVE",
"298 302 OFFCURVE",
"316 310 OFFCURVE",
"333 321 CURVE",
"328 314 OFFCURVE",
"324 308 OFFCURVE",
"319 301 CURVE SMOOTH",
"314 294 OFFCURVE",
"309 287 OFFCURVE",
"303 280 CURVE SMOOTH",
"78 0 LINE",
"191 0 LINE SMOOTH",
"205 0 OFFCURVE",
"219 2 OFFCURVE",
"230 8 CURVE SMOOTH",
"241 14 OFFCURVE",
"249 20 OFFCURVE",
"255 28 CURVE SMOOTH",
"421 264 LINE SMOOTH",
"433 282 OFFCURVE",
"444 299 OFFCURVE",
"454 317 CURVE SMOOTH",
"464 335 OFFCURVE",
"473 353 OFFCURVE",
"480 371 CURVE SMOOTH",
"487 389 OFFCURVE",
"492 409 OFFCURVE",
"496 429 CURVE SMOOTH",
"500 449 OFFCURVE",
"502 471 OFFCURVE",
"502 493 CURVE SMOOTH",
"502 528 OFFCURVE",
"496 560 OFFCURVE",
"485 589 CURVE SMOOTH",
"474 618 OFFCURVE",
"458 643 OFFCURVE",
"437 664 CURVE SMOOTH",
"416 685 OFFCURVE",
"392 702 OFFCURVE",
"362 714 CURVE SMOOTH",
"332 726 OFFCURVE",
"299 731 OFFCURVE",
"262 731 CURVE SMOOTH",
"225 731 OFFCURVE",
"191 724 OFFCURVE",
"161 712 CURVE SMOOTH",
"131 700 OFFCURVE",
"105 683 OFFCURVE",
"83 662 CURVE SMOOTH",
"61 641 OFFCURVE",
"45 616 OFFCURVE",
"33 588 CURVE SMOOTH",
"21 560 OFFCURVE",
"15 528 OFFCURVE",
"15 496 CURVE SMOOTH",
"15 461 OFFCURVE",
"21 432 OFFCURVE",
"32 406 CURVE SMOOTH",
"43 380 OFFCURVE",
"58 359 OFFCURVE",
"77 341 CURVE SMOOTH",
"96 323 OFFCURVE",
"117 311 OFFCURVE",
"141 302 CURVE SMOOTH",
"165 293 OFFCURVE",
"190 288 OFFCURVE",
"215 288 CURVE SMOOTH"
);
},
{
closed = 1;
nodes = (
"383 488 OFFCURVE",
"381 471 OFFCURVE",
"375 456 CURVE SMOOTH",
"369 441 OFFCURVE",
"362 429 OFFCURVE",
"351 418 CURVE SMOOTH",
"340 407 OFFCURVE",
"328 398 OFFCURVE",
"312 392 CURVE SMOOTH",
"296 386 OFFCURVE",
"279 382 OFFCURVE",
"259 382 CURVE SMOOTH",
"221 382 OFFCURVE",
"191 393 OFFCURVE",
"170 414 CURVE SMOOTH",
"149 435 OFFCURVE",
"139 466 OFFCURVE",
"139 506 CURVE SMOOTH",
"139 524 OFFCURVE",
"141 541 OFFCURVE",
"147 556 CURVE SMOOTH",
"153 571 OFFCURVE",
"161 584 OFFCURVE",
"171 595 CURVE SMOOTH",
"181 606 OFFCURVE",
"194 615 OFFCURVE",
"209 621 CURVE SMOOTH",
"224 627 OFFCURVE",
"241 630 OFFCURVE",
"260 630 CURVE SMOOTH",
"278 630 OFFCURVE",
"295 628 OFFCURVE",
"310 622 CURVE SMOOTH",
"325 616 OFFCURVE",
"338 608 OFFCURVE",
"349 597 CURVE SMOOTH",
"360 586 OFFCURVE",
"369 574 OFFCURVE",
"375 558 CURVE SMOOTH",
"381 542 OFFCURVE",
"383 525 OFFCURVE",
"383 505 CURVE SMOOTH"
);
}
);
width = 521;
}
);
note = nine;
unicode = 0039;
},
{
glyphname = colon;
layers = (
{
layerId = "C81CB9C3-2214-4415-8D0B-901773012C9D";
paths = (
{
closed = 1;
nodes = (
"45 55 LINE",
"45 46 OFFCURVE",
"47 38 OFFCURVE",
"50 30 CURVE SMOOTH",
"53 22 OFFCURVE",
"57 16 OFFCURVE",
"63 10 CURVE SMOOTH",
"69 4 OFFCURVE",
"75 1 OFFCURVE",
"83 -2 CURVE SMOOTH",
"91 -5 OFFCURVE",
"99 -7 OFFCURVE",
"107 -7 CURVE SMOOTH",
"115 -7 OFFCURVE",
"123 -5 OFFCURVE",
"131 -2 CURVE SMOOTH",
"139 1 OFFCURVE",
"144 4 OFFCURVE",
"150 10 CURVE SMOOTH",
"156 16 OFFCURVE",
"160 22 OFFCURVE",
"163 30 CURVE SMOOTH",
"166 38 OFFCURVE",
"167 45 OFFCURVE",
"167 54 CURVE SMOOTH",
"167 62 OFFCURVE",
"166 70 OFFCURVE",
"163 78 CURVE SMOOTH",
"160 86 OFFCURVE",
"156 92 OFFCURVE",
"150 98 CURVE SMOOTH",
"144 104 OFFCURVE",
"139 108 OFFCURVE",
"131 112 CURVE SMOOTH",
"123 116 OFFCURVE",
"115 116 OFFCURVE",
"107 116 CURVE SMOOTH",
"99 116 OFFCURVE",
"91 116 OFFCURVE",
"83 112 CURVE SMOOTH",
"75 108 OFFCURVE",
"69 104 OFFCURVE",
"63 98 CURVE SMOOTH",
"57 92 OFFCURVE",
"53 86 OFFCURVE",
"50 78 CURVE SMOOTH",
"47 70 OFFCURVE",
"45 62 OFFCURVE",
"45 54 CURVE"
);
},
{
closed = 1;
nodes = (
"45 430 LINE",
"45 421 OFFCURVE",
"47 412 OFFCURVE",
"50 404 CURVE SMOOTH",
"53 396 OFFCURVE",
"57 391 OFFCURVE",
"63 385 CURVE SMOOTH",
"69 379 OFFCURVE",
"75 375 OFFCURVE",
"83 372 CURVE SMOOTH",
"91 369 OFFCURVE",
"99 368 OFFCURVE",
"107 368 CURVE SMOOTH",
"115 368 OFFCURVE",
"123 369 OFFCURVE",
"131 372 CURVE SMOOTH",
"139 375 OFFCURVE",
"144 379 OFFCURVE",
"150 385 CURVE SMOOTH",
"156 391 OFFCURVE",
"160 396 OFFCURVE",
"163 404 CURVE SMOOTH",
"166 412 OFFCURVE",
"167 420 OFFCURVE",
"167 429 CURVE SMOOTH",
"167 437 OFFCURVE",
"166 445 OFFCURVE",
"163 453 CURVE SMOOTH",
"160 461 OFFCURVE",
"156 466 OFFCURVE",
"150 472 CURVE SMOOTH",
"144 478 OFFCURVE",
"139 482 OFFCURVE",
"131 486 CURVE SMOOTH",
"123 490 OFFCURVE",
"115 491 OFFCURVE",
"107 491 CURVE SMOOTH",
"99 491 OFFCURVE",
"91 490 OFFCURVE",
"83 486 CURVE SMOOTH",
"75 482 OFFCURVE",
"69 478 OFFCURVE",
"63 472 CURVE SMOOTH",
"57 466 OFFCURVE",
"53 461 OFFCURVE",
"50 453 CURVE SMOOTH",
"47 445 OFFCURVE",
"45 437 OFFCURVE",
"45 429 CURVE"
);
}
);
width = 212;
},
{
layerId = "3F211455-7DB7-4737-9D97-BF0B219628E9";
paths = (
{
closed = 1;
nodes = (
"127 391 OFFCURVE",
"148 412 OFFCURVE",
"148 438 CURVE SMOOTH",
"148 463 OFFCURVE",
"127 484 OFFCURVE",
"102 484 CURVE SMOOTH",
"76 484 OFFCURVE",
"55 463 OFFCURVE",
"55 438 CURVE SMOOTH",
"55 412 OFFCURVE",
"76 391 OFFCURVE",
"102 391 CURVE SMOOTH"
);
},
{
closed = 1;
nodes = (
"127 -8 OFFCURVE",
"148 13 OFFCURVE",
"148 39 CURVE SMOOTH",
"148 64 OFFCURVE",
"127 85 OFFCURVE",
"102 85 CURVE SMOOTH",
"76 85 OFFCURVE",
"55 64 OFFCURVE",
"55 39 CURVE SMOOTH",
"55 13 OFFCURVE",
"76 -8 OFFCURVE",
"102 -8 CURVE SMOOTH"
);
}
);
width = 203;
},
{
layerId = "394C4E3B-EB1E-48D6-87F8-186C851DDDB0";
paths = (
{
closed = 1;
nodes = (
"25 57 OFFCURVE",
"27 47 OFFCURVE",
"31 38 CURVE SMOOTH",
"35 29 OFFCURVE",
"40 22 OFFCURVE",
"47 15 CURVE SMOOTH",
"54 8 OFFCURVE",
"62 3 OFFCURVE",
"71 -1 CURVE SMOOTH",
"80 -5 OFFCURVE",
"90 -7 OFFCURVE",
"101 -7 CURVE SMOOTH",
"111 -7 OFFCURVE",
"122 -5 OFFCURVE",
"131 -1 CURVE SMOOTH",
"140 3 OFFCURVE",
"148 8 OFFCURVE",
"155 15 CURVE SMOOTH",
"162 22 OFFCURVE",
"167 29 OFFCURVE",
"171 38 CURVE SMOOTH",
"175 47 OFFCURVE",
"177 57 OFFCURVE",
"177 68 CURVE SMOOTH",
"177 78 OFFCURVE",
"175 89 OFFCURVE",
"171 98 CURVE SMOOTH",
"167 107 OFFCURVE",
"162 115 OFFCURVE",
"155 122 CURVE SMOOTH",
"148 129 OFFCURVE",
"140 134 OFFCURVE",
"131 138 CURVE SMOOTH",
"122 142 OFFCURVE",
"111 144 OFFCURVE",
"101 144 CURVE SMOOTH",
"90 144 OFFCURVE",
"80 142 OFFCURVE",
"71 138 CURVE SMOOTH",
"62 134 OFFCURVE",
"54 129 OFFCURVE",
"47 122 CURVE SMOOTH",
"40 115 OFFCURVE",
"35 107 OFFCURVE",
"31 98 CURVE SMOOTH",
"27 89 OFFCURVE",
"25 78 OFFCURVE",
"25 68 CURVE SMOOTH"
);
},
{
closed = 1;
nodes = (
"25 413 OFFCURVE",
"27 404 OFFCURVE",
"31 395 CURVE SMOOTH",
"35 386 OFFCURVE",
"40 378 OFFCURVE",
"47 371 CURVE SMOOTH",
"54 364 OFFCURVE",
"62 359 OFFCURVE",
"71 355 CURVE SMOOTH",
"80 351 OFFCURVE",
"90 350 OFFCURVE",
"101 350 CURVE SMOOTH",
"111 350 OFFCURVE",
"122 351 OFFCURVE",
"131 355 CURVE SMOOTH",
"140 359 OFFCURVE",
"148 364 OFFCURVE",
"155 371 CURVE SMOOTH",
"162 378 OFFCURVE",
"167 386 OFFCURVE",
"171 395 CURVE SMOOTH",
"175 404 OFFCURVE",
"177 414 OFFCURVE",
"177 425 CURVE SMOOTH",
"177 435 OFFCURVE",
"175 445 OFFCURVE",
"171 454 CURVE SMOOTH",
"167 463 OFFCURVE",
"162 471 OFFCURVE",
"155 478 CURVE SMOOTH",
"148 485 OFFCURVE",
"140 490 OFFCURVE",
"131 494 CURVE SMOOTH",
"122 498 OFFCURVE",
"111 500 OFFCURVE",
"101 500 CURVE SMOOTH",
"90 500 OFFCURVE",
"80 498 OFFCURVE",
"71 494 CURVE SMOOTH",
"62 490 OFFCURVE",
"54 485 OFFCURVE",
"47 478 CURVE SMOOTH",
"40 471 OFFCURVE",
"35 463 OFFCURVE",
"31 454 CURVE SMOOTH",
"27 445 OFFCURVE",
"25 434 OFFCURVE",
"25 424 CURVE SMOOTH"
);
}
);
width = 202;
}
);
leftKerningGroup = semicolon;
note = colon;
rightKerningGroup = semicolon;
unicode = 003A;
},
{
glyphname = semicolon;
layers = (
{
layerId = "C81CB9C3-2214-4415-8D0B-901773012C9D";
paths = (
{
closed = 1;
nodes = (
"49 62 LINE",
"49 53 OFFCURVE",
"50 44 OFFCURVE",
"53 36 CURVE SMOOTH",
"56 28 OFFCURVE",
"60 23 OFFCURVE",
"65 17 CURVE SMOOTH",
"70 11 OFFCURVE",
"76 7 OFFCURVE",
"83 4 CURVE SMOOTH",
"90 1 OFFCURVE",
"99 0 OFFCURVE",
"107 0 CURVE SMOOTH",
"113 0 LINE",
"111 -11 OFFCURVE",
"107 -22 OFFCURVE",
"103 -32 CURVE SMOOTH",
"99 -42 OFFCURVE",
"94 -50 OFFCURVE",
"88 -58 CURVE SMOOTH",
"82 -66 OFFCURVE",
"77 -73 OFFCURVE",
"72 -79 CURVE SMOOTH",
"67 -85 OFFCURVE",
"63 -90 OFFCURVE",
"59 -94 CURVE SMOOTH",
"55 -98 OFFCURVE",
"52 -103 OFFCURVE",
"52 -107 CURVE SMOOTH",
"52 -113 OFFCURVE",
"55 -117 OFFCURVE",
"59 -121 CURVE SMOOTH",
"73 -136 LINE",
"88 -124 OFFCURVE",
"102 -109 OFFCURVE",
"114 -94 CURVE SMOOTH",
"126 -79 OFFCURVE",
"136 -64 OFFCURVE",
"144 -48 CURVE SMOOTH",
"152 -32 OFFCURVE",
"159 -16 OFFCURVE",
"163 0 CURVE SMOOTH",
"167 16 OFFCURVE",
"169 32 OFFCURVE",
"169 47 CURVE SMOOTH",
"169 57 OFFCURVE",
"167 66 OFFCURVE",
"165 74 CURVE SMOOTH",
"163 82 OFFCURVE",
"158 91 OFFCURVE",
"153 97 CURVE SMOOTH",
"148 103 OFFCURVE",
"142 108 OFFCURVE",
"134 112 CURVE SMOOTH",
"126 116 OFFCURVE",
"117 118 OFFCURVE",
"107 118 CURVE SMOOTH",
"99 118 OFFCURVE",
"91 116 OFFCURVE",
"83 113 CURVE SMOOTH",
"75 110 OFFCURVE",
"69 106 OFFCURVE",
"64 101 CURVE SMOOTH",
"59 96 OFFCURVE",
"55 90 OFFCURVE",
"52 83 CURVE SMOOTH",
"49 76 OFFCURVE",
"47 69 OFFCURVE",
"47 61 CURVE"
);
},
{
closed = 1;
nodes = (
"45 430 LINE",
"45 421 OFFCURVE",
"46 412 OFFCURVE",
"49 404 CURVE SMOOTH",
"52 396 OFFCURVE",
"56 391 OFFCURVE",
"62 385 CURVE SMOOTH",
"68 379 OFFCURVE",
"73 375 OFFCURVE",
"81 372 CURVE SMOOTH",
"89 369 OFFCURVE",
"97 368 OFFCURVE",
"105 368 CURVE SMOOTH",
"113 368 OFFCURVE",
"121 369 OFFCURVE",
"129 372 CURVE SMOOTH",
"137 375 OFFCURVE",
"143 379 OFFCURVE",
"149 385 CURVE SMOOTH",
"155 391 OFFCURVE",
"159 396 OFFCURVE",
"162 404 CURVE SMOOTH",
"165 412 OFFCURVE",
"167 420 OFFCURVE",
"167 429 CURVE SMOOTH",
"167 437 OFFCURVE",
"165 445 OFFCURVE",
"162 453 CURVE SMOOTH",
"159 461 OFFCURVE",
"155 466 OFFCURVE",
"149 472 CURVE SMOOTH",
"143 478 OFFCURVE",
"137 482 OFFCURVE",
"129 486 CURVE SMOOTH",
"121 490 OFFCURVE",
"113 491 OFFCURVE",
"105 491 CURVE SMOOTH",
"97 491 OFFCURVE",
"89 490 OFFCURVE",
"81 486 CURVE SMOOTH",
"73 482 OFFCURVE",
"68 478 OFFCURVE",
"62 472 CURVE SMOOTH",
"56 466 OFFCURVE",
"52 461 OFFCURVE",
"49 453 CURVE SMOOTH",
"46 445 OFFCURVE",
"45 437 OFFCURVE",
"45 429 CURVE"
);
}
);
width = 214;
},
{
layerId = "3F211455-7DB7-4737-9D97-BF0B219628E9";
paths = (
{
closed = 1;
nodes = (
"127 390 OFFCURVE",
"148 411 OFFCURVE",
"148 437 CURVE SMOOTH",
"148 462 OFFCURVE",
"127 483 OFFCURVE",
"102 483 CURVE SMOOTH",
"76 483 OFFCURVE",
"55 462 OFFCURVE",
"55 437 CURVE SMOOTH",
"55 411 OFFCURVE",
"76 390 OFFCURVE",
"102 390 CURVE SMOOTH"
);
},
{
closed = 1;
nodes = (
"131 85 OFFCURVE",
"103 85 CURVE SMOOTH",
"79 85 OFFCURVE",
"59 66 OFFCURVE",
"59 42 CURVE SMOOTH",
"59 18 OFFCURVE",
"79 -2 OFFCURVE",
"103 -2 CURVE SMOOTH",
"108 -2 OFFCURVE",
"113 -1 OFFCURVE",
"117 0 CURVE",
"116 -25 OFFCURVE",
"90 -77 OFFCURVE",
"66 -101 CURVE SMOOTH",
"60 -107 OFFCURVE",
"59 -113 OFFCURVE",
"65 -119 CURVE",
"73 -126 LINE",
"116 -83 OFFCURVE",
"148 -31 OFFCURVE",
"148 32 CURVE SMOOTH",
"148 62 OFFCURVE"
);
}
);
width = 203;
},
{
layerId = "394C4E3B-EB1E-48D6-87F8-186C851DDDB0";
paths = (
{
closed = 1;
nodes = (
"29 65 OFFCURVE",
"30 55 OFFCURVE",
"34 46 CURVE SMOOTH",
"38 37 OFFCURVE",
"42 30 OFFCURVE",
"48 23 CURVE SMOOTH",
"54 16 OFFCURVE",
"62 11 OFFCURVE",
"71 7 CURVE SMOOTH",
"80 3 OFFCURVE",
"89 2 OFFCURVE",
"99 2 CURVE",
"97 -8 OFFCURVE",
"93 -18 OFFCURVE",
"89 -27 CURVE SMOOTH",
"85 -36 OFFCURVE",
"80 -43 OFFCURVE",
"75 -51 CURVE SMOOTH",
"70 -59 OFFCURVE",
"64 -65 OFFCURVE",
"59 -71 CURVE SMOOTH",
"54 -77 OFFCURVE",
"49 -82 OFFCURVE",
"45 -86 CURVE SMOOTH",
"42 -89 OFFCURVE",
"40 -92 OFFCURVE",
"38 -95 CURVE SMOOTH",
"36 -98 OFFCURVE",
"35 -101 OFFCURVE",
"35 -104 CURVE SMOOTH",
"35 -111 OFFCURVE",
"39 -117 OFFCURVE",
"45 -122 CURVE",
"66 -142 LINE",
"84 -128 OFFCURVE",
"99 -113 OFFCURVE",
"113 -96 CURVE SMOOTH",
"127 -79 OFFCURVE",
"138 -62 OFFCURVE",
"147 -44 CURVE SMOOTH",
"156 -26 OFFCURVE",
"164 -10 OFFCURVE",
"169 8 CURVE SMOOTH",
"174 26 OFFCURVE",
"176 43 OFFCURVE",
"176 59 CURVE SMOOTH",
"176 70 OFFCURVE",
"174 81 OFFCURVE",
"171 91 CURVE SMOOTH",
"168 101 OFFCURVE",
"163 110 OFFCURVE",
"157 118 CURVE SMOOTH",
"151 126 OFFCURVE",
"143 133 OFFCURVE",
"134 137 CURVE SMOOTH",
"125 141 OFFCURVE",
"114 143 OFFCURVE",
"101 143 CURVE SMOOTH",
"90 143 OFFCURVE",
"80 142 OFFCURVE",
"71 138 CURVE SMOOTH",
"62 134 OFFCURVE",
"55 130 OFFCURVE",
"49 124 CURVE SMOOTH",
"43 118 OFFCURVE",
"38 110 OFFCURVE",
"34 102 CURVE SMOOTH",
"30 94 OFFCURVE",
"29 85 OFFCURVE",
"29 76 CURVE SMOOTH"
);
},
{
closed = 1;
nodes = (
"25 413 OFFCURVE",
"27 404 OFFCURVE",
"31 395 CURVE SMOOTH",
"35 386 OFFCURVE",
"40 378 OFFCURVE",
"47 371 CURVE SMOOTH",
"54 364 OFFCURVE",
"62 359 OFFCURVE",
"71 355 CURVE SMOOTH",
"80 351 OFFCURVE",
"90 350 OFFCURVE",
"101 350 CURVE SMOOTH",
"111 350 OFFCURVE",
"122 351 OFFCURVE",
"131 355 CURVE SMOOTH",
"140 359 OFFCURVE",
"148 364 OFFCURVE",
"155 371 CURVE SMOOTH",
"162 378 OFFCURVE",
"167 386 OFFCURVE",
"171 395 CURVE SMOOTH",
"175 404 OFFCURVE",
"177 413 OFFCURVE",
"177 424 CURVE SMOOTH",
"177 434 OFFCURVE",
"175 445 OFFCURVE",
"171 454 CURVE SMOOTH",
"167 463 OFFCURVE",
"162 471 OFFCURVE",
"155 478 CURVE SMOOTH",
"148 485 OFFCURVE",
"140 490 OFFCURVE",
"131 494 CURVE SMOOTH",
"122 498 OFFCURVE",
"111 500 OFFCURVE",
"101 500 CURVE SMOOTH",
"90 500 OFFCURVE",
"80 498 OFFCURVE",
"71 494 CURVE SMOOTH",
"62 490 OFFCURVE",
"54 485 OFFCURVE",
"47 478 CURVE SMOOTH",
"40 471 OFFCURVE",
"35 463 OFFCURVE",
"31 454 CURVE SMOOTH",
"27 445 OFFCURVE",
"25 434 OFFCURVE",
"25 424 CURVE SMOOTH"
);
}
);
width = 202;
}
);
leftKerningGroup = semicolon;
note = semicolon;
unicode = 003B;
},
{
glyphname = less;
layers = (
{
layerId = "C81CB9C3-2214-4415-8D0B-901773012C9D";
paths = (
{
closed = 1;
nodes = (
"55 355 LINE",
"55 318 LINE",
"443 117 LINE",
"443 181 LINE SMOOTH",
"443 187 OFFCURVE",
"441 192 OFFCURVE",
"439 196 CURVE SMOOTH",
"437 200 OFFCURVE",
"431 204 OFFCURVE",
"425 208 CURVE",
"201 322 LINE",
"195 326 OFFCURVE",
"187 328 OFFCURVE",
"179 330 CURVE SMOOTH",
"155 336 LINE",
"163 338 OFFCURVE",
"171 341 OFFCURVE",
"179 343 CURVE SMOOTH",
"187 345 OFFCURVE",
"195 348 OFFCURVE",
"201 352 CURVE",
"425 466 LINE",
"431 470 OFFCURVE",
"437 473 OFFCURVE",
"439 477 CURVE SMOOTH",
"441 481 OFFCURVE",
"443 486 OFFCURVE",
"443 492 CURVE SMOOTH",
"443 555 LINE"
);
}
);
width = 477;
},
{
layerId = "3F211455-7DB7-4737-9D97-BF0B219628E9";
paths = (
{
closed = 1;
nodes = (
"34 346 LINE",
"34 326 LINE",
"410 132 LINE",
"410 165 LINE SMOOTH",
"410 169 OFFCURVE",
"407 175 OFFCURVE",
"396 182 CURVE",
"120 323 LINE SMOOTH",
"110 328 OFFCURVE",
"98 332 OFFCURVE",
"84 335 CURVE",
"97 338 OFFCURVE",
"109 342 OFFCURVE",
"120 348 CURVE SMOOTH",
"396 488 LINE",
"400 490 OFFCURVE",
"410 496 OFFCURVE",
"410 506 CURVE SMOOTH",
"410 538 LINE"
);
}
);
width = 512;
},
{
layerId = "394C4E3B-EB1E-48D6-87F8-186C851DDDB0";
paths = (
{
closed = 1;
nodes = (
"31 362 LINE",
"31 312 LINE",
"427 105 LINE",
"427 193 LINE SMOOTH",
"427 200 OFFCURVE",
"426 205 OFFCURVE",
"423 211 CURVE SMOOTH",
"420 217 OFFCURVE",
"414 222 OFFCURVE",
"406 226 CURVE SMOOTH",
"225 319 LINE SMOOTH",
"217 323 OFFCURVE",
"208 326 OFFCURVE",
"200 329 CURVE SMOOTH",
"192 332 OFFCURVE",
"183 335 OFFCURVE",
"173 337 CURVE",
"183 339 OFFCURVE",
"192 342 OFFCURVE",
"200 345 CURVE SMOOTH",
"208 348 OFFCURVE",
"217 351 OFFCURVE",
"225 355 CURVE SMOOTH",
"406 448 LINE SMOOTH",
"414 452 OFFCURVE",
"420 456 OFFCURVE",
"423 462 CURVE",
"426 467 OFFCURVE",
"427 474 OFFCURVE",
"427 481 CURVE SMOOTH",
"427 568 LINE"
);
}
);
width = 493;
}
);
note = less;
unicode = 003C;
},
{
glyphname = equal;
layers = (
{
layerId = "C81CB9C3-2214-4415-8D0B-901773012C9D";
paths = (
{
closed = 1;
nodes = (
"68 287 LINE",
"68 220 LINE",
"498 220 LINE",
"498 287 LINE"
);
},
{
closed = 1;
nodes = (
"68 454 LINE",
"68 387 LINE",
"498 387 LINE",
"498 454 LINE"
);
}
);
width = 566;
},
{
layerId = "3F211455-7DB7-4737-9D97-BF0B219628E9";
paths = (
{
closed = 1;
nodes = (
"70 278 LINE",
"70 241 LINE",
"483 241 LINE",
"483 278 LINE"
);
},
{
closed = 1;
nodes = (
"70 434 LINE",
"70 398 LINE",
"483 398 LINE",
"483 434 LINE"
);
}
);
width = 553;
},
{
layerId = "394C4E3B-EB1E-48D6-87F8-186C851DDDB0";
paths = (
{
closed = 1;
nodes = (
"55 294 LINE",
"55 202 LINE",
"498 202 LINE",
"498 294 LINE"
);
},
{
closed = 1;
nodes = (
"55 470 LINE",
"55 378 LINE",
"498 378 LINE",
"498 470 LINE"
);
}
);
width = 553;
}
);
note = equal;
unicode = 003D;
},
{
glyphname = greater;
layers = (
{
layerId = "C81CB9C3-2214-4415-8D0B-901773012C9D";
paths = (
{
closed = 1;
nodes = (
"55 117 LINE",
"442 318 LINE",
"442 355 LINE",
"55 556 LINE",
"55 492 LINE SMOOTH",
"55 486 OFFCURVE",
"57 482 OFFCURVE",
"59 478 CURVE SMOOTH",
"61 474 OFFCURVE",
"67 470 OFFCURVE",
"73 466 CURVE",
"297 352 LINE",
"303 348 OFFCURVE",
"311 345 OFFCURVE",
"318 343 CURVE SMOOTH",
"325 341 OFFCURVE",
"333 338 OFFCURVE",
"341 336 CURVE",
"333 334 OFFCURVE",
"324 332 OFFCURVE",
"317 330 CURVE SMOOTH",
"310 328 OFFCURVE",
"303 325 OFFCURVE",
"297 321 CURVE",
"73 208 LINE",
"67 204 OFFCURVE",
"61 200 OFFCURVE",
"59 196 CURVE SMOOTH",
"57 192 OFFCURVE",
"55 186 OFFCURVE",
"55 180 CURVE SMOOTH"
);
}
);
width = 476;
},
{
layerId = "3F211455-7DB7-4737-9D97-BF0B219628E9";
paths = (
{
closed = 1;
nodes = (
"51 132 LINE",
"425 326 LINE",
"425 346 LINE",
"51 538 LINE",
"51 506 LINE SMOOTH",
"51 499 OFFCURVE",
"54 493 OFFCURVE",
"63 488 CURVE",
"341 348 LINE SMOOTH",
"352 342 OFFCURVE",
"364 339 OFFCURVE",
"376 336 CURVE",
"363 333 OFFCURVE",
"351 328 OFFCURVE",
"341 323 CURVE SMOOTH",
"63 183 LINE",
"56 179 OFFCURVE",
"51 174 OFFCURVE",
"51 165 CURVE SMOOTH"
);
}
);
width = 459;
},
{
layerId = "394C4E3B-EB1E-48D6-87F8-186C851DDDB0";
paths = (
{
closed = 1;
nodes = (
"66 105 LINE",
"462 312 LINE",
"462 362 LINE",
"66 568 LINE",
"66 480 LINE SMOOTH",
"66 473 OFFCURVE",
"68 468 OFFCURVE",
"71 462 CURVE SMOOTH",
"74 456 OFFCURVE",
"80 452 OFFCURVE",
"88 448 CURVE SMOOTH",
"269 355 LINE SMOOTH",
"277 351 OFFCURVE",
"285 348 OFFCURVE",
"293 345 CURVE SMOOTH",
"301 342 OFFCURVE",
"310 339 OFFCURVE",
"320 337 CURVE",
"300 332 OFFCURVE",
"284 326 OFFCURVE",
"269 319 CURVE",
"88 226 LINE SMOOTH",
"80 222 OFFCURVE",
"74 217 OFFCURVE",
"71 211 CURVE SMOOTH",
"68 205 OFFCURVE",
"66 200 OFFCURVE",
"66 193 CURVE SMOOTH"
);
}
);
width = 493;
}
);
note = greater;
unicode = 003E;
},
{
glyphname = question;
layers = (
{
layerId = "C81CB9C3-2214-4415-8D0B-901773012C9D";
paths = (
{
closed = 1;
nodes = (
"37 652 LINE",
"60 615 LINE",
"64 607 OFFCURVE",
"71 604 OFFCURVE",
"79 604 CURVE SMOOTH",
"83 604 OFFCURVE",
"89 606 OFFCURVE",
"95 611 CURVE SMOOTH",
"101 616 OFFCURVE",
"109 622 OFFCURVE",
"119 628 CURVE SMOOTH",
"129 634 OFFCURVE",
"141 639 OFFCURVE",
"155 644 CURVE SMOOTH",
"169 649 OFFCURVE",
"187 652 OFFCURVE",
"207 652 CURVE SMOOTH",
"222 652 OFFCURVE",
"236 649 OFFCURVE",
"249 645 CURVE SMOOTH",
"262 641 OFFCURVE",
"273 634 OFFCURVE",
"283 626 CURVE SMOOTH",
"293 618 OFFCURVE",
"300 608 OFFCURVE",
"306 596 CURVE SMOOTH",
"312 584 OFFCURVE",
"315 572 OFFCURVE",
"315 558 CURVE SMOOTH",
"315 538 OFFCURVE",
"311 520 OFFCURVE",
"303 506 CURVE SMOOTH",
"295 492 OFFCURVE",
"287 478 OFFCURVE",
"275 466 CURVE SMOOTH",
"263 454 OFFCURVE",
"250 445 OFFCURVE",
"237 435 CURVE SMOOTH",
"224 425 OFFCURVE",
"213 416 OFFCURVE",
"201 406 CURVE SMOOTH",
"189 396 OFFCURVE",
"180 387 OFFCURVE",
"172 376 CURVE SMOOTH",
"164 365 OFFCURVE",
"161 352 OFFCURVE",
"161 338 CURVE SMOOTH",
"161 333 LINE",
"167 250 LINE",
"227 250 LINE",
"237 326 LINE",
"239 337 OFFCURVE",
"243 347 OFFCURVE",
"251 356 CURVE SMOOTH",
"259 365 OFFCURVE",
"270 375 OFFCURVE",
"282 384 CURVE SMOOTH",
"294 393 OFFCURVE",
"306 402 OFFCURVE",
"320 412 CURVE SMOOTH",
"334 422 OFFCURVE",
"345 434 OFFCURVE",
"357 448 CURVE SMOOTH",
"369 462 OFFCURVE",
"378 478 OFFCURVE",
"386 496 CURVE SMOOTH",
"394 514 OFFCURVE",
"397 536 OFFCURVE",
"397 562 CURVE SMOOTH",
"397 587 OFFCURVE",
"393 610 OFFCURVE",
"383 630 CURVE SMOOTH",
"373 650 OFFCURVE",
"360 667 OFFCURVE",
"344 681 CURVE SMOOTH",
"328 695 OFFCURVE",
"307 706 OFFCURVE",
"285 714 CURVE SMOOTH",
"263 722 OFFCURVE",
"238 725 OFFCURVE",
"212 725 CURVE SMOOTH",
"192 725 OFFCURVE",
"174 723 OFFCURVE",
"157 719 CURVE SMOOTH",
"140 715 OFFCURVE",
"124 709 OFFCURVE",
"109 703 CURVE SMOOTH",
"94 697 OFFCURVE",
"79 688 OFFCURVE",
"67 680 CURVE SMOOTH",
"55 672 OFFCURVE",
"43 664 OFFCURVE",
"33 654 CURVE"
);
},
{
closed = 1;
nodes = (
"131 47 OFFCURVE",
"132 39 OFFCURVE",
"135 31 CURVE SMOOTH",
"138 23 OFFCURVE",
"143 18 OFFCURVE",
"149 12 CURVE SMOOTH",
"155 6 OFFCURVE",
"160 1 OFFCURVE",
"168 -2 CURVE SMOOTH",
"176 -5 OFFCURVE",
"184 -6 OFFCURVE",
"192 -6 CURVE SMOOTH",
"200 -6 OFFCURVE",
"208 -5 OFFCURVE",
"216 -2 CURVE SMOOTH",
"224 1 OFFCURVE",
"229 6 OFFCURVE",
"235 12 CURVE SMOOTH",
"241 18 OFFCURVE",
"246 23 OFFCURVE",
"249 31 CURVE SMOOTH",
"252 39 OFFCURVE",
"253 47 OFFCURVE",
"253 56 CURVE SMOOTH",
"253 64 OFFCURVE",
"252 72 OFFCURVE",
"249 80 CURVE SMOOTH",
"246 88 OFFCURVE",
"241 93 OFFCURVE",
"235 99 CURVE SMOOTH",
"229 105 OFFCURVE",
"224 108 OFFCURVE",
"216 112 CURVE SMOOTH",
"208 116 OFFCURVE",
"200 118 OFFCURVE",
"192 118 CURVE SMOOTH",
"184 118 OFFCURVE",
"176 116 OFFCURVE",
"168 112 CURVE SMOOTH",
"160 108 OFFCURVE",
"155 105 OFFCURVE",
"149 99 CURVE SMOOTH",
"143 93 OFFCURVE",
"138 88 OFFCURVE",
"135 80 CURVE SMOOTH",
"132 72 OFFCURVE",
"131 64 OFFCURVE",
"131 56 CURVE SMOOTH"
);
}
);
width = 435;
},
{
layerId = "3F211455-7DB7-4737-9D97-BF0B219628E9";
paths = (
{
closed = 1;
nodes = (
"45 632 LINE",
"52 622 OFFCURVE",
"63 624 OFFCURVE",
"71 629 CURVE SMOOTH",
"104 650 OFFCURVE",
"146 676 OFFCURVE",
"195 676 CURVE SMOOTH",
"264 676 OFFCURVE",
"325 635 OFFCURVE",
"325 562 CURVE SMOOTH",
"325 507 OFFCURVE",
"293 461 OFFCURVE",
"245 427 CURVE SMOOTH",
"202 397 OFFCURVE",
"165 368 OFFCURVE",
"165 331 CURVE SMOOTH",
"167 243 LINE",
"199 243 LINE",
"205 325 LINE SMOOTH",
"208 355 OFFCURVE",
"236 372 OFFCURVE",
"289 414 CURVE",
"341 451 OFFCURVE",
"370 502 OFFCURVE",
"370 564 CURVE SMOOTH",
"370 654 OFFCURVE",
"292 716 OFFCURVE",
"199 716 CURVE SMOOTH",
"141 716 OFFCURVE",
"81 692 OFFCURVE",
"35 646 CURVE"
);
},
{
closed = 1;
nodes = (
"208 -8 OFFCURVE",
"228 13 OFFCURVE",
"228 39 CURVE SMOOTH",
"228 64 OFFCURVE",
"208 85 OFFCURVE",
"182 85 CURVE SMOOTH",
"156 85 OFFCURVE",
"136 64 OFFCURVE",
"136 39 CURVE SMOOTH",
"136 13 OFFCURVE",
"156 -8 OFFCURVE",
"182 -8 CURVE SMOOTH"
);
}
);
width = 408;
},
{
layerId = "394C4E3B-EB1E-48D6-87F8-186C851DDDB0";
paths = (
{
closed = 1;
nodes = (
"54 606 LINE",
"59 596 OFFCURVE",
"68 591 OFFCURVE",
"80 591 CURVE SMOOTH",
"85 591 OFFCURVE",
"92 593 OFFCURVE",
"98 597 CURVE SMOOTH",
"104 601 OFFCURVE",
"112 606 OFFCURVE",
"121 611 CURVE SMOOTH",
"130 616 OFFCURVE",
"141 621 OFFCURVE",
"154 625 CURVE SMOOTH",
"167 629 OFFCURVE",
"183 632 OFFCURVE",
"202 632 CURVE SMOOTH",
"215 632 OFFCURVE",
"228 630 OFFCURVE",
"239 626 CURVE SMOOTH",
"250 622 OFFCURVE",
"260 617 OFFCURVE",
"268 610 CURVE SMOOTH",
"276 603 OFFCURVE",
"282 596 OFFCURVE",
"286 586 CURVE SMOOTH",
"290 576 OFFCURVE",
"293 566 OFFCURVE",
"293 554 CURVE SMOOTH",
"293 536 OFFCURVE",
"289 519 OFFCURVE",
"282 506 CURVE SMOOTH",
"275 493 OFFCURVE",
"265 482 OFFCURVE",
"254 471 CURVE",
"243 461 OFFCURVE",
"232 450 OFFCURVE",
"219 441 CURVE SMOOTH",
"206 432 OFFCURVE",
"194 424 OFFCURVE",
"183 414 CURVE",
"172 405 OFFCURVE",
"163 394 OFFCURVE",
"156 383 CURVE SMOOTH",
"149 372 OFFCURVE",
"145 360 OFFCURVE",
"145 345 CURVE SMOOTH",
"145 341 LINE",
"145 336 LINE",
"154 255 LINE",
"238 255 LINE",
"250 328 LINE SMOOTH",
"252 339 OFFCURVE",
"257 348 OFFCURVE",
"265 357 CURVE",
"273 365 OFFCURVE",
"283 374 OFFCURVE",
"295 383 CURVE SMOOTH",
"307 392 OFFCURVE",
"319 401 OFFCURVE",
"332 411 CURVE SMOOTH",
"345 421 OFFCURVE",
"358 432 OFFCURVE",
"369 446 CURVE SMOOTH",
"380 460 OFFCURVE",
"389 476 OFFCURVE",
"396 495 CURVE SMOOTH",
"403 513 OFFCURVE",
"408 535 OFFCURVE",
"408 560 CURVE SMOOTH",
"408 586 OFFCURVE",
"403 610 OFFCURVE",
"394 631 CURVE SMOOTH",
"385 652 OFFCURVE",
"371 670 OFFCURVE",
"354 685 CURVE SMOOTH",
"337 700 OFFCURVE",
"317 711 OFFCURVE",
"293 719 CURVE SMOOTH",
"269 727 OFFCURVE",
"243 731 OFFCURVE",
"214 731 CURVE SMOOTH",
"193 731 OFFCURVE",
"172 729 OFFCURVE",
"154 725 CURVE SMOOTH",
"136 721 OFFCURVE",
"119 717 OFFCURVE",
"103 710 CURVE SMOOTH",
"87 703 OFFCURVE",
"73 695 OFFCURVE",
"59 686 CURVE SMOOTH",
"45 677 OFFCURVE",
"33 668 OFFCURVE",
"22 658 CURVE"
);
},
{
closed = 1;
nodes = (
"116 57 OFFCURVE",
"118 47 OFFCURVE",
"122 38 CURVE SMOOTH",
"126 29 OFFCURVE",
"131 21 OFFCURVE",
"138 14 CURVE SMOOTH",
"145 7 OFFCURVE",
"153 3 OFFCURVE",
"162 -1 CURVE SMOOTH",
"171 -5 OFFCURVE",
"181 -7 OFFCURVE",
"192 -7 CURVE SMOOTH",
"202 -7 OFFCURVE",
"213 -5 OFFCURVE",
"222 -1 CURVE SMOOTH",
"231 3 OFFCURVE",
"239 7 OFFCURVE",
"246 14 CURVE SMOOTH",
"253 21 OFFCURVE",
"258 29 OFFCURVE",
"262 38 CURVE SMOOTH",
"266 47 OFFCURVE",
"268 57 OFFCURVE",
"268 68 CURVE SMOOTH",
"268 78 OFFCURVE",
"266 89 OFFCURVE",
"262 98 CURVE SMOOTH",
"258 107 OFFCURVE",
"253 115 OFFCURVE",
"246 122 CURVE SMOOTH",
"239 129 OFFCURVE",
"231 134 OFFCURVE",
"222 138 CURVE SMOOTH",
"213 142 OFFCURVE",
"202 144 OFFCURVE",
"192 144 CURVE SMOOTH",
"181 144 OFFCURVE",
"171 142 OFFCURVE",
"162 138 CURVE SMOOTH",
"153 134 OFFCURVE",
"145 128 OFFCURVE",
"138 121 CURVE SMOOTH",
"131 114 OFFCURVE",
"126 106 OFFCURVE",
"122 97 CURVE SMOOTH",
"118 88 OFFCURVE",
"116 78 OFFCURVE",
"116 68 CURVE SMOOTH"
);
}
);
width = 451;
}
);
note = question;
unicode = 003F;
},
{
glyphname = at;
layers = (
{
layerId = "C81CB9C3-2214-4415-8D0B-901773012C9D";
paths = (
{
closed = 1;
nodes = (
"584 93 LINE",
"612 93 OFFCURVE",
"638 100 OFFCURVE",
"662 112 CURVE SMOOTH",
"686 124 OFFCURVE",
"707 142 OFFCURVE",
"725 164 CURVE SMOOTH",
"743 186 OFFCURVE",
"757 214 OFFCURVE",
"767 244 CURVE SMOOTH",
"777 274 OFFCURVE",
"782 308 OFFCURVE",
"782 344 CURVE SMOOTH",
"782 380 OFFCURVE",
"778 412 OFFCURVE",
"769 442 CURVE SMOOTH",
"760 472 OFFCURVE",
"747 501 OFFCURVE",
"731 526 CURVE SMOOTH",
"715 551 OFFCURVE",
"696 573 OFFCURVE",
"674 592 CURVE SMOOTH",
"652 611 OFFCURVE",
"628 627 OFFCURVE",
"602 640 CURVE SMOOTH",
"576 653 OFFCURVE",
"549 663 OFFCURVE",
"519 669 CURVE SMOOTH",
"489 675 OFFCURVE",
"459 679 OFFCURVE",
"429 679 CURVE SMOOTH",
"393 679 OFFCURVE",
"358 674 OFFCURVE",
"325 664 CURVE SMOOTH",
"292 654 OFFCURVE",
"261 641 OFFCURVE",
"233 624 CURVE SMOOTH",
"205 607 OFFCURVE",
"179 587 OFFCURVE",
"155 563 CURVE SMOOTH",
"131 539 OFFCURVE",
"111 513 OFFCURVE",
"95 484 CURVE SMOOTH",
"79 455 OFFCURVE",
"65 424 OFFCURVE",
"56 390 CURVE SMOOTH",
"47 356 OFFCURVE",
"43 320 OFFCURVE",
"43 284 CURVE SMOOTH",
"43 220 OFFCURVE",
"53 164 OFFCURVE",
"74 114 CURVE SMOOTH",
"95 64 OFFCURVE",
"124 22 OFFCURVE",
"160 -12 CURVE SMOOTH",
"196 -46 OFFCURVE",
"239 -74 OFFCURVE",
"289 -92 CURVE SMOOTH",
"339 -110 OFFCURVE",
"391 -120 OFFCURVE",
"449 -120 CURVE SMOOTH",
"507 -120 OFFCURVE",
"558 -113 OFFCURVE",
"604 -99 CURVE SMOOTH",
"650 -85 OFFCURVE",
"689 -66 OFFCURVE",
"725 -42 CURVE",
"713 -10 LINE",
"709 -2 OFFCURVE",
"704 2 OFFCURVE",
"697 2 CURVE SMOOTH",
"693 2 OFFCURVE",
"689 1 OFFCURVE",
"684 -2 CURVE SMOOTH",
"656 -19 OFFCURVE",
"622 -33 OFFCURVE",
"583 -44 CURVE SMOOTH",
"544 -55 OFFCURVE",
"499 -60 OFFCURVE",
"449 -60 CURVE SMOOTH",
"401 -60 OFFCURVE",
"357 -52 OFFCURVE",
"315 -38 CURVE SMOOTH",
"273 -24 OFFCURVE",
"238 -2 OFFCURVE",
"207 27 CURVE SMOOTH",
"176 56 OFFCURVE",
"151 92 OFFCURVE",
"133 135 CURVE SMOOTH",
"115 178 OFFCURVE",
"106 228 OFFCURVE",
"106 284 CURVE SMOOTH",
"106 332 OFFCURVE",
"115 377 OFFCURVE",
"131 418 CURVE SMOOTH",
"147 459 OFFCURVE",
"170 494 OFFCURVE",
"199 524 CURVE SMOOTH",
"228 554 OFFCURVE",
"262 578 OFFCURVE",
"301 595 CURVE SMOOTH",
"340 612 OFFCURVE",
"383 620 OFFCURVE",
"427 620 CURVE SMOOTH",
"467 620 OFFCURVE",
"506 615 OFFCURVE",
"541 603 CURVE SMOOTH",
"576 591 OFFCURVE",
"606 574 OFFCURVE",
"632 551 CURVE SMOOTH",
"658 528 OFFCURVE",
"678 498 OFFCURVE",
"693 464 CURVE SMOOTH",
"708 430 OFFCURVE",
"716 390 OFFCURVE",
"716 344 CURVE SMOOTH",
"716 315 OFFCURVE",
"712 288 OFFCURVE",
"706 264 CURVE SMOOTH",
"700 240 OFFCURVE",
"690 219 OFFCURVE",
"679 202 CURVE SMOOTH",
"668 185 OFFCURVE",
"655 173 OFFCURVE",
"641 163 CURVE SMOOTH",
"627 153 OFFCURVE",
"611 149 OFFCURVE",
"595 149 CURVE SMOOTH",
"587 149 OFFCURVE",
"580 150 OFFCURVE",
"573 152 CURVE SMOOTH",
"566 154 OFFCURVE",
"560 156 OFFCURVE",
"555 160 CURVE SMOOTH",
"550 164 OFFCURVE",
"546 171 OFFCURVE",
"543 179 CURVE SMOOTH",
"540 187 OFFCURVE",
"538 197 OFFCURVE",
"538 209 CURVE SMOOTH",
"538 225 OFFCURVE",
"541 246 OFFCURVE",
"547 271 CURVE SMOOTH",
"594 452 LINE",
"579 458 OFFCURVE",
"563 462 OFFCURVE",
"546 466 CURVE SMOOTH",
"529 470 OFFCURVE",
"509 472 OFFCURVE",
"487 472 CURVE SMOOTH",
"445 472 OFFCURVE",
"409 464 OFFCURVE",
"377 450 CURVE SMOOTH",
"345 436 OFFCURVE",
"319 416 OFFCURVE",
"297 393 CURVE SMOOTH",
"275 370 OFFCURVE",
"259 344 OFFCURVE",
"248 315 CURVE SMOOTH",
"237 286 OFFCURVE",
"231 257 OFFCURVE",
"231 229 CURVE SMOOTH",
"231 209 OFFCURVE",
"234 191 OFFCURVE",
"239 175 CURVE SMOOTH",
"244 159 OFFCURVE",
"251 144 OFFCURVE",
"261 132 CURVE SMOOTH",
"271 120 OFFCURVE",
"284 111 OFFCURVE",
"298 104 CURVE SMOOTH",
"312 97 OFFCURVE",
"330 93 OFFCURVE",
"350 93 CURVE SMOOTH",
"376 93 OFFCURVE",
"401 98 OFFCURVE",
"423 110 CURVE SMOOTH",
"445 122 OFFCURVE",
"466 141 OFFCURVE",
"486 168 CURVE",
"490 142 OFFCURVE",
"501 122 OFFCURVE",
"517 110 CURVE SMOOTH",
"533 98 OFFCURVE",
"555 92 OFFCURVE",
"581 92 CURVE"
);
},
{
closed = 1;
nodes = (
"368 152 LINE",
"346 152 OFFCURVE",
"330 159 OFFCURVE",
"319 173 CURVE SMOOTH",
"308 187 OFFCURVE",
"303 206 OFFCURVE",
"303 230 CURVE SMOOTH",
"303 253 OFFCURVE",
"307 276 OFFCURVE",
"315 298 CURVE SMOOTH",
"323 320 OFFCURVE",
"335 339 OFFCURVE",
"350 356 CURVE SMOOTH",
"365 373 OFFCURVE",
"383 388 OFFCURVE",
"404 398 CURVE SMOOTH",
"425 408 OFFCURVE",
"448 413 OFFCURVE",
"473 413 CURVE SMOOTH",
"489 413 OFFCURVE",
"502 411 OFFCURVE",
"515 408 CURVE",
"477 261 LINE SMOOTH",
"471 239 OFFCURVE",
"465 221 OFFCURVE",
"457 207 CURVE SMOOTH",
"449 193 OFFCURVE",
"440 180 OFFCURVE",
"430 172 CURVE SMOOTH",
"420 164 OFFCURVE",
"409 158 OFFCURVE",
"399 154 CURVE SMOOTH",
"389 150 OFFCURVE",
"378 150 OFFCURVE",
"368 150 CURVE"
);
}
);
width = 825;
},
{
layerId = "3F211455-7DB7-4737-9D97-BF0B219628E9";
paths = (
{
closed = 1;
nodes = (
"692 94 OFFCURVE",
"763 209 OFFCURVE",
"763 339 CURVE SMOOTH",
"763 536 OFFCURVE",
"618 666 OFFCURVE",
"422 666 CURVE SMOOTH",
"213 666 OFFCURVE",
"48 495 OFFCURVE",
"48 274 CURVE SMOOTH",
"48 39 OFFCURVE",
"205 -119 OFFCURVE",
"440 -119 CURVE SMOOTH",
"539 -119 OFFCURVE",
"634 -95 OFFCURVE",
"712 -42 CURVE",
"704 -29 LINE SMOOTH",
"699 -20 OFFCURVE",
"690 -18 OFFCURVE",
"680 -24 CURVE",
"613 -67 OFFCURVE",
"526 -86 OFFCURVE",
"440 -86 CURVE SMOOTH",
"230 -86 OFFCURVE",
"84 55 OFFCURVE",
"84 274 CURVE SMOOTH",
"84 474 OFFCURVE",
"229 632 OFFCURVE",
"422 632 CURVE SMOOTH",
"605 632 OFFCURVE",
"728 520 OFFCURVE",
"728 339 CURVE SMOOTH",
"728 236 OFFCURVE",
"679 126 OFFCURVE",
"583 126 CURVE SMOOTH",
"540 126 OFFCURVE",
"517 144 OFFCURVE",
"517 196 CURVE SMOOTH",
"517 211 OFFCURVE",
"523 253 OFFCURVE",
"528 270 CURVE SMOOTH",
"574 444 LINE",
"555 454 OFFCURVE",
"514 462 OFFCURVE",
"482 462 CURVE SMOOTH",
"347 462 OFFCURVE",
"238 353 OFFCURVE",
"238 222 CURVE SMOOTH",
"238 152 OFFCURVE",
"273 96 OFFCURVE",
"348 96 CURVE SMOOTH",
"409 96 OFFCURVE",
"453 129 OFFCURVE",
"487 184 CURVE",
"489 126 OFFCURVE",
"519 94 OFFCURVE",
"577 94 CURVE SMOOTH"
);
},
{
closed = 1;
nodes = (
"305 129 OFFCURVE",
"277 168 OFFCURVE",
"277 223 CURVE SMOOTH",
"277 329 OFFCURVE",
"364 430 OFFCURVE",
"476 430 CURVE SMOOTH",
"500 430 OFFCURVE",
"505 428 OFFCURVE",
"530 422 CURVE",
"490 268 LINE SMOOTH",
"471 195 OFFCURVE",
"433 129 OFFCURVE",
"357 129 CURVE SMOOTH"
);
}
);
width = 811;
},
{
layerId = "394C4E3B-EB1E-48D6-87F8-186C851DDDB0";
paths = (
{
closed = 1;
nodes = (
"615 92 OFFCURVE",
"642 99 OFFCURVE",
"668 112 CURVE SMOOTH",
"694 125 OFFCURVE",
"716 143 OFFCURVE",
"735 166 CURVE SMOOTH",
"754 189 OFFCURVE",
"769 216 OFFCURVE",
"779 247 CURVE SMOOTH",
"789 278 OFFCURVE",
"795 312 OFFCURVE",
"795 348 CURVE SMOOTH",
"795 401 OFFCURVE",
"785 449 OFFCURVE",
"765 491 CURVE SMOOTH",
"745 533 OFFCURVE",
"718 569 OFFCURVE",
"684 599 CURVE SMOOTH",
"650 629 OFFCURVE",
"613 651 OFFCURVE",
"569 667 CURVE SMOOTH",
"525 683 OFFCURVE",
"480 691 OFFCURVE",
"433 691 CURVE SMOOTH",
"396 691 OFFCURVE",
"359 686 OFFCURVE",
"325 676 CURVE SMOOTH",
"291 666 OFFCURVE",
"259 653 OFFCURVE",
"230 635 CURVE SMOOTH",
"201 617 OFFCURVE",
"174 597 OFFCURVE",
"150 572 CURVE SMOOTH",
"126 547 OFFCURVE",
"106 520 OFFCURVE",
"89 490 CURVE SMOOTH",
"72 460 OFFCURVE",
"58 430 OFFCURVE",
"49 396 CURVE SMOOTH",
"40 362 OFFCURVE",
"35 328 OFFCURVE",
"35 292 CURVE SMOOTH",
"35 228 OFFCURVE",
"46 171 OFFCURVE",
"67 120 CURVE SMOOTH",
"88 69 OFFCURVE",
"117 26 OFFCURVE",
"155 -10 CURVE SMOOTH",
"193 -46 OFFCURVE",
"238 -73 OFFCURVE",
"289 -92 CURVE SMOOTH",
"340 -111 OFFCURVE",
"396 -120 OFFCURVE",
"456 -120 CURVE SMOOTH",
"515 -120 OFFCURVE",
"569 -113 OFFCURVE",
"615 -99 CURVE SMOOTH",
"661 -85 OFFCURVE",
"701 -67 OFFCURVE",
"736 -44 CURVE",
"719 1 LINE SMOOTH",
"715 12 OFFCURVE",
"709 17 OFFCURVE",
"699 17 CURVE SMOOTH",
"694 17 OFFCURVE",
"688 16 OFFCURVE",
"681 12 CURVE SMOOTH",
"669 5 OFFCURVE",
"656 -2 OFFCURVE",
"641 -8 CURVE SMOOTH",
"626 -14 OFFCURVE",
"608 -20 OFFCURVE",
"589 -25 CURVE SMOOTH",
"570 -30 OFFCURVE",
"550 -33 OFFCURVE",
"528 -36 CURVE SMOOTH",
"506 -39 OFFCURVE",
"482 -40 OFFCURVE",
"456 -40 CURVE SMOOTH",
"409 -40 OFFCURVE",
"366 -34 OFFCURVE",
"326 -20 CURVE SMOOTH",
"286 -6 OFFCURVE",
"251 15 OFFCURVE",
"221 43 CURVE SMOOTH",
"191 71 OFFCURVE",
"168 105 OFFCURVE",
"151 147 CURVE SMOOTH",
"134 189 OFFCURVE",
"126 237 OFFCURVE",
"126 292 CURVE SMOOTH",
"126 337 OFFCURVE",
"133 379 OFFCURVE",
"149 418 CURVE SMOOTH",
"165 457 OFFCURVE",
"185 490 OFFCURVE",
"213 519 CURVE SMOOTH",
"241 548 OFFCURVE",
"273 571 OFFCURVE",
"311 587 CURVE SMOOTH",
"349 603 OFFCURVE",
"389 612 OFFCURVE",
"433 612 CURVE SMOOTH",
"473 612 OFFCURVE",
"509 606 OFFCURVE",
"543 595 CURVE SMOOTH",
"577 584 OFFCURVE",
"606 567 OFFCURVE",
"630 545 CURVE SMOOTH",
"654 523 OFFCURVE",
"672 495 OFFCURVE",
"686 462 CURVE SMOOTH",
"700 429 OFFCURVE",
"707 391 OFFCURVE",
"707 348 CURVE SMOOTH",
"707 322 OFFCURVE",
"704 298 OFFCURVE",
"698 276 CURVE SMOOTH",
"692 254 OFFCURVE",
"685 234 OFFCURVE",
"676 218 CURVE SMOOTH",
"667 202 OFFCURVE",
"655 190 OFFCURVE",
"643 181 CURVE SMOOTH",
"631 172 OFFCURVE",
"617 168 OFFCURVE",
"603 168 CURVE SMOOTH",
"596 168 OFFCURVE",
"590 168 OFFCURVE",
"584 170 CURVE SMOOTH",
"578 172 OFFCURVE",
"573 174 OFFCURVE",
"569 178 CURVE SMOOTH",
"565 182 OFFCURVE",
"562 187 OFFCURVE",
"559 194 CURVE",
"557 201 OFFCURVE",
"555 210 OFFCURVE",
"555 220 CURVE SMOOTH",
"555 234 OFFCURVE",
"558 252 OFFCURVE",
"563 273 CURVE SMOOTH",
"611 458 LINE",
"594 465 OFFCURVE",
"576 472 OFFCURVE",
"558 476 CURVE SMOOTH",
"540 480 OFFCURVE",
"518 482 OFFCURVE",
"492 482 CURVE SMOOTH",
"462 482 OFFCURVE",
"435 478 OFFCURVE",
"411 471 CURVE SMOOTH",
"387 464 OFFCURVE",
"365 455 OFFCURVE",
"345 443 CURVE SMOOTH",
"325 431 OFFCURVE",
"308 418 OFFCURVE",
"294 402 CURVE SMOOTH",
"280 386 OFFCURVE",
"268 369 OFFCURVE",
"258 351 CURVE SMOOTH",
"248 333 OFFCURVE",
"241 314 OFFCURVE",
"236 294 CURVE SMOOTH",
"231 274 OFFCURVE",
"229 256 OFFCURVE",
"229 237 CURVE SMOOTH",
"229 216 OFFCURVE",
"231 197 OFFCURVE",
"236 179 CURVE SMOOTH",
"241 161 OFFCURVE",
"250 147 OFFCURVE",
"260 134 CURVE SMOOTH",
"270 121 OFFCURVE",
"283 111 OFFCURVE",
"299 104 CURVE SMOOTH",
"315 97 OFFCURVE",
"333 93 OFFCURVE",
"354 93 CURVE SMOOTH",
"379 93 OFFCURVE",
"403 98 OFFCURVE",
"425 108 CURVE SMOOTH",
"447 118 OFFCURVE",
"467 136 OFFCURVE",
"487 160 CURVE",
"494 136 OFFCURVE",
"506 119 OFFCURVE",
"524 108 CURVE SMOOTH",
"542 97 OFFCURVE",
"562 92 OFFCURVE",
"585 92 CURVE SMOOTH"
);
},
{
closed = 1;
nodes = (
"360 172 OFFCURVE",
"347 178 OFFCURVE",
"338 190 CURVE SMOOTH",
"329 202 OFFCURVE",
"324 219 OFFCURVE",
"324 240 CURVE SMOOTH",
"324 261 OFFCURVE",
"328 281 OFFCURVE",
"336 301 CURVE SMOOTH",
"344 321 OFFCURVE",
"354 339 OFFCURVE",
"367 354 CURVE SMOOTH",
"380 369 OFFCURVE",
"396 382 OFFCURVE",
"414 391 CURVE SMOOTH",
"432 400 OFFCURVE",
"451 404 OFFCURVE",
"472 404 CURVE SMOOTH",
"483 404 OFFCURVE",
"494 403 OFFCURVE",
"505 401 CURVE",
"468 260 LINE SMOOTH",
"464 243 OFFCURVE",
"459 229 OFFCURVE",
"452 218 CURVE SMOOTH",
"445 207 OFFCURVE",
"438 197 OFFCURVE",
"430 190 CURVE SMOOTH",
"422 183 OFFCURVE",
"413 179 OFFCURVE",
"404 176 CURVE SMOOTH",
"395 173 OFFCURVE",
"387 172 OFFCURVE",
"378 172 CURVE SMOOTH"
);
}
);
width = 830;
}
);
leftKerningGroup = O;
note = at;
rightKerningGroup = O;
unicode = 0040;
},
{
glyphname = A;
layers = (
{
anchors = (
{
name = bottom;
position = "{362, 0}";
},
{
name = ogonek;
position = "{671, 10}";
},
{
name = top;
position = "{362, 716}";
}
);
layerId = "C81CB9C3-2214-4415-8D0B-901773012C9D";
paths = (
{
closed = 1;
nodes = (
"671 68 LINE",
"412 716 LINE",
"314 716 LINE",
"54 68 LINE",
"14 56 LINE",
"6 54 OFFCURVE",
"1 49 OFFCURVE",
"1 40 CURVE SMOOTH",
"1 0 LINE",
"206 0 LINE",
"206 40 LINE SMOOTH",
"206 49 OFFCURVE",
"202 54 OFFCURVE",
"193 56 CURVE",
"152 68 LINE",
"208 212 LINE",
"517 212 LINE",
"573 68 LINE",
"532 56 LINE",
"523 54 OFFCURVE",
"518 49 OFFCURVE",
"518 40 CURVE SMOOTH",
"518 0 LINE",
"724 0 LINE",
"724 40 LINE SMOOTH",
"724 49 OFFCURVE",
"719 54 OFFCURVE",
"711 56 CURVE"
);
},
{
closed = 1;
nodes = (
"235 282 LINE",
"342 557 LINE SMOOTH",
"349 576 OFFCURVE",
"355 598 OFFCURVE",
"362 625 CURVE",
"370 598 OFFCURVE",
"377 575 OFFCURVE",
"384 557 CURVE",
"490 282 LINE"
);
}
);
width = 725;
},
{
anchors = (
{
name = bottom;
position = "{368, 0}";
},
{
name = ogonek;
position = "{741, 10}";
},
{
name = top;
position = "{368, 708}";
}
);
components = (
{
name = SerfiBottomSymmetrical;
transform = "{1, 0, 0, 1, 73, 0}";
},
{
name = SerfiBottomSymmetrical;
transform = "{1, 0, 0, 1, 621, 0}";
}
);
layerId = "3F211455-7DB7-4737-9D97-BF0B219628E9";
paths = (
{
closed = 1;
nodes = (
"108 0 LINE",
"198 232 LINE",
"540 232 LINE",
"630 0 LINE",
"686 0 LINE",
"396 708 LINE",
"369 708 LINE",
"342 708 LINE",
"52 0 LINE"
);
},
{
closed = 1;
nodes = (
"353 614 LINE",
"369 659 LINE",
"385 614 LINE",
"524 270 LINE",
"214 270 LINE"
);
}
);
width = 741;
},
{
anchors = (
{
name = bottom;
position = "{390, 0}";
},
{
name = ogonek;
position = "{715, 10}";
},
{
name = top;
position = "{379, 723}";
}
);
layerId = "394C4E3B-EB1E-48D6-87F8-186C851DDDB0";
paths = (
{
closed = 1;
nodes = (
"703 100 LINE",
"458 723 LINE",
"320 723 LINE",
"76 100 LINE",
"21 77 LINE",
"8 71 OFFCURVE",
"1 63 OFFCURVE",
"1 51 CURVE SMOOTH",
"1 0 LINE",
"245 0 LINE",
"245 51 LINE SMOOTH",
"245 63 OFFCURVE",
"238 71 OFFCURVE",
"225 77 CURVE",
"205 85 LINE",
"245 194 LINE",
"533 194 LINE",
"573 85 LINE",
"553 77 LINE",
"540 71 OFFCURVE",
"533 63 OFFCURVE",
"533 51 CURVE SMOOTH",
"533 0 LINE",
"777 0 LINE",
"777 51 LINE SMOOTH",
"777 63 OFFCURVE",
"771 72 OFFCURVE",
"758 77 CURVE"
);
},
{
closed = 1;
nodes = (
"362 513 LINE SMOOTH",
"371 538 OFFCURVE",
"379 567 OFFCURVE",
"389 599 CURVE",
"398 567 OFFCURVE",
"407 538 OFFCURVE",
"416 514 CURVE SMOOTH",
"499 289 LINE",
"280 289 LINE"
);
}
);
width = 778;
}
);
leftKerningGroup = A;
note = A;
rightKerningGroup = A;
unicode = 0041;
},
{
glyphname = B;
layers = (
{
anchors = (
{
name = bottom;
position = "{338, 0}";
},
{
name = top;
position = "{338, 716}";
}
);
layerId = "C81CB9C3-2214-4415-8D0B-901773012C9D";
paths = (
{
closed = 1;
nodes = (
"564 396 OFFCURVE",
"609 448 OFFCURVE",
"609 536 CURVE SMOOTH",
"609 663 OFFCURVE",
"506 716 OFFCURVE",
"357 716 CURVE SMOOTH",
"56 716 LINE",
"56 672 LINE SMOOTH",
"56 662 OFFCURVE",
"61 656 OFFCURVE",
"71 654 CURVE",
"128 642 LINE",
"128 74 LINE",
"71 62 LINE SMOOTH",
"61 60 OFFCURVE",
"56 54 OFFCURVE",
"56 44 CURVE SMOOTH",
"56 0 LINE",
"381 0 LINE SMOOTH",
"525 0 OFFCURVE",
"633 70 OFFCURVE",
"633 204 CURVE SMOOTH",
"633 292 OFFCURVE",
"581 347 OFFCURVE",
"475 368 CURVE"
);
},
{
closed = 1;
nodes = (
"225 638 LINE",
"357 638 LINE SMOOTH",
"455 638 OFFCURVE",
"513 606 OFFCURVE",
"513 516 CURVE SMOOTH",
"513 433 OFFCURVE",
"451 396 OFFCURVE",
"353 396 CURVE SMOOTH",
"225 396 LINE"
);
},
{
closed = 1;
nodes = (
"381 77 CURVE",
"225 77 LINE",
"225 326 LINE",
"380 326 LINE SMOOTH",
"473 326 OFFCURVE",
"537 292 OFFCURVE",
"537 206 CURVE SMOOTH",
"537 124 OFFCURVE",
"488 76 OFFCURVE"
);
}
);
width = 676;
},
{
anchors = (
{
name = top;
position = "{327, 708}";
}
);
components = (
{
name = SerfiBottomSymmetrical;
transform = "{-1, 0, 0, -1, 177, 708}";
},
{
name = SerfiBottomSymmetrical;
transform = "{1, 0, 0, 1, 131, 0}";
}
);
layerId = "3F211455-7DB7-4737-9D97-BF0B219628E9";
paths = (
{
closed = 1;
nodes = (
"372 0 LINE SMOOTH",
"472 0 OFFCURVE",
"559 32 OFFCURVE",
"595 112 CURVE SMOOTH",
"606 136 OFFCURVE",
"611 163 OFFCURVE",
"611 193 CURVE SMOOTH",
"611 293 OFFCURVE",
"542 347 OFFCURVE",
"437 362 CURVE",
"521 384 OFFCURVE",
"582 446 OFFCURVE",
"582 528 CURVE SMOOTH",
"582 611 OFFCURVE",
"539 673 OFFCURVE",
"451 696 CURVE SMOOTH",
"421 704 OFFCURVE",
"386 708 OFFCURVE",
"346 708 CURVE SMOOTH",
"143 708 LINE",
"143 0 LINE"
);
},
{
closed = 1;
nodes = (
"194 339 LINE",
"372 339 LINE SMOOTH",
"477 339 OFFCURVE",
"560 292 OFFCURVE",
"560 194 CURVE SMOOTH",
"560 91 OFFCURVE",
"488 41 OFFCURVE",
"371 41 CURVE SMOOTH",
"194 41 LINE"
);
},
{
closed = 1;
nodes = (
"194 668 LINE",
"346 668 LINE SMOOTH",
"459 668 OFFCURVE",
"531 628 OFFCURVE",
"531 523 CURVE SMOOTH",
"531 430 OFFCURVE",
"453 376 OFFCURVE",
"347 376 CURVE SMOOTH",
"194 376 LINE"
);
}
);
width = 655;
},
{
anchors = (
{
name = bottom;
position = "{356, 0}";
},
{
name = top;
position = "{356, 723}";
}
);
layerId = "394C4E3B-EB1E-48D6-87F8-186C851DDDB0";
paths = (
{
closed = 1;
nodes = (
"538 382 OFFCURVE",
"557 391 OFFCURVE",
"573 402 CURVE SMOOTH",
"589 413 OFFCURVE",
"602 424 OFFCURVE",
"613 438 CURVE SMOOTH",
"623 451 OFFCURVE",
"632 466 OFFCURVE",
"637 482 CURVE SMOOTH",
"642 498 OFFCURVE",
"644 514 OFFCURVE",
"644 531 CURVE SMOOTH",
"644 561 OFFCURVE",
"639 586 OFFCURVE",
"629 610 CURVE SMOOTH",
"619 634 OFFCURVE",
"604 654 OFFCURVE",
"582 671 CURVE SMOOTH",
"561 688 OFFCURVE",
"533 701 OFFCURVE",
"499 710 CURVE SMOOTH",
"465 719 OFFCURVE",
"425 723 OFFCURVE",
"378 723 CURVE SMOOTH",
"129 723 LINE",
"53 723 LINE",
"53 664 LINE SMOOTH",
"53 647 OFFCURVE",
"61 637 OFFCURVE",
"78 633 CURVE",
"79 633 OFFCURVE",
"81 632 OFFCURVE",
"84 632 CURVE SMOOTH",
"87 632 OFFCURVE",
"92 630 OFFCURVE",
"99 629 CURVE SMOOTH",
"106 628 OFFCURVE",
"117 626 OFFCURVE",
"129 624 CURVE",
"129 99 LINE",
"117 97 OFFCURVE",
"106 95 OFFCURVE",
"99 94 CURVE SMOOTH",
"92 93 OFFCURVE",
"87 91 OFFCURVE",
"84 91 CURVE SMOOTH",
"81 91 OFFCURVE",
"79 90 OFFCURVE",
"78 90 CURVE",
"61 86 OFFCURVE",
"53 76 OFFCURVE",
"53 59 CURVE SMOOTH",
"53 0 LINE",
"129 0 LINE",
"402 0 LINE SMOOTH",
"444 0 OFFCURVE",
"481 5 OFFCURVE",
"514 16 CURVE SMOOTH",
"547 27 OFFCURVE",
"574 41 OFFCURVE",
"596 60 CURVE SMOOTH",
"618 79 OFFCURVE",
"635 102 OFFCURVE",
"647 128 CURVE SMOOTH",
"659 154 OFFCURVE",
"665 182 OFFCURVE",
"665 213 CURVE SMOOTH",
"665 298 OFFCURVE",
"615 352 OFFCURVE",
"516 374 CURVE"
);
},
{
closed = 1;
nodes = (
"263 619 LINE",
"378 619 LINE SMOOTH",
"423 619 OFFCURVE",
"457 611 OFFCURVE",
"478 595 CURVE SMOOTH",
"499 579 OFFCURVE",
"510 553 OFFCURVE",
"510 515 CURVE SMOOTH",
"510 479 OFFCURVE",
"499 452 OFFCURVE",
"475 435 CURVE SMOOTH",
"451 418 OFFCURVE",
"417 410 OFFCURVE",
"371 410 CURVE SMOOTH",
"263 410 LINE"
);
},
{
closed = 1;
nodes = (
"521 160 OFFCURVE",
"513 148 OFFCURVE",
"503 138 CURVE SMOOTH",
"493 128 OFFCURVE",
"480 120 OFFCURVE",
"463 114 CURVE SMOOTH",
"446 108 OFFCURVE",
"425 105 OFFCURVE",
"400 105 CURVE SMOOTH",
"263 105 LINE",
"263 317 LINE",
"399 317 LINE SMOOTH",
"423 317 OFFCURVE",
"443 315 OFFCURVE",
"460 310 CURVE SMOOTH",
"477 305 OFFCURVE",
"490 299 OFFCURVE",
"501 290 CURVE SMOOTH",
"512 281 OFFCURVE",
"519 270 OFFCURVE",
"524 258 CURVE SMOOTH",
"529 245 OFFCURVE",
"532 232 OFFCURVE",
"532 216 CURVE SMOOTH",
"532 201 OFFCURVE",
"530 186 OFFCURVE",
"525 173 CURVE"
);
}
);
width = 705;
}
);
note = B;
rightKerningGroup = B;
unicode = 0042;
},
{
glyphname = C;
layers = (
{
anchors = (
{
name = bottom;
position = "{339, 0}";
},
{
name = top;
position = "{389, 716}";
}
);
layerId = "C81CB9C3-2214-4415-8D0B-901773012C9D";
paths = (
{
closed = 1;
nodes = (
"537 708 OFFCURVE",
"464 725 OFFCURVE",
"409 724 CURVE",
"299 724 OFFCURVE",
"209 690 OFFCURVE",
"143 622 CURVE SMOOTH",
"77 554 OFFCURVE",
"43 466 OFFCURVE",
"43 358 CURVE SMOOTH",
"43 149 OFFCURVE",
"172 -8 OFFCURVE",
"385 -8 CURVE SMOOTH",
"495 -8 OFFCURVE",
"581 28 OFFCURVE",
"643 100 CURVE",
"605 142 LINE",
"598 149 OFFCURVE",
"587 152 OFFCURVE",
"573 140 CURVE",
"520 91 OFFCURVE",
"464 76 OFFCURVE",
"390 76 CURVE SMOOTH",
"238 76 OFFCURVE",
"141 192 OFFCURVE",
"141 358 CURVE SMOOTH",
"141 444 OFFCURVE",
"166 513 OFFCURVE",
"214 565 CURVE SMOOTH",
"290 645 OFFCURVE",
"401 662 OFFCURVE",
"551 614 CURVE",
"559 524 LINE",
"561 512 OFFCURVE",
"569 506 OFFCURVE",
"581 506 CURVE SMOOTH",
"629 506 LINE",
"629 674 LINE"
);
}
);
width = 682;
},
{
anchors = (
{
name = bottom;
position = "{333, 0}";
},
{
name = top;
position = "{394, 708}";
}
);
components = (
{
name = SerifUpLeft;
transform = "{-1, 0, 0, -1, 620, 665}";
}
);
layerId = "3F211455-7DB7-4737-9D97-BF0B219628E9";
paths = (
{
closed = 1;
nodes = (
"536 699 OFFCURVE",
"460 715 OFFCURVE",
"394 715 CURVE SMOOTH",
"188 715 OFFCURVE",
"48 569 OFFCURVE",
"48 354 CURVE SMOOTH",
"48 146 OFFCURVE",
"177 -8 OFFCURVE",
"380 -8 CURVE SMOOTH",
"479 -8 OFFCURVE",
"566 24 OFFCURVE",
"633 94 CURVE",
"613 115 LINE SMOOTH",
"607 121 OFFCURVE",
"601 119 OFFCURVE",
"595 114 CURVE",
"534 58 OFFCURVE",
"469 36 OFFCURVE",
"384 36 CURVE SMOOTH",
"211 36 OFFCURVE",
"101 166 OFFCURVE",
"101 354 CURVE SMOOTH",
"101 539 OFFCURVE",
"213 671 OFFCURVE",
"394 671 CURVE SMOOTH",
"460 671 OFFCURVE",
"523 657 OFFCURVE",
"603 624 CURVE",
"620 665 LINE"
);
}
);
width = 675;
},
{
anchors = (
{
name = bottom;
position = "{340, 0}";
},
{
name = top;
position = "{370, 723}";
}
);
layerId = "394C4E3B-EB1E-48D6-87F8-186C851DDDB0";
paths = (
{
closed = 1;
nodes = (
"633 495 LINE",
"633 679 LINE",
"542 714 OFFCURVE",
"466 731 OFFCURVE",
"406 731 CURVE SMOOTH",
"351 731 OFFCURVE",
"300 722 OFFCURVE",
"255 704 CURVE SMOOTH",
"209 686 OFFCURVE",
"171 660 OFFCURVE",
"138 627 CURVE SMOOTH",
"105 594 OFFCURVE",
"80 556 OFFCURVE",
"62 511 CURVE SMOOTH",
"44 466 OFFCURVE",
"35 415 OFFCURVE",
"35 361 CURVE SMOOTH",
"35 307 OFFCURVE",
"43 258 OFFCURVE",
"59 213 CURVE SMOOTH",
"75 168 OFFCURVE",
"99 129 OFFCURVE",
"129 96 CURVE SMOOTH",
"159 63 OFFCURVE",
"196 38 OFFCURVE",
"239 20 CURVE SMOOTH",
"282 2 OFFCURVE",
"329 -8 OFFCURVE",
"383 -8 CURVE SMOOTH",
"443 -8 OFFCURVE",
"495 2 OFFCURVE",
"538 21 CURVE SMOOTH",
"581 40 OFFCURVE",
"617 68 OFFCURVE",
"646 104 CURVE",
"593 162 LINE",
"588 168 OFFCURVE",
"581 170 OFFCURVE",
"574 170 CURVE SMOOTH",
"570 170 OFFCURVE",
"566 170 OFFCURVE",
"562 168 CURVE SMOOTH",
"558 166 OFFCURVE",
"554 164 OFFCURVE",
"551 161 CURVE",
"540 151 OFFCURVE",
"529 142 OFFCURVE",
"518 135 CURVE SMOOTH",
"507 128 OFFCURVE",
"495 122 OFFCURVE",
"483 118 CURVE SMOOTH",
"471 114 OFFCURVE",
"457 111 OFFCURVE",
"442 109 CURVE SMOOTH",
"427 107 OFFCURVE",
"410 106 OFFCURVE",
"392 106 CURVE SMOOTH",
"361 106 OFFCURVE",
"333 111 OFFCURVE",
"306 123 CURVE SMOOTH",
"279 135 OFFCURVE",
"256 151 OFFCURVE",
"236 173 CURVE SMOOTH",
"216 195 OFFCURVE",
"202 221 OFFCURVE",
"190 253 CURVE SMOOTH",
"178 285 OFFCURVE",
"172 320 OFFCURVE",
"172 361 CURVE SMOOTH",
"172 400 OFFCURVE",
"178 436 OFFCURVE",
"190 468 CURVE SMOOTH",
"202 500 OFFCURVE",
"218 526 OFFCURVE",
"238 548 CURVE SMOOTH",
"258 570 OFFCURVE",
"282 587 OFFCURVE",
"311 599 CURVE SMOOTH",
"340 611 OFFCURVE",
"371 616 OFFCURVE",
"405 616 CURVE SMOOTH",
"443 616 OFFCURVE",
"488 609 OFFCURVE",
"543 593 CURVE",
"547 549 OFFCURVE",
"550 522 OFFCURVE",
"552 513 CURVE SMOOTH",
"555 501 OFFCURVE",
"562 495 OFFCURVE",
"575 495 CURVE SMOOTH"
);
}
);
width = 677;
}
);
leftKerningGroup = C;
note = C;
unicode = 0043;
},
{
glyphname = D;
layers = (
{
anchors = (
{
name = bottom;
position = "{394, 0}";
},
{
name = center;
position = "{394, 358}";
},
{
name = top;
position = "{394, 716}";
}
);
layerId = "C81CB9C3-2214-4415-8D0B-901773012C9D";
paths = (
{
closed = 1;
nodes = (
"740 568 OFFCURVE",
"605 716 OFFCURVE",
"387 716 CURVE SMOOTH",
"56 716 LINE",
"56 674 LINE SMOOTH",
"56 664 OFFCURVE",
"62 657 OFFCURVE",
"72 655 CURVE",
"128 643 LINE",
"128 72 LINE",
"72 61 LINE SMOOTH",
"62 59 OFFCURVE",
"56 52 OFFCURVE",
"56 42 CURVE SMOOTH",
"56 0 LINE",
"387 0 LINE SMOOTH",
"600 0 OFFCURVE",
"740 145 OFFCURVE",
"740 358 CURVE SMOOTH"
);
},
{
closed = 1;
nodes = (
"640 187 OFFCURVE",
"549 78 OFFCURVE",
"387 78 CURVE SMOOTH",
"226 78 LINE",
"226 638 LINE",
"387 638 LINE SMOOTH",
"551 638 OFFCURVE",
"640 525 OFFCURVE",
"640 358 CURVE SMOOTH"
);
}
);
width = 783;
},
{
anchors = (
{
name = bottom;
position = "{388, 0}";
},
{
name = center;
position = "{388, 354}";
},
{
name = top;
position = "{388, 708}";
}
);
layerId = "3F211455-7DB7-4737-9D97-BF0B219628E9";
paths = (
{
closed = 1;
nodes = (
"726 560 OFFCURVE",
"598 708 OFFCURVE",
"388 708 CURVE SMOOTH",
"58 708 LINE",
"58 689 LINE SMOOTH",
"58 678 OFFCURVE",
"65 672 OFFCURVE",
"78 671 CURVE",
"143 669 LINE",
"143 40 LINE",
"78 38 LINE",
"65 37 OFFCURVE",
"58 31 OFFCURVE",
"58 20 CURVE SMOOTH",
"58 0 LINE",
"143 0 LINE",
"388 0 LINE SMOOTH",
"598 0 OFFCURVE",
"726 145 OFFCURVE",
"726 354 CURVE SMOOTH"
);
},
{
closed = 1;
nodes = (
"673 171 OFFCURVE",
"573 41 OFFCURVE",
"388 41 CURVE SMOOTH",
"194 41 LINE",
"194 667 LINE",
"388 667 LINE SMOOTH",
"570 667 OFFCURVE",
"673 539 OFFCURVE",
"673 354 CURVE SMOOTH"
);
}
);
width = 774;
},
{
anchors = (
{
name = bottom;
position = "{404, 0}";
},
{
name = center;
position = "{404, 362}";
},
{
name = top;
position = "{404, 723}";
}
);
layerId = "394C4E3B-EB1E-48D6-87F8-186C851DDDB0";
paths = (
{
closed = 1;
nodes = (
"715 552 OFFCURVE",
"691 590 OFFCURVE",
"659 622 CURVE SMOOTH",
"627 654 OFFCURVE",
"588 678 OFFCURVE",
"543 696 CURVE SMOOTH",
"498 714 OFFCURVE",
"449 723 OFFCURVE",
"394 723 CURVE SMOOTH",
"129 723 LINE",
"53 723 LINE",
"53 664 LINE SMOOTH",
"53 647 OFFCURVE",
"61 637 OFFCURVE",
"78 633 CURVE",
"79 633 OFFCURVE",
"81 632 OFFCURVE",
"84 632 CURVE SMOOTH",
"87 632 OFFCURVE",
"92 630 OFFCURVE",
"99 629 CURVE SMOOTH",
"106 628 OFFCURVE",
"117 626 OFFCURVE",
"129 624 CURVE",
"129 99 LINE",
"117 97 OFFCURVE",
"106 95 OFFCURVE",
"99 94 CURVE SMOOTH",
"92 93 OFFCURVE",
"87 91 OFFCURVE",
"84 91 CURVE SMOOTH",
"81 91 OFFCURVE",
"79 90 OFFCURVE",
"78 90 CURVE",
"61 86 OFFCURVE",
"53 76 OFFCURVE",
"53 59 CURVE SMOOTH",
"53 0 LINE",
"129 0 LINE",
"394 0 LINE SMOOTH",
"449 0 OFFCURVE",
"498 9 OFFCURVE",
"543 27 CURVE SMOOTH",
"588 45 OFFCURVE",
"627 69 OFFCURVE",
"659 101 CURVE SMOOTH",
"691 133 OFFCURVE",
"715 172 OFFCURVE",
"733 216 CURVE SMOOTH",
"751 260 OFFCURVE",
"760 309 OFFCURVE",
"760 362 CURVE SMOOTH",
"760 415 OFFCURVE",
"751 464 OFFCURVE",
"733 508 CURVE SMOOTH"
);
},
{
closed = 1;
nodes = (
"595 223 OFFCURVE",
"581 197 OFFCURVE",
"561 175 CURVE SMOOTH",
"541 153 OFFCURVE",
"517 137 OFFCURVE",
"489 125 CURVE SMOOTH",
"461 113 OFFCURVE",
"429 107 OFFCURVE",
"394 107 CURVE SMOOTH",
"264 107 LINE",
"264 616 LINE",
"394 616 LINE SMOOTH",
"429 616 OFFCURVE",
"461 610 OFFCURVE",
"489 598 CURVE SMOOTH",
"517 586 OFFCURVE",
"541 570 OFFCURVE",
"561 548 CURVE SMOOTH",
"581 526 OFFCURVE",
"595 499 OFFCURVE",
"606 468 CURVE SMOOTH",
"617 436 OFFCURVE",
"622 402 OFFCURVE",
"622 362 CURVE SMOOTH",
"622 322 OFFCURVE",
"617 287 OFFCURVE",
"606 255 CURVE SMOOTH"
);
}
);
width = 795;
}
);
note = D;
rightKerningGroup = D;
unicode = 0044;
},
{
glyphname = E;
layers = (
{
anchors = (
{
name = bottom;
position = "{316, 0}";
},
{
name = ogonek;
position = "{550, 10}";
},
{
name = top;
position = "{316, 716}";
},
{
name = topleft;
position = "{42, 716}";
}
);
layerId = "C81CB9C3-2214-4415-8D0B-901773012C9D";
paths = (
{
closed = 1;
nodes = (
"56 716 LINE",
"56 674 LINE SMOOTH",
"56 664 OFFCURVE",
"61 657 OFFCURVE",
"71 655 CURVE",
"77 653 OFFCURVE",
"96 649 OFFCURVE",
"128 643 CURVE",
"128 72 LINE",
"71 61 LINE SMOOTH",
"61 59 OFFCURVE",
"56 52 OFFCURVE",
"56 42 CURVE SMOOTH",
"56 0 LINE",
"570 0 LINE",
"570 166 LINE",
"522 166 LINE SMOOTH",
"510 166 OFFCURVE",
"502 162 OFFCURVE",
"500 150 CURVE",
"500 147 OFFCURVE",
"498 122 OFFCURVE",
"494 78 CURVE",
"226 78 LINE",
"226 323 LINE",
"490 323 LINE",
"490 399 LINE",
"226 399 LINE",
"226 637 LINE",
"494 637 LINE",
"498 589 OFFCURVE",
"501 563 OFFCURVE",
"501 560 CURVE",
"503 548 OFFCURVE",
"510 543 OFFCURVE",
"522 543 CURVE SMOOTH",
"570 543 LINE",
"570 716 LINE"
);
}
);
width = 615;
},
{
anchors = (
{
name = bottom;
position = "{319, 0}";
},
{
name = ogonek;
position = "{568, 10}";
},
{
name = top;
position = "{319, 708}";
}
);
layerId = "3F211455-7DB7-4737-9D97-BF0B219628E9";
paths = (
{
closed = 1;
nodes = (
"58 708 LINE",
"58 689 LINE SMOOTH",
"58 678 OFFCURVE",
"65 672 OFFCURVE",
"78 671 CURVE",
"143 669 LINE",
"143 40 LINE",
"78 38 LINE",
"65 37 OFFCURVE",
"59 31 OFFCURVE",
"59 20 CURVE SMOOTH",
"59 0 LINE",
"567 0 LINE",
"567 147 LINE",
"542 147 LINE SMOOTH",
"528 147 OFFCURVE",
"522 138 OFFCURVE",
"521 122 CURVE",
"517 43 LINE",
"194 43 LINE",
"194 338 LINE",
"476 338 LINE",
"476 379 LINE",
"194 379 LINE",
"194 666 LINE",
"517 666 LINE",
"521 586 LINE",
"522 570 OFFCURVE",
"528 562 OFFCURVE",
"542 562 CURVE SMOOTH",
"567 562 LINE",
"567 708 LINE"
);
}
);
width = 615;
},
{
anchors = (
{
name = bottom;
position = "{320, 0}";
},
{
name = ogonek;
position = "{550, 10}";
},
{
name = top;
position = "{320, 723}";
},
{
name = topleft;
position = "{53, 723}";
}
);
layerId = "394C4E3B-EB1E-48D6-87F8-186C851DDDB0";
paths = (
{
closed = 1;
nodes = (
"129 723 LINE",
"53 723 LINE",
"53 664 LINE SMOOTH",
"53 647 OFFCURVE",
"61 637 OFFCURVE",
"78 633 CURVE",
"79 633 OFFCURVE",
"81 632 OFFCURVE",
"84 632 CURVE SMOOTH",
"87 632 OFFCURVE",
"92 630 OFFCURVE",
"99 629 CURVE SMOOTH",
"106 628 OFFCURVE",
"117 626 OFFCURVE",
"129 624 CURVE",
"129 99 LINE",
"117 97 OFFCURVE",
"106 95 OFFCURVE",
"99 94 CURVE SMOOTH",
"92 93 OFFCURVE",
"87 91 OFFCURVE",
"84 91 CURVE SMOOTH",
"81 91 OFFCURVE",
"79 90 OFFCURVE",
"78 90 CURVE",
"61 86 OFFCURVE",
"53 76 OFFCURVE",
"53 59 CURVE SMOOTH",
"53 0 LINE",
"129 0 LINE",
"585 0 LINE",
"585 70 LINE",
"585 108 LINE",
"585 191 LINE",
"580 191 LINE",
"568 191 LINE",
"527 191 LINE SMOOTH",
"514 191 OFFCURVE",
"507 184 OFFCURVE",
"504 172 CURVE",
"503 164 OFFCURVE",
"500 143 OFFCURVE",
"497 108 CURVE",
"264 108 LINE",
"264 312 LINE",
"509 312 LINE",
"509 416 LINE",
"264 416 LINE",
"264 616 LINE",
"497 616 LINE",
"500 581 OFFCURVE",
"503 560 OFFCURVE",
"504 552 CURVE",
"507 540 OFFCURVE",
"514 533 OFFCURVE",
"527 533 CURVE SMOOTH",
"568 533 LINE",
"580 533 LINE",
"585 533 LINE",
"585 616 LINE",
"585 653 LINE",
"585 723 LINE"
);
}
);
width = 618;
}
);
note = E;
rightKerningGroup = E;
unicode = 0045;
},
{
glyphname = F;
layers = (
{
anchors = (
{
name = bottom;
position = "{314, 0}";
},
{
name = top;
position = "{314, 716}";
}
);
layerId = "C81CB9C3-2214-4415-8D0B-901773012C9D";
paths = (
{
closed = 1;
nodes = (
"128 716 LINE",
"56 716 LINE",
"56 674 LINE SMOOTH",
"56 664 OFFCURVE",
"61 657 OFFCURVE",
"71 655 CURVE",
"77 653 OFFCURVE",
"96 649 OFFCURVE",
"128 643 CURVE",
"128 72 LINE",
"71 61 LINE SMOOTH",
"61 59 OFFCURVE",
"56 52 OFFCURVE",
"56 42 CURVE SMOOTH",
"56 0 LINE",
"298 0 LINE",
"298 42 LINE SMOOTH",
"298 52 OFFCURVE",
"292 59 OFFCURVE",
"282 61 CURVE SMOOTH",
"252 67 OFFCURVE",
"234 70 OFFCURVE",
"226 72 CURVE",
"226 308 LINE",
"498 308 LINE",
"498 386 LINE",
"226 386 LINE",
"226 637 LINE",
"510 637 LINE",
"514 589 OFFCURVE",
"518 563 OFFCURVE",
"518 560 CURVE",
"520 548 OFFCURVE",
"526 543 OFFCURVE",
"538 543 CURVE SMOOTH",
"587 543 LINE",
"587 716 LINE"
);
}
);
width = 637;
},
{
anchors = (
{
name = bottom;
position = "{306, 0}";
},
{
name = top;
position = "{306, 708}";
}
);
layerId = "3F211455-7DB7-4737-9D97-BF0B219628E9";
paths = (
{
closed = 1;
nodes = (
"58 708 LINE",
"58 689 LINE SMOOTH",
"58 678 OFFCURVE",
"65 672 OFFCURVE",
"78 671 CURVE",
"143 669 LINE",
"143 40 LINE",
"78 38 LINE",
"65 37 OFFCURVE",
"58 31 OFFCURVE",
"58 20 CURVE SMOOTH",
"58 0 LINE",
"278 0 LINE",
"278 20 LINE SMOOTH",
"278 31 OFFCURVE",
"272 37 OFFCURVE",
"259 38 CURVE",
"194 40 LINE",
"194 325 LINE",
"458 325 LINE",
"458 368 LINE",
"194 368 LINE",
"194 666 LINE",
"523 666 LINE",
"527 586 LINE",
"528 570 OFFCURVE",
"535 562 OFFCURVE",
"549 562 CURVE SMOOTH",
"573 562 LINE",
"573 708 LINE"
);
}
);
width = 606;
},
{
anchors = (
{
name = bottom;
position = "{330, 0}";
},
{
name = top;
position = "{330, 723}";
}
);
layerId = "394C4E3B-EB1E-48D6-87F8-186C851DDDB0";
paths = (
{
closed = 1;
nodes = (
"585 723 LINE",
"562 723 LINE",
"129 723 LINE",
"53 723 LINE",
"53 664 LINE SMOOTH",
"53 647 OFFCURVE",
"61 637 OFFCURVE",
"78 633 CURVE",
"79 633 OFFCURVE",
"81 633 OFFCURVE",
"84 632 CURVE",
"87 632 OFFCURVE",
"92 630 OFFCURVE",
"99 629 CURVE SMOOTH",
"106 628 OFFCURVE",
"117 626 OFFCURVE",
"129 624 CURVE",
"129 99 LINE",
"117 97 OFFCURVE",
"106 95 OFFCURVE",
"99 94 CURVE SMOOTH",
"92 93 OFFCURVE",
"87 91 OFFCURVE",
"84 91 CURVE SMOOTH",
"81 91 OFFCURVE",
"79 90 OFFCURVE",
"78 90 CURVE",
"61 86 OFFCURVE",
"53 76 OFFCURVE",
"53 59 CURVE SMOOTH",
"53 0 LINE",
"129 0 LINE",
"264 0 LINE",
"340 0 LINE",
"340 59 LINE SMOOTH",
"340 76 OFFCURVE",
"332 86 OFFCURVE",
"315 90 CURVE",
"314 90 OFFCURVE",
"312 91 OFFCURVE",
"309 91 CURVE SMOOTH",
"306 91 OFFCURVE",
"301 93 OFFCURVE",
"294 94 CURVE SMOOTH",
"287 95 OFFCURVE",
"276 97 OFFCURVE",
"264 99 CURVE",
"264 295 LINE",
"517 295 LINE",
"517 402 LINE",
"264 402 LINE",
"264 616 LINE",
"522 616 LINE",
"525 581 OFFCURVE",
"528 560 OFFCURVE",
"529 552 CURVE",
"532 540 OFFCURVE",
"539 533 OFFCURVE",
"552 533 CURVE SMOOTH",
"594 533 LINE",
"606 533 LINE",
"610 533 LINE",
"610 630 LINE",
"610 653 LINE",
"610 723 LINE"
);
}
);
width = 641;
}
);
note = F;
rightKerningGroup = F;
unicode = 0046;
},
{
glyphname = G;
layers = (
{
anchors = (
{
name = bottom;
position = "{363, 0}";
},
{
name = top;
position = "{363, 716}";
}
);
layerId = "C81CB9C3-2214-4415-8D0B-901773012C9D";
paths = (
{
closed = 1;
nodes = (
"327 70 OFFCURVE",
"264 96 OFFCURVE",
"216 146 CURVE SMOOTH",
"167 198 OFFCURVE",
"143 268 OFFCURVE",
"143 358 CURVE SMOOTH",
"143 444 OFFCURVE",
"166 513 OFFCURVE",
"214 564 CURVE SMOOTH",
"237 588 OFFCURVE",
"265 607 OFFCURVE",
"297 620 CURVE SMOOTH",
"329 633 OFFCURVE",
"371 640 OFFCURVE",
"419 640 CURVE SMOOTH",
"467 640 OFFCURVE",
"510 634 OFFCURVE",
"548 624 CURVE",
"558 622 OFFCURVE",
"569 618 OFFCURVE",
"585 613 CURVE",
"589 557 OFFCURVE",
"593 527 OFFCURVE",
"593 522 CURVE",
"595 510 OFFCURVE",
"602 506 OFFCURVE",
"614 506 CURVE SMOOTH",
"662 506 LINE",
"662 672 LINE",
"571 706 OFFCURVE",
"487 724 OFFCURVE",
"409 724 CURVE SMOOTH",
"297 724 OFFCURVE",
"208 690 OFFCURVE",
"141 622 CURVE SMOOTH",
"75 556 OFFCURVE",
"43 468 OFFCURVE",
"43 358 CURVE SMOOTH",
"43 250 OFFCURVE",
"76 161 OFFCURVE",
"142 93 CURVE SMOOTH",
"208 25 OFFCURVE",
"293 -8 OFFCURVE",
"397 -8 CURVE SMOOTH",
"507 -8 OFFCURVE",
"597 17 OFFCURVE",
"669 69 CURVE",
"669 344 LINE",
"449 344 LINE",
"449 289 LINE SMOOTH",
"449 283 OFFCURVE",
"451 280 OFFCURVE",
"455 276 CURVE SMOOTH",
"459 272 OFFCURVE",
"465 270 OFFCURVE",
"471 270 CURVE SMOOTH",
"582 270 LINE",
"582 112 LINE",
"529 84 OFFCURVE",
"471 70 OFFCURVE",
"405 70 CURVE SMOOTH"
);
}
);
width = 744;
},
{
anchors = (
{
name = bottom;
position = "{360, 0}";
},
{
name = top;
position = "{386, 708}";
}
);
layerId = "3F211455-7DB7-4737-9D97-BF0B219628E9";
paths = (
{
closed = 1;
nodes = (
"464 321 LINE",
"464 293 LINE SMOOTH",
"464 290 OFFCURVE",
"467 282 OFFCURVE",
"477 282 CURVE SMOOTH",
"613 282 LINE",
"613 91 LINE",
"537 48 OFFCURVE",
"482 34 OFFCURVE",
"395 34 CURVE SMOOTH",
"210 34 OFFCURVE",
"100 166 OFFCURVE",
"100 354 CURVE SMOOTH",
"100 540 OFFCURVE",
"211 671 OFFCURVE",
"401 671 CURVE SMOOTH",
"485 671 OFFCURVE",
"552 660 OFFCURVE",
"601 637 CURVE",
"606 529 LINE",
"607 513 OFFCURVE",
"614 505 OFFCURVE",
"628 505 CURVE SMOOTH",
"652 505 LINE",
"652 665 LINE",
"591 693 OFFCURVE",
"479 715 OFFCURVE",
"403 715 CURVE SMOOTH",
"184 715 OFFCURVE",
"48 573 OFFCURVE",
"48 354 CURVE SMOOTH",
"48 140 OFFCURVE",
"183 -8 OFFCURVE",
"391 -8 CURVE SMOOTH",
"499 -8 OFFCURVE",
"573 13 OFFCURVE",
"659 70 CURVE",
"659 321 LINE"
);
}
);
width = 736;
},
{
anchors = (
{
name = bottom;
position = "{358, 0}";
},
{
name = top;
position = "{358, 723}";
}
);
layerId = "394C4E3B-EB1E-48D6-87F8-186C851DDDB0";
paths = (
{
closed = 1;
nodes = (
"434 362 LINE",
"434 286 LINE SMOOTH",
"434 279 OFFCURVE",
"436 274 OFFCURVE",
"441 269 CURVE SMOOTH",
"446 264 OFFCURVE",
"453 261 OFFCURVE",
"462 261 CURVE SMOOTH",
"552 261 LINE",
"552 130 LINE",
"532 120 OFFCURVE",
"510 112 OFFCURVE",
"488 107 CURVE SMOOTH",
"465 102 OFFCURVE",
"439 99 OFFCURVE",
"409 99 CURVE SMOOTH",
"375 99 OFFCURVE",
"343 105 OFFCURVE",
"314 117 CURVE SMOOTH",
"285 129 OFFCURVE",
"260 146 OFFCURVE",
"239 168 CURVE SMOOTH",
"218 190 OFFCURVE",
"202 217 OFFCURVE",
"190 250 CURVE SMOOTH",
"178 282 OFFCURVE",
"172 320 OFFCURVE",
"172 362 CURVE SMOOTH",
"172 401 OFFCURVE",
"178 436 OFFCURVE",
"189 467 CURVE SMOOTH",
"200 498 OFFCURVE",
"216 525 OFFCURVE",
"236 547 CURVE SMOOTH",
"256 569 OFFCURVE",
"281 586 OFFCURVE",
"310 598 CURVE SMOOTH",
"339 610 OFFCURVE",
"370 616 OFFCURVE",
"406 616 CURVE SMOOTH",
"470 616 OFFCURVE",
"527 608 OFFCURVE",
"577 591 CURVE",
"581 548 OFFCURVE",
"584 522 OFFCURVE",
"586 513 CURVE SMOOTH",
"589 501 OFFCURVE",
"596 495 OFFCURVE",
"609 495 CURVE SMOOTH",
"650 495 LINE",
"663 495 LINE",
"667 495 LINE",
"667 679 LINE",
"574 713 OFFCURVE",
"489 731 OFFCURVE",
"411 731 CURVE SMOOTH",
"410 731 LINE",
"404 731 LINE SMOOTH",
"349 730 OFFCURVE",
"299 721 OFFCURVE",
"255 704 CURVE SMOOTH",
"209 686 OFFCURVE",
"169 661 OFFCURVE",
"137 628 CURVE SMOOTH",
"104 595 OFFCURVE",
"79 556 OFFCURVE",
"61 511 CURVE SMOOTH",
"43 466 OFFCURVE",
"35 416 OFFCURVE",
"35 362 CURVE SMOOTH",
"35 308 OFFCURVE",
"44 258 OFFCURVE",
"62 213 CURVE SMOOTH",
"80 168 OFFCURVE",
"106 129 OFFCURVE",
"138 96 CURVE SMOOTH",
"170 63 OFFCURVE",
"209 38 OFFCURVE",
"253 20 CURVE SMOOTH",
"297 2 OFFCURVE",
"345 -8 OFFCURVE",
"398 -8 CURVE SMOOTH",
"428 -8 OFFCURVE",
"455 -6 OFFCURVE",
"481 -3 CURVE SMOOTH",
"507 0 OFFCURVE",
"532 5 OFFCURVE",
"554 11 CURVE SMOOTH",
"576 17 OFFCURVE",
"597 25 OFFCURVE",
"617 35 CURVE SMOOTH",
"637 45 OFFCURVE",
"656 57 OFFCURVE",
"674 70 CURVE",
"674 362 LINE"
);
}
);
width = 740;
}
);
leftKerningGroup = C;
note = G;
unicode = 0047;
},
{
glyphname = H;
layers = (
{
anchors = (
{
name = bottom;
position = "{418, 0}";
},
{
name = center;
position = "{418, 358}";
},
{
name = top;
position = "{418, 716}";
},
{
name = topleft;
position = "{43, 716}";
}
);
layerId = "C81CB9C3-2214-4415-8D0B-901773012C9D";
paths = (
{
closed = 1;
nodes = (
"767 655 LINE SMOOTH",
"777 657 OFFCURVE",
"782 664 OFFCURVE",
"782 674 CURVE SMOOTH",
"782 716 LINE",
"540 716 LINE",
"540 674 LINE SMOOTH",
"540 664 OFFCURVE",
"544 658 OFFCURVE",
"552 656 CURVE SMOOTH",
"560 654 OFFCURVE",
"580 650 OFFCURVE",
"612 644 CURVE",
"612 397 LINE",
"226 397 LINE",
"226 644 LINE",
"260 650 OFFCURVE",
"280 654 OFFCURVE",
"287 656 CURVE SMOOTH",
"294 658 OFFCURVE",
"297 664 OFFCURVE",
"297 674 CURVE SMOOTH",
"297 716 LINE",
"56 716 LINE",
"56 674 LINE SMOOTH",
"56 664 OFFCURVE",
"60 658 OFFCURVE",
"68 656 CURVE SMOOTH",
"76 654 OFFCURVE",
"96 650 OFFCURVE",
"128 644 CURVE",
"128 73 LINE",
"71 62 LINE SMOOTH",
"61 60 OFFCURVE",
"56 53 OFFCURVE",
"56 43 CURVE SMOOTH",
"56 0 LINE",
"297 0 LINE",
"297 43 LINE SMOOTH",
"297 53 OFFCURVE",
"273 63 OFFCURVE",
"225 73 CURVE",
"225 326 LINE",
"611 326 LINE",
"611 73 LINE",
"555 62 LINE SMOOTH",
"545 60 OFFCURVE",
"539 53 OFFCURVE",
"539 43 CURVE SMOOTH",
"539 0 LINE",
"781 0 LINE",
"781 43 LINE SMOOTH",
"781 53 OFFCURVE",
"777 59 OFFCURVE",
"769 61 CURVE SMOOTH",
"761 63 OFFCURVE",
"741 67 OFFCURVE",
"709 73 CURVE",
"709 644 LINE"
);
}
);
width = 838;
},
{
anchors = (
{
name = bottom;
position = "{414, 0}";
},
{
name = center;
position = "{414, 354}";
},
{
name = top;
position = "{414, 708}";
}
);
layerId = "3F211455-7DB7-4737-9D97-BF0B219628E9";
paths = (
{
closed = 1;
nodes = (
"753 671 LINE",
"766 672 OFFCURVE",
"773 678 OFFCURVE",
"773 689 CURVE SMOOTH",
"773 708 LINE",
"553 708 LINE",
"553 689 LINE SMOOTH",
"553 678 OFFCURVE",
"560 672 OFFCURVE",
"573 671 CURVE",
"637 669 LINE",
"637 378 LINE",
"194 378 LINE",
"194 669 LINE",
"259 671 LINE",
"272 672 OFFCURVE",
"278 678 OFFCURVE",
"278 689 CURVE SMOOTH",
"278 708 LINE",
"58 708 LINE",
"58 689 LINE SMOOTH",
"58 678 OFFCURVE",
"65 672 OFFCURVE",
"78 671 CURVE",
"143 669 LINE",
"143 40 LINE",
"78 38 LINE",
"65 37 OFFCURVE",
"58 31 OFFCURVE",
"58 20 CURVE SMOOTH",
"58 0 LINE",
"278 0 LINE",
"278 20 LINE SMOOTH",
"278 31 OFFCURVE",
"272 37 OFFCURVE",
"259 38 CURVE",
"194 40 LINE",
"194 339 LINE",
"637 339 LINE",
"637 40 LINE",
"573 38 LINE",
"560 37 OFFCURVE",
"553 31 OFFCURVE",
"553 20 CURVE SMOOTH",
"553 0 LINE",
"773 0 LINE",
"773 20 LINE SMOOTH",
"773 31 OFFCURVE",
"766 37 OFFCURVE",
"753 38 CURVE",
"689 40 LINE",
"689 669 LINE"
);
}
);
width = 831;
},
{
anchors = (
{
name = bottom;
position = "{434, 0}";
},
{
name = center;
position = "{434, 362}";
},
{
name = top;
position = "{434, 723}";
},
{
name = topleft;
position = "{53, 723}";
}
);
layerId = "394C4E3B-EB1E-48D6-87F8-186C851DDDB0";
paths = (
{
closed = 1;
nodes = (
"806 637 OFFCURVE",
"814 647 OFFCURVE",
"814 664 CURVE SMOOTH",
"814 723 LINE",
"739 723 LINE",
"603 723 LINE",
"528 723 LINE",
"528 664 LINE SMOOTH",
"528 647 OFFCURVE",
"536 637 OFFCURVE",
"553 633 CURVE",
"554 633 OFFCURVE",
"556 632 OFFCURVE",
"559 632 CURVE",
"562 631 OFFCURVE",
"567 630 OFFCURVE",
"574 629 CURVE SMOOTH",
"581 628 OFFCURVE",
"591 626 OFFCURVE",
"603 624 CURVE",
"603 412 LINE",
"264 412 LINE",
"264 624 LINE",
"276 626 OFFCURVE",
"287 628 OFFCURVE",
"294 629 CURVE SMOOTH",
"301 630 OFFCURVE",
"306 632 OFFCURVE",
"309 632 CURVE",
"312 633 OFFCURVE",
"314 633 OFFCURVE",
"315 633 CURVE",
"332 637 OFFCURVE",
"340 647 OFFCURVE",
"340 664 CURVE SMOOTH",
"340 723 LINE",
"264 723 LINE",
"129 723 LINE",
"53 723 LINE",
"53 664 LINE SMOOTH",
"53 647 OFFCURVE",
"61 637 OFFCURVE",
"78 633 CURVE",
"79 633 OFFCURVE",
"81 633 OFFCURVE",
"84 632 CURVE",
"87 632 OFFCURVE",
"92 630 OFFCURVE",
"99 629 CURVE SMOOTH",
"106 628 OFFCURVE",
"117 626 OFFCURVE",
"129 624 CURVE",
"129 99 LINE",
"117 97 OFFCURVE",
"106 95 OFFCURVE",
"99 94 CURVE SMOOTH",
"92 93 OFFCURVE",
"87 91 OFFCURVE",
"84 91 CURVE SMOOTH",
"81 91 OFFCURVE",
"79 90 OFFCURVE",
"78 90 CURVE",
"61 86 OFFCURVE",
"53 76 OFFCURVE",
"53 59 CURVE SMOOTH",
"53 0 LINE",
"129 0 LINE",
"264 0 LINE",
"340 0 LINE",
"340 59 LINE SMOOTH",
"340 76 OFFCURVE",
"332 86 OFFCURVE",
"315 90 CURVE",
"314 90 OFFCURVE",
"312 90 OFFCURVE",
"309 91 CURVE",
"306 91 OFFCURVE",
"301 93 OFFCURVE",
"294 94 CURVE SMOOTH",
"287 95 OFFCURVE",
"276 97 OFFCURVE",
"264 99 CURVE",
"264 316 LINE",
"603 316 LINE",
"603 99 LINE",
"591 97 OFFCURVE",
"581 95 OFFCURVE",
"574 94 CURVE SMOOTH",
"567 93 OFFCURVE",
"562 92 OFFCURVE",
"559 91 CURVE SMOOTH",
"556 90 OFFCURVE",
"554 90 OFFCURVE",
"553 90 CURVE",
"536 86 OFFCURVE",
"528 76 OFFCURVE",
"528 59 CURVE SMOOTH",
"528 0 LINE",
"603 0 LINE",
"739 0 LINE",
"814 0 LINE",
"814 59 LINE SMOOTH",
"814 76 OFFCURVE",
"806 86 OFFCURVE",
"789 90 CURVE",
"788 90 OFFCURVE",
"786 91 OFFCURVE",
"783 91 CURVE SMOOTH",
"780 91 OFFCURVE",
"775 93 OFFCURVE",
"768 94 CURVE SMOOTH",
"761 95 OFFCURVE",
"751 97 OFFCURVE",
"739 99 CURVE",
"739 624 LINE",
"751 626 OFFCURVE",
"761 628 OFFCURVE",
"768 629 CURVE SMOOTH",
"775 630 OFFCURVE",
"780 632 OFFCURVE",
"783 632 CURVE SMOOTH",
"786 632 OFFCURVE",
"788 633 OFFCURVE",
"789 633 CURVE"
);
}
);
width = 867;
}
);
note = H;
unicode = 0048;
},
{
glyphname = I;
layers = (
{
anchors = (
{
name = bottom;
position = "{175, 0}";
},
{
name = ogonek;
position = "{296, 10}";
},
{
name = top;
position = "{175, 716}";
},
{
name = topleft;
position = "{42, 716}";
}
);
layerId = "C81CB9C3-2214-4415-8D0B-901773012C9D";
paths = (
{
closed = 1;
nodes = (
"282 655 LINE SMOOTH",
"292 657 OFFCURVE",
"297 664 OFFCURVE",
"297 674 CURVE SMOOTH",
"297 716 LINE",
"56 716 LINE",
"56 674 LINE SMOOTH",
"56 664 OFFCURVE",
"60 658 OFFCURVE",
"68 656 CURVE SMOOTH",
"76 654 OFFCURVE",
"96 650 OFFCURVE",
"128 644 CURVE",
"128 73 LINE",
"70 62 LINE SMOOTH",
"60 60 OFFCURVE",
"56 53 OFFCURVE",
"56 43 CURVE SMOOTH",
"56 0 LINE",
"297 0 LINE",
"297 43 LINE SMOOTH",
"297 53 OFFCURVE",
"293 59 OFFCURVE",
"285 61 CURVE SMOOTH",
"277 63 OFFCURVE",
"256 67 OFFCURVE",
"224 73 CURVE",
"224 644 LINE"
);
}
);
width = 353;
},
{
anchors = (
{
name = bottom;
position = "{166, 0}";
},
{
name = ogonek;
position = "{259, 10}";
},
{
name = top;
position = "{166, 708}";
}
);
layerId = "3F211455-7DB7-4737-9D97-BF0B219628E9";
paths = (
{
closed = 1;
nodes = (
"259 670 LINE",
"272 671 OFFCURVE",
"278 677 OFFCURVE",
"278 688 CURVE SMOOTH",
"278 708 LINE",
"58 708 LINE",
"58 688 LINE SMOOTH",
"58 677 OFFCURVE",
"65 671 OFFCURVE",
"78 670 CURVE",
"143 668 LINE",
"143 40 LINE",
"78 38 LINE",
"65 37 OFFCURVE",
"58 31 OFFCURVE",
"58 20 CURVE SMOOTH",
"58 0 LINE",
"278 0 LINE",
"278 20 LINE SMOOTH",
"278 31 OFFCURVE",
"272 37 OFFCURVE",
"259 38 CURVE",
"194 40 LINE",
"194 668 LINE"
);
}
);
width = 336;
},
{
anchors = (
{
name = bottom;
position = "{196, 0}";
},
{
name = ogonek;
position = "{306, 10}";
},
{
name = top;
position = "{196, 723}";
},
{
name = topleft;
position = "{53, 723}";
}
);
layerId = "394C4E3B-EB1E-48D6-87F8-186C851DDDB0";
paths = (
{
closed = 1;
nodes = (
"331 637 OFFCURVE",
"339 647 OFFCURVE",
"339 664 CURVE SMOOTH",
"339 723 LINE",
"264 723 LINE",
"129 723 LINE",
"53 723 LINE",
"53 664 LINE SMOOTH",
"53 647 OFFCURVE",
"61 637 OFFCURVE",
"78 633 CURVE",
"79 633 OFFCURVE",
"81 633 OFFCURVE",
"84 632 CURVE",
"87 632 OFFCURVE",
"92 630 OFFCURVE",
"99 629 CURVE SMOOTH",
"106 628 OFFCURVE",
"117 626 OFFCURVE",
"129 624 CURVE",
"129 99 LINE",
"117 97 OFFCURVE",
"106 95 OFFCURVE",
"99 94 CURVE SMOOTH",
"92 93 OFFCURVE",
"87 92 OFFCURVE",
"84 91 CURVE",
"81 91 OFFCURVE",
"79 90 OFFCURVE",
"78 90 CURVE",
"61 86 OFFCURVE",
"53 76 OFFCURVE",
"53 59 CURVE SMOOTH",
"53 0 LINE",
"129 0 LINE",
"264 0 LINE",
"339 0 LINE",
"339 59 LINE SMOOTH",
"339 76 OFFCURVE",
"331 86 OFFCURVE",
"314 90 CURVE",
"313 90 OFFCURVE",
"311 91 OFFCURVE",
"308 91 CURVE SMOOTH",
"305 91 OFFCURVE",
"300 93 OFFCURVE",
"293 94 CURVE SMOOTH",
"286 95 OFFCURVE",
"276 97 OFFCURVE",
"264 99 CURVE",
"264 624 LINE",
"276 626 OFFCURVE",
"286 628 OFFCURVE",
"293 629 CURVE SMOOTH",
"300 630 OFFCURVE",
"305 632 OFFCURVE",
"308 632 CURVE SMOOTH",
"311 632 OFFCURVE",
"313 633 OFFCURVE",
"314 633 CURVE"
);
}
);
width = 392;
}
);
note = I;
unicode = 0049;
},
{
glyphname = J;
layers = (
{
anchors = (
{
name = bottom;
position = "{195, 0}";
},
{
name = top;
position = "{195, 716}";
}
);
layerId = "C81CB9C3-2214-4415-8D0B-901773012C9D";
paths = (
{
closed = 1;
nodes = (
"92 73 LINE",
"76 73 OFFCURVE",
"62 75 OFFCURVE",
"52 78 CURVE SMOOTH",
"42 81 OFFCURVE",
"34 82 OFFCURVE",
"28 82 CURVE SMOOTH",
"22 82 OFFCURVE",
"16 80 OFFCURVE",
"12 76 CURVE SMOOTH",
"8 72 OFFCURVE",
"4 48 OFFCURVE",
"1 6 CURVE",
"36 -4 OFFCURVE",
"71 -8 OFFCURVE",
"105 -8 CURVE SMOOTH",
"139 -8 OFFCURVE",
"170 -2 OFFCURVE",
"198 10 CURVE SMOOTH",
"284 46 OFFCURVE",
"328 125 OFFCURVE",
"328 248 CURVE SMOOTH",
"328 644 LINE",
"384 655 LINE SMOOTH",
"394 657 OFFCURVE",
"400 664 OFFCURVE",
"400 674 CURVE SMOOTH",
"400 716 LINE",
"150 716 LINE",
"150 674 LINE SMOOTH",
"150 664 OFFCURVE",
"154 657 OFFCURVE",
"164 655 CURVE",
"170 653 OFFCURVE",
"193 649 OFFCURVE",
"231 643 CURVE",
"231 245 LINE SMOOTH",
"231 130 OFFCURVE",
"184 72 OFFCURVE",
"92 72 CURVE"
);
}
);
width = 423;
},
{
anchors = (
{
name = bottom;
position = "{188, 0}";
},
{
name = top;
position = "{279, 708}";
}
);
layerId = "3F211455-7DB7-4737-9D97-BF0B219628E9";
paths = (
{
closed = 1;
nodes = (
"162 708 LINE",
"162 688 LINE SMOOTH",
"162 677 OFFCURVE",
"169 671 OFFCURVE",
"182 670 CURVE",
"254 668 LINE",
"254 235 LINE SMOOTH",
"254 112 OFFCURVE",
"202 35 OFFCURVE",
"90 35 CURVE SMOOTH",
"74 35 OFFCURVE",
"49 39 OFFCURVE",
"28 44 CURVE SMOOTH",
"13 47 OFFCURVE",
"10 45 OFFCURVE",
"6 29 CURVE",
"1 7 LINE",
"28 -1 OFFCURVE",
"67 -8 OFFCURVE",
"94 -8 CURVE SMOOTH",
"231 -8 OFFCURVE",
"305 85 OFFCURVE",
"305 236 CURVE SMOOTH",
"305 668 LINE",
"370 670 LINE",
"383 671 OFFCURVE",
"390 677 OFFCURVE",
"390 688 CURVE SMOOTH",
"390 708 LINE"
);
}
);
width = 416;
},
{
anchors = (
{
name = bottom;
position = "{211, 0}";
},
{
name = top;
position = "{211, 723}";
}
);
layerId = "394C4E3B-EB1E-48D6-87F8-186C851DDDB0";
paths = (
{
closed = 1;
nodes = (
"346 723 LINE",
"212 723 LINE",
"127 723 LINE",
"127 664 LINE SMOOTH",
"127 647 OFFCURVE",
"135 637 OFFCURVE",
"152 633 CURVE",
"153 633 OFFCURVE",
"157 632 OFFCURVE",
"161 632 CURVE SMOOTH",
"165 632 OFFCURVE",
"171 630 OFFCURVE",
"180 629 CURVE SMOOTH",
"189 628 OFFCURVE",
"200 626 OFFCURVE",
"212 624 CURVE",
"212 254 LINE SMOOTH",
"212 227 OFFCURVE",
"209 203 OFFCURVE",
"204 184 CURVE SMOOTH",
"199 165 OFFCURVE",
"192 150 OFFCURVE",
"182 138 CURVE SMOOTH",
"172 126 OFFCURVE",
"160 116 OFFCURVE",
"145 111 CURVE",
"130 105 OFFCURVE",
"114 103 OFFCURVE",
"95 103 CURVE SMOOTH",
"81 103 OFFCURVE",
"69 105 OFFCURVE",
"60 107 CURVE SMOOTH",
"51 109 OFFCURVE",
"44 110 OFFCURVE",
"38 110 CURVE SMOOTH",
"29 110 OFFCURVE",
"22 107 OFFCURVE",
"17 103 CURVE",
"12 98 OFFCURVE",
"9 93 OFFCURVE",
"8 86 CURVE",
"1 6 LINE",
"20 1 OFFCURVE",
"39 -3 OFFCURVE",
"56 -5 CURVE SMOOTH",
"73 -7 OFFCURVE",
"91 -8 OFFCURVE",
"109 -8 CURVE SMOOTH",
"148 -8 OFFCURVE",
"182 -1 OFFCURVE",
"212 11 CURVE SMOOTH",
"242 23 OFFCURVE",
"267 41 OFFCURVE",
"287 64 CURVE SMOOTH",
"307 87 OFFCURVE",
"321 114 OFFCURVE",
"331 147 CURVE SMOOTH",
"341 180 OFFCURVE",
"346 216 OFFCURVE",
"346 257 CURVE SMOOTH",
"346 624 LINE",
"358 626 OFFCURVE",
"369 628 OFFCURVE",
"376 629 CURVE SMOOTH",
"383 630 OFFCURVE",
"388 632 OFFCURVE",
"391 632 CURVE SMOOTH",
"394 632 OFFCURVE",
"396 633 OFFCURVE",
"397 633 CURVE",
"414 637 OFFCURVE",
"422 647 OFFCURVE",
"422 664 CURVE SMOOTH",
"422 723 LINE"
);
}
);
width = 441;
}
);
leftKerningGroup = J;
note = J;
rightKerningGroup = J;
unicode = 004A;
},
{
glyphname = K;
layers = (
{
anchors = (
{
name = bottom;
position = "{378, 0}";
},
{
name = top;
position = "{378, 716}";
}
);
layerId = "C81CB9C3-2214-4415-8D0B-901773012C9D";
paths = (
{
closed = 1;
nodes = (
"693 59 LINE",
"687 61 OFFCURVE",
"670 64 OFFCURVE",
"642 70 CURVE",
"415 340 LINE SMOOTH",
"399 360 OFFCURVE",
"383 372 OFFCURVE",
"369 376 CURVE",
"381 382 OFFCURVE",
"394 392 OFFCURVE",
"408 408 CURVE SMOOTH",
"621 649 LINE",
"647 655 OFFCURVE",
"661 659 OFFCURVE",
"667 661 CURVE",
"677 663 OFFCURVE",
"683 670 OFFCURVE",
"683 680 CURVE",
"681 718 LINE",
"455 718 LINE",
"455 678 LINE SMOOTH",
"455 668 OFFCURVE",
"459 662 OFFCURVE",
"469 660 CURVE SMOOTH",
"475 659 OFFCURVE",
"489 656 OFFCURVE",
"513 652 CURVE",
"313 424 LINE SMOOTH",
"301 410 OFFCURVE",
"283 404 OFFCURVE",
"261 404 CURVE SMOOTH",
"225 404 LINE",
"225 644 LINE",
"233 646 OFFCURVE",
"251 650 OFFCURVE",
"281 656 CURVE SMOOTH",
"291 658 OFFCURVE",
"297 665 OFFCURVE",
"297 675 CURVE SMOOTH",
"297 718 LINE",
"56 718 LINE",
"56 675 LINE SMOOTH",
"56 665 OFFCURVE",
"61 658 OFFCURVE",
"71 656 CURVE",
"77 654 OFFCURVE",
"96 650 OFFCURVE",
"128 644 CURVE",
"128 74 LINE",
"71 62 LINE SMOOTH",
"61 60 OFFCURVE",
"56 54 OFFCURVE",
"56 44 CURVE SMOOTH",
"56 1 LINE",
"297 1 LINE",
"297 44 LINE SMOOTH",
"297 54 OFFCURVE",
"291 60 OFFCURVE",
"281 62 CURVE SMOOTH",
"254 68 OFFCURVE",
"236 72 OFFCURVE",
"225 74 CURVE",
"225 330 LINE",
"269 330 LINE SMOOTH",
"277 330 OFFCURVE",
"285 330 OFFCURVE",
"294 328 CURVE SMOOTH",
"303 326 OFFCURVE",
"313 318 OFFCURVE",
"325 306 CURVE",
"532 68 LINE",
"505 62 OFFCURVE",
"490 59 OFFCURVE",
"486 59 CURVE",
"476 57 OFFCURVE",
"472 52 OFFCURVE",
"472 42 CURVE SMOOTH",
"472 2 LINE",
"707 2 LINE",
"707 42 LINE SMOOTH",
"707 52 OFFCURVE",
"702 58 OFFCURVE",
"692 60 CURVE"
);
}
);
width = 708;
},
{
anchors = (
{
name = bottom;
position = "{367, 0}";
},
{
name = top;
position = "{367, 708}";
}
);
layerId = "3F211455-7DB7-4737-9D97-BF0B219628E9";
paths = (
{
closed = 1;
nodes = (
"626 39 LINE",
"338 340 LINE",
"329 350 OFFCURVE",
"318 360 OFFCURVE",
"302 365 CURVE",
"309 367 OFFCURVE",
"324 377 OFFCURVE",
"335 390 CURVE",
"606 669 LINE",
"644 670 LINE",
"657 671 OFFCURVE",
"664 677 OFFCURVE",
"664 688 CURVE SMOOTH",
"664 708 LINE",
"456 708 LINE",
"456 688 LINE SMOOTH",
"456 677 OFFCURVE",
"463 671 OFFCURVE",
"476 670 CURVE",
"548 669 LINE",
"286 400 LINE SMOOTH",
"272 386 OFFCURVE",
"262 381 OFFCURVE",
"235 381 CURVE SMOOTH",
"193 381 LINE",
"193 669 LINE",
"258 671 LINE",
"271 672 OFFCURVE",
"277 678 OFFCURVE",
"277 689 CURVE SMOOTH",
"277 708 LINE",
"58 708 LINE",
"58 689 LINE SMOOTH",
"58 678 OFFCURVE",
"65 672 OFFCURVE",
"78 671 CURVE",
"142 669 LINE",
"142 40 LINE",
"78 38 LINE",
"65 37 OFFCURVE",
"58 31 OFFCURVE",
"58 20 CURVE SMOOTH",
"58 0 LINE",
"277 0 LINE",
"277 20 LINE SMOOTH",
"277 31 OFFCURVE",
"271 37 OFFCURVE",
"258 38 CURVE",
"193 40 LINE",
"193 341 LINE",
"239 341 LINE SMOOTH",
"260 341 OFFCURVE",
"274 339 OFFCURVE",
"293 320 CURVE SMOOTH",
"568 39 LINE",
"492 38 LINE",
"479 37 OFFCURVE",
"472 31 OFFCURVE",
"472 20 CURVE SMOOTH",
"472 0 LINE",
"685 0 LINE",
"685 20 LINE SMOOTH",
"685 31 OFFCURVE",
"678 37 OFFCURVE",
"665 38 CURVE"
);
}
);
width = 686;
},
{
anchors = (
{
name = bottom;
position = "{401, 0}";
},
{
name = top;
position = "{401, 723}";
}
);
layerId = "394C4E3B-EB1E-48D6-87F8-186C851DDDB0";
paths = (
{
closed = 1;
nodes = (
"723 90 OFFCURVE",
"721 91 OFFCURVE",
"717 91 CURVE SMOOTH",
"713 91 OFFCURVE",
"707 93 OFFCURVE",
"699 94 CURVE SMOOTH",
"691 95 OFFCURVE",
"682 97 OFFCURVE",
"670 99 CURVE",
"492 338 LINE SMOOTH",
"484 349 OFFCURVE",
"475 359 OFFCURVE",
"466 366 CURVE SMOOTH",
"457 373 OFFCURVE",
"447 379 OFFCURVE",
"436 383 CURVE",
"444 387 OFFCURVE",
"452 393 OFFCURVE",
"459 399 CURVE SMOOTH",
"466 405 OFFCURVE",
"473 413 OFFCURVE",
"481 422 CURVE",
"644 624 LINE",
"656 626 OFFCURVE",
"666 628 OFFCURVE",
"674 629 CURVE SMOOTH",
"682 630 OFFCURVE",
"688 632 OFFCURVE",
"692 632 CURVE SMOOTH",
"696 632 OFFCURVE",
"698 633 OFFCURVE",
"700 633 CURVE",
"717 637 OFFCURVE",
"725 647 OFFCURVE",
"725 664 CURVE SMOOTH",
"725 723 LINE",
"649 723 LINE",
"624 723 LINE",
"459 723 LINE",
"459 664 LINE SMOOTH",
"459 647 OFFCURVE",
"467 637 OFFCURVE",
"484 633 CURVE",
"485 633 OFFCURVE",
"487 632 OFFCURVE",
"490 632 CURVE SMOOTH",
"493 632 OFFCURVE",
"495 631 OFFCURVE",
"497 631 CURVE",
"348 442 LINE SMOOTH",
"342 434 OFFCURVE",
"334 429 OFFCURVE",
"326 425 CURVE SMOOTH",
"318 421 OFFCURVE",
"308 420 OFFCURVE",
"295 420 CURVE SMOOTH",
"263 420 LINE",
"263 624 LINE",
"275 626 OFFCURVE",
"286 629 OFFCURVE",
"293 630 CURVE SMOOTH",
"300 631 OFFCURVE",
"305 631 OFFCURVE",
"308 632 CURVE",
"311 632 OFFCURVE",
"313 633 OFFCURVE",
"314 633 CURVE",
"331 637 OFFCURVE",
"339 648 OFFCURVE",
"339 665 CURVE SMOOTH",
"339 723 LINE",
"263 723 LINE",
"129 723 LINE",
"53 723 LINE",
"53 665 LINE SMOOTH",
"53 648 OFFCURVE",
"61 637 OFFCURVE",
"78 633 CURVE",
"79 633 OFFCURVE",
"81 632 OFFCURVE",
"84 632 CURVE SMOOTH",
"87 632 OFFCURVE",
"92 631 OFFCURVE",
"99 630 CURVE SMOOTH",
"106 629 OFFCURVE",
"117 626 OFFCURVE",
"129 624 CURVE",
"129 99 LINE",
"117 97 OFFCURVE",
"106 95 OFFCURVE",
"99 94 CURVE SMOOTH",
"92 93 OFFCURVE",
"87 92 OFFCURVE",
"84 91 CURVE SMOOTH",
"81 90 OFFCURVE",
"79 90 OFFCURVE",
"78 90 CURVE",
"61 86 OFFCURVE",
"53 76 OFFCURVE",
"53 59 CURVE SMOOTH",
"53 0 LINE",
"129 0 LINE",
"263 0 LINE",
"339 0 LINE",
"339 59 LINE SMOOTH",
"339 76 OFFCURVE",
"331 86 OFFCURVE",
"314 90 CURVE",
"313 90 OFFCURVE",
"311 91 OFFCURVE",
"308 91 CURVE SMOOTH",
"305 91 OFFCURVE",
"300 93 OFFCURVE",
"293 94 CURVE SMOOTH",
"286 95 OFFCURVE",
"275 97 OFFCURVE",
"263 99 CURVE",
"263 318 LINE",
"306 318 LINE SMOOTH",
"321 318 OFFCURVE",
"333 316 OFFCURVE",
"341 312 CURVE SMOOTH",
"349 308 OFFCURVE",
"357 303 OFFCURVE",
"364 294 CURVE SMOOTH",
"517 94 LINE",
"512 93 OFFCURVE",
"507 92 OFFCURVE",
"503 91 CURVE SMOOTH",
"499 90 OFFCURVE",
"496 90 OFFCURVE",
"495 90 CURVE",
"478 86 OFFCURVE",
"470 76 OFFCURVE",
"470 59 CURVE SMOOTH",
"470 0 LINE",
"624 0 LINE",
"636 0 LINE",
"675 0 LINE",
"743 0 LINE",
"750 0 LINE",
"750 59 LINE SMOOTH",
"750 76 OFFCURVE",
"742 86 OFFCURVE",
"725 90 CURVE"
);
}
);
width = 751;
}
);
note = K;
rightKerningGroup = K;
unicode = 004B;
},
